<?xml version="1.0" encoding="utf-8"?>
<!-- Generator: Adobe Illustrator 24.1.2, SVG Export Plug-In . SVG Version: 6.00 Build 0)  -->
<svg version="1.1" id="Layer_1" xmlns="http://www.w3.org/2000/svg" xmlns:xlink="http://www.w3.org/1999/xlink" x="0px" y="0px"
	 viewBox="0 0 126.05 20.34" style="enable-background:new 0 0 126.05 20.34;" xml:space="preserve">
<style type="text/css">
	.st0{fill:#A2ED38;}
	.st1{fill:#8A0D8B;}
</style>
<g>
	<g>
		<g>
			<g>
				<path class="st0" d="M30.38,5.58l0.38-0.29c1-0.78,2.26-1.2,3.57-1.2c1.25,0,2.48,0.4,3.46,1.11l0.39,0.28l-1.69,2.31
					l-0.39-0.28c-0.52-0.38-1.13-0.58-1.78-0.58c-0.66,0-1.31,0.22-1.81,0.61l-0.38,0.29L30.38,5.58z"/>
			</g>
			<g>
				<path class="st1" d="M34.33,4.56c1.12,0,2.24,0.34,3.18,1.02l-1.12,1.54c-0.62-0.45-1.34-0.67-2.06-0.67
					c-0.75,0-1.5,0.24-2.11,0.71l-1.17-1.5C31.99,4.93,33.16,4.56,34.33,4.56 M34.33,3.61c-1.41,0-2.78,0.46-3.86,1.3L29.72,5.5
					l0.58,0.75l1.17,1.5l0.58,0.75l0.75-0.58c0.42-0.33,0.96-0.51,1.52-0.51c0.54,0,1.06,0.17,1.5,0.49l0.77,0.56l0.56-0.77
					l1.12-1.54l0.56-0.77l-0.77-0.56C37,4.04,35.67,3.61,34.33,3.61L34.33,3.61z"/>
			</g>
		</g>
	</g>
	<g>
		<path class="st1" d="M11.2,17.85c-1.73,0.65-3.93,0.97-6.58,0.97c-0.45,0-0.85-0.19-1.2-0.56c-0.35-0.37-0.53-0.77-0.53-1.19V5.23
			C2.87,4.73,2.85,4.22,2.83,3.72c-0.02-0.57,0-1.06,0.06-1.45c0.1-0.7,0.76-1.12,1.95-1.27c0.57-0.16,1.5-0.25,2.81-0.25
			c1.41,0,2.75,0.45,4.04,1.36c1.51,1.06,2.27,2.38,2.27,3.96c0,0.86-0.16,1.58-0.47,2.17c-0.25,0.48-0.67,0.99-1.28,1.53
			c0.72,0.35,1.36,0.88,1.92,1.59c0.63,0.79,0.95,1.57,0.95,2.36c0,0.99-0.54,1.93-1.62,2.81C12.74,17.11,11.99,17.55,11.2,17.85z
			 M7.66,3.77c-0.96,0-1.54,0.01-1.73,0.02l0.01,2.37L5.93,8.51C6.6,8.59,7.11,8.61,7.46,8.58c2.28-0.18,3.42-1.02,3.42-2.51
			c0-0.53-0.33-1.04-1-1.53C9.18,4.03,8.44,3.77,7.66,3.77z M8.96,11.67c-0.68,0-1.69-0.03-3.04-0.08v4.18
			c1.28-0.07,2.67-0.31,4.16-0.74c1.31-0.37,1.96-0.77,1.94-1.21c-0.02-0.57-0.44-1.08-1.26-1.53C10.13,11.93,9.53,11.73,8.96,11.67
			z"/>
		<path class="st0" d="M4.62,19.26c-0.57,0-1.08-0.23-1.52-0.7c-0.43-0.45-0.65-0.96-0.65-1.5V5.23c-0.02-0.49-0.04-1-0.06-1.51
			c-0.02-0.59,0-1.11,0.06-1.53c0.14-0.91,0.92-1.47,2.33-1.64c0.54-0.16,1.5-0.25,2.87-0.25c1.49,0,2.94,0.49,4.29,1.44
			c1.63,1.14,2.45,2.59,2.45,4.32c0,0.92-0.18,1.72-0.52,2.37c-0.2,0.4-0.51,0.8-0.94,1.23c0.56,0.36,1.08,0.83,1.53,1.4
			c0.69,0.86,1.04,1.75,1.04,2.63c0,1.12-0.6,2.18-1.78,3.15c-0.75,0.62-1.56,1.09-2.39,1.4c0,0,0,0,0,0
			C9.57,18.92,7.31,19.26,4.62,19.26z M7.66,1.18c-1.26,0-2.17,0.08-2.69,0.23C3.92,1.55,3.39,1.85,3.32,2.33
			C3.27,2.7,3.25,3.16,3.27,3.7c0.01,0.51,0.03,1.01,0.06,1.52v11.85c0,0.31,0.13,0.6,0.41,0.89c0.27,0.28,0.56,0.42,0.88,0.42
			c2.58,0,4.74-0.32,6.42-0.94c0.74-0.28,1.46-0.7,2.14-1.26c0.97-0.79,1.46-1.63,1.46-2.47c0-0.68-0.29-1.38-0.85-2.08
			c-0.52-0.65-1.11-1.14-1.77-1.47c-0.13-0.06-0.22-0.19-0.24-0.33c-0.02-0.15,0.03-0.29,0.14-0.39c0.57-0.51,0.97-0.98,1.19-1.4
			c0.28-0.53,0.42-1.19,0.42-1.97c0-1.45-0.68-2.63-2.08-3.61C10.24,1.61,8.97,1.18,7.66,1.18z M11.2,17.85h0.01H11.2z M5.93,16.2
			c-0.11,0-0.22-0.04-0.3-0.12c-0.09-0.08-0.14-0.2-0.14-0.32v-4.18c0-0.12,0.05-0.23,0.13-0.32c0.09-0.08,0.21-0.11,0.32-0.12
			c1.34,0.05,2.35,0.08,3.02,0.08c0.02,0,0.03,0,0.05,0c0.62,0.07,1.29,0.3,1.98,0.68c0.96,0.52,1.46,1.16,1.49,1.89
			c0.03,0.88-1.19,1.34-2.26,1.64c-1.52,0.43-2.96,0.69-4.26,0.75C5.94,16.2,5.94,16.2,5.93,16.2z M6.36,12.04v3.25
			c1.12-0.1,2.33-0.33,3.61-0.69c1.51-0.43,1.62-0.77,1.63-0.77c-0.02-0.4-0.36-0.79-1.03-1.16c-0.58-0.32-1.13-0.52-1.62-0.57
			C8.34,12.1,7.48,12.08,6.36,12.04z M7.14,9.03C6.81,9.03,6.39,9,5.87,8.94C5.65,8.92,5.49,8.73,5.49,8.51L5.5,6.16L5.49,3.8
			c0-0.23,0.17-0.42,0.4-0.44c0.2-0.02,0.79-0.02,1.77-0.02c0.87,0,1.71,0.29,2.47,0.86c0.78,0.57,1.18,1.21,1.18,1.88
			c0,1.21-0.66,2.7-3.82,2.95C7.39,9.03,7.27,9.03,7.14,9.03z M6.37,8.12c0.46,0.04,0.81,0.05,1.05,0.03
			c3.02-0.24,3.02-1.62,3.02-2.08c0-0.38-0.28-0.78-0.83-1.18C8.99,4.43,8.35,4.21,7.66,4.21c-0.57,0-1,0-1.29,0.01l0.01,1.94
			L6.37,8.12z"/>
	</g>
	<g>
		<path class="st1" d="M56.66,13.34l-0.01,4.7c0,0.33-0.09,0.63-0.28,0.9c-0.26,0.38-0.64,0.57-1.14,0.57
			c-0.59,0-1.05-0.24-1.38-0.71c-0.26-0.37-0.39-0.77-0.39-1.19c0-1.65,0.05-4.13,0.16-7.45s0.16-5.79,0.16-7.45
			c0-0.42,0.15-0.77,0.45-1.07s0.67-0.45,1.12-0.45s0.82,0.15,1.11,0.45s0.44,0.66,0.44,1.07c0,0.67-0.03,1.57-0.1,2.71
			c-0.08,1.32-0.13,2.23-0.15,2.71c0.52-0.49,2.45-2.56,5.79-6.21c0.34-0.37,0.74-0.56,1.18-0.56c0.42,0,0.79,0.15,1.11,0.45
			S65.2,2.48,65.2,2.9c0,0.46-0.89,1.66-2.66,3.6c-1.31,1.42-2.69,2.82-4.14,4.21c0.81,0.77,1.63,1.53,2.45,2.3
			c0.95,0.88,1.81,1.6,2.57,2.17c0.38,0.28,0.79,0.48,1.23,0.63c0.8,0.25,1.19,0.74,1.19,1.46c0,0.32-0.1,0.63-0.3,0.93
			c-0.28,0.4-0.66,0.6-1.15,0.6c-1.06,0-2.45-0.7-4.14-2.09C59.74,16.28,58.55,15.16,56.66,13.34z"/>
		<path class="st0" d="M55.23,19.95c-0.73,0-1.33-0.31-1.74-0.9c-0.31-0.45-0.47-0.93-0.47-1.45c0-1.65,0.05-4.16,0.16-7.46
			c0.1-3.29,0.16-5.79,0.16-7.43c0-0.54,0.19-1,0.57-1.38c0.76-0.77,2.09-0.76,2.85,0c0.38,0.38,0.57,0.84,0.57,1.38
			c0,0.67-0.03,1.57-0.1,2.74c-0.04,0.61-0.07,1.13-0.09,1.56c0.94-0.99,2.61-2.79,4.98-5.38c0.83-0.9,2.1-0.91,2.92-0.13
			c0.41,0.38,0.61,0.85,0.61,1.4c0,0.43-0.33,1.22-2.77,3.89c-1.22,1.33-2.51,2.64-3.83,3.91c0.7,0.66,1.4,1.32,2.11,1.98
			c0.94,0.86,1.79,1.58,2.53,2.14c0.34,0.24,0.71,0.43,1.1,0.56c1.24,0.39,1.5,1.24,1.5,1.88c0,0.41-0.13,0.8-0.38,1.17
			c-0.36,0.52-0.88,0.79-1.51,0.79c-1.18,0-2.63-0.72-4.42-2.19c-0.44-0.37-1.39-1.24-2.87-2.67l-0.01,3.67
			c0,0.41-0.12,0.8-0.36,1.15C56.39,19.69,55.88,19.95,55.23,19.95z M55.33,1.63c-0.33,0-0.59,0.1-0.81,0.32
			c-0.21,0.21-0.32,0.46-0.32,0.76c0,1.65-0.05,4.16-0.16,7.46c-0.1,3.29-0.16,5.79-0.16,7.43c0,0.33,0.1,0.64,0.31,0.94
			c0.25,0.36,0.58,0.53,1.03,0.53c0.35,0,0.6-0.12,0.78-0.38c0.14-0.2,0.2-0.42,0.2-0.66l0.01-4.7c0-0.17,0.11-0.33,0.27-0.4
			c0.16-0.06,0.35-0.03,0.47,0.09c1.87,1.81,3.07,2.94,3.56,3.34c1.61,1.32,2.91,1.99,3.86,1.99c0.35,0,0.6-0.13,0.79-0.41
			c0.15-0.22,0.23-0.45,0.23-0.68c0-0.36-0.1-0.79-0.89-1.05c-0.48-0.16-0.94-0.39-1.35-0.69c-0.77-0.57-1.65-1.31-2.61-2.2
			c-0.82-0.77-1.64-1.54-2.45-2.3c-0.09-0.08-0.14-0.2-0.14-0.32c0-0.12,0.05-0.24,0.13-0.32c1.43-1.36,2.81-2.77,4.12-4.19
			c2.38-2.6,2.53-3.21,2.54-3.3c0-0.3-0.11-0.55-0.34-0.76c-0.47-0.44-1.16-0.46-1.67,0.09c-3.38,3.69-5.28,5.73-5.81,6.23
			c-0.13,0.12-0.32,0.16-0.48,0.08C56.3,8.46,56.2,8.3,56.2,8.12c0.02-0.49,0.06-1.4,0.15-2.73c0.07-1.15,0.1-2.03,0.1-2.69
			c0-0.3-0.1-0.55-0.31-0.76C55.92,1.73,55.66,1.63,55.33,1.63z"/>
	</g>
	<g>
		<path class="st1" d="M75.83,10.11c-0.74,0-1.18-0.31-1.33-0.93c-0.3-0.05-0.6-0.08-0.92-0.08c-1.79,0-2.69,0.25-2.69,0.74
			c0,0.29,0.54,0.68,1.62,1.17c1.47,0.68,2.47,1.21,2.99,1.59c1.08,0.78,1.62,1.66,1.62,2.65c0,1.28-0.6,2.25-1.79,2.91
			c-0.96,0.53-2.14,0.79-3.54,0.79c-0.99,0-1.89-0.15-2.71-0.46c-1.12-0.42-1.67-1.03-1.67-1.84c0-0.74,0.44-1.12,1.33-1.12
			c0.34,0,0.84,0.11,1.48,0.32c0.65,0.22,1.15,0.32,1.5,0.32c1.51,0,2.27-0.31,2.28-0.92c0-0.38-0.52-0.8-1.57-1.26
			c-1.53-0.68-2.52-1.16-2.95-1.46c-1.05-0.74-1.57-1.63-1.57-2.69c0-1.5,0.79-2.5,2.38-3.03c0.93-0.31,2.34-0.46,4.24-0.46
			c0.74,0,1.3,0.1,1.65,0.29c0.49,0.26,0.74,0.74,0.74,1.44C76.91,9.44,76.55,10.11,75.83,10.11z"/>
		<path class="st0" d="M71.8,19.39c-1.04,0-2-0.16-2.87-0.49c-1.3-0.49-1.96-1.24-1.96-2.25c0-0.99,0.64-1.55,1.77-1.55
			c0.39,0,0.92,0.11,1.62,0.35c0.75,0.25,1.15,0.3,1.36,0.3c1.35,0,1.84-0.26,1.84-0.48l0,0c0,0-0.06-0.31-1.31-0.86
			c-1.57-0.69-2.56-1.18-3.02-1.5c-1.17-0.82-1.76-1.85-1.76-3.05c0-1.68,0.93-2.87,2.68-3.44c0.97-0.32,2.45-0.48,4.38-0.48
			c0.83,0,1.43,0.11,1.86,0.34c0.44,0.23,0.97,0.74,0.97,1.82c0,2.02-0.83,2.45-1.52,2.45c-0.82,0-1.4-0.34-1.66-0.97
			c-0.19-0.02-0.39-0.03-0.58-0.03c-1.83,0-2.2,0.27-2.25,0.32l0,0c0.04,0,0.28,0.26,1.36,0.75c1.51,0.7,2.52,1.23,3.07,1.63
			c1.19,0.86,1.8,1.87,1.8,3c0,1.44-0.68,2.55-2.01,3.3C74.52,19.11,73.26,19.39,71.8,19.39z M68.74,15.98
			c-0.82,0-0.89,0.35-0.89,0.68c0,0.23,0,0.91,1.39,1.43c0.77,0.29,1.63,0.43,2.56,0.43c1.32,0,2.44-0.25,3.33-0.74
			c1.05-0.58,1.56-1.41,1.56-2.53c0-0.84-0.47-1.59-1.44-2.29c-0.5-0.36-1.48-0.88-2.92-1.54c-1.35-0.62-1.87-1.06-1.87-1.57
			c0-1.04,1.58-1.18,3.13-1.18c0.33,0,0.66,0.03,0.99,0.09c0.17,0.03,0.31,0.16,0.35,0.33c0.07,0.29,0.23,0.59,0.9,0.59
			c0.43,0,0.64-0.53,0.64-1.57c0-0.7-0.29-0.94-0.5-1.05c-0.2-0.11-0.62-0.24-1.45-0.24c-1.84,0-3.22,0.15-4.11,0.44
			c-1.4,0.46-2.08,1.31-2.08,2.61c0,0.91,0.45,1.68,1.39,2.33c0.28,0.19,1.01,0.6,2.87,1.42c1.27,0.56,1.84,1.07,1.84,1.66
			c-0.02,1.35-2.05,1.35-2.72,1.35c-0.4,0-0.94-0.11-1.64-0.35C69.33,16.03,68.94,15.98,68.74,15.98z"/>
	</g>
	<g>
		<path class="st1" d="M86.98,9.3c-0.16,0-0.34-0.01-0.55-0.02s-0.4-0.02-0.55-0.02c-0.31,0-0.66,0.03-1.06,0.09
			c0.13,3.01,0.2,4.97,0.2,5.9c0,0.1,0,0.28,0.01,0.54c0.01,0.26,0.01,0.48,0.01,0.64c0,1.71-0.54,2.57-1.62,2.57
			c-0.41,0-0.76-0.13-1.06-0.38c-0.33-0.27-0.49-0.6-0.49-1c0-0.27,0.01-0.67,0.03-1.21c0.02-0.54,0.03-0.94,0.03-1.21
			c0-0.9-0.07-2.83-0.2-5.78c-0.46-0.02-1.16-0.08-2.09-0.18s-1.4-0.58-1.4-1.45c0-0.42,0.14-0.77,0.42-1.06
			c0.28-0.29,0.65-0.44,1.09-0.44c0.28,0,0.91,0.04,1.9,0.13c-0.01-0.24-0.03-0.63-0.06-1.18c-0.03-0.48-0.04-0.84-0.04-1.11
			c0-0.42,0.15-0.76,0.46-1.04s0.67-0.41,1.11-0.41c1.1,0,1.65,0.93,1.65,2.78l-0.02,0.92c0.46-0.07,0.84-0.1,1.13-0.1
			c0.86,0,1.44,0.06,1.75,0.17c0.6,0.21,0.89,0.66,0.89,1.36c0,0.42-0.15,0.78-0.44,1.06C87.8,9.16,87.43,9.3,86.98,9.3z"/>
		<path class="st0" d="M83.42,19.44c-0.51,0-0.97-0.16-1.34-0.48c-0.42-0.35-0.65-0.81-0.65-1.34c0-0.27,0.01-0.68,0.03-1.23
			c0.02-0.53,0.03-0.92,0.03-1.19c0-0.86-0.06-2.67-0.18-5.37c-0.44-0.03-1.01-0.09-1.72-0.16c-1.16-0.12-1.79-0.79-1.79-1.88
			c0-0.53,0.18-0.99,0.55-1.37c0.37-0.38,0.84-0.57,1.41-0.57c0.24,0,0.71,0.03,1.44,0.09c-0.01-0.19-0.02-0.42-0.04-0.68
			c-0.03-0.48-0.04-0.86-0.04-1.13c0-0.55,0.2-1,0.6-1.36c0.38-0.35,0.86-0.53,1.4-0.53c0.95,0,2.09,0.56,2.09,3.22L85.2,5.89
			c0.26-0.03,0.49-0.04,0.68-0.04c0.91,0,1.53,0.06,1.9,0.19c0.54,0.19,1.18,0.65,1.18,1.77c0,0.55-0.19,1.01-0.57,1.38
			c-0.37,0.36-0.85,0.55-1.41,0.55c-0.16,0-0.36-0.01-0.57-0.02c-0.46-0.03-0.74-0.02-1.14,0.02c0.12,2.84,0.18,4.64,0.18,5.51
			c0,0.09,0,0.27,0.01,0.53c0.01,0.27,0.01,0.49,0.01,0.65C85.48,18.92,84.36,19.44,83.42,19.44z M79.76,6.73
			c-0.33,0-0.58,0.1-0.78,0.3c-0.2,0.21-0.3,0.45-0.3,0.75c0,0.64,0.29,0.93,1.01,1.01c0.92,0.1,1.61,0.16,2.07,0.18
			C81.98,9,82.16,9.17,82.17,9.4c0.13,2.94,0.2,4.89,0.2,5.8c0,0.27-0.01,0.68-0.03,1.23c-0.02,0.53-0.03,0.92-0.03,1.19
			c0,0.27,0.11,0.48,0.33,0.67c0.22,0.19,0.48,0.28,0.78,0.28c0.32,0,1.18,0,1.18-2.13c0-0.16-0.01-0.37-0.01-0.63
			c-0.01-0.27-0.01-0.45-0.01-0.55c0-0.9-0.07-2.82-0.2-5.88c-0.01-0.22,0.15-0.42,0.37-0.45c0.42-0.06,0.8-0.09,1.13-0.09
			c0.16,0,0.36,0.01,0.58,0.02c0.64,0.03,1.03,0.01,1.33-0.28c0.21-0.2,0.3-0.44,0.3-0.75c0-0.65-0.32-0.85-0.6-0.95
			c-0.15-0.05-0.56-0.14-1.61-0.14c-0.26,0-0.62,0.03-1.06,0.1c-0.13,0.02-0.26-0.02-0.35-0.11c-0.1-0.09-0.15-0.21-0.15-0.34
			l0.02-0.92c0-2.33-0.91-2.33-1.21-2.33c-0.32,0-0.59,0.1-0.81,0.3c-0.22,0.19-0.31,0.42-0.31,0.71c0,0.25,0.02,0.61,0.04,1.08
			c0.03,0.56,0.05,0.96,0.06,1.2c0,0.12-0.05,0.25-0.14,0.33c-0.09,0.09-0.22,0.14-0.34,0.12C80.64,6.78,80.02,6.73,79.76,6.73z"/>
	</g>
	<g>
		<path class="st1" d="M94.47,18.95c-1.38,0-2.56-0.47-3.55-1.42c-1.09-1.03-1.66-2.42-1.71-4.14c-0.05-1.65,0.4-3.11,1.35-4.4
			c1.13-1.52,2.71-2.28,4.72-2.28c1.49,0,2.67,0.6,3.55,1.79c0.79,1.07,1.18,2.4,1.18,3.99c0,1.73-0.46,3.2-1.38,4.42
			C97.6,18.26,96.21,18.95,94.47,18.95z M95.14,9.66c-0.92-0.01-1.64,0.41-2.17,1.25c-0.45,0.71-0.67,1.53-0.67,2.48
			c0,0.89,0.25,1.58,0.76,2.05c0.4,0.38,0.87,0.57,1.41,0.57c0.65,0,1.21-0.22,1.69-0.66c0.54-0.51,0.83-1.21,0.87-2.09
			C97.13,10.87,96.5,9.66,95.14,9.66z"/>
		<path class="st0" d="M94.47,19.38c-1.48,0-2.78-0.52-3.85-1.54c-1.17-1.11-1.79-2.61-1.84-4.45c-0.06-1.74,0.43-3.31,1.44-4.67
			c1.21-1.63,2.92-2.46,5.07-2.46c1.63,0,2.94,0.66,3.9,1.96c0.84,1.14,1.27,2.57,1.27,4.25c0,1.82-0.5,3.39-1.47,4.69
			C97.87,18.64,96.35,19.38,94.47,19.38z M95.29,7.15c-1.89,0-3.32,0.69-4.37,2.1c-0.89,1.2-1.31,2.59-1.26,4.12
			c0.05,1.62,0.56,2.88,1.57,3.84c0.92,0.87,1.98,1.3,3.25,1.3c1.61,0,2.86-0.61,3.82-1.87c0.86-1.14,1.3-2.54,1.3-4.16
			c0-1.48-0.37-2.74-1.1-3.73C97.69,7.67,96.64,7.15,95.29,7.15z M94.47,16.45c-0.65,0-1.22-0.23-1.71-0.69
			c-0.59-0.56-0.9-1.36-0.9-2.37c0-1.03,0.25-1.94,0.74-2.71c0.6-0.96,1.45-1.45,2.51-1.45c0.01,0,0.02,0,0.03,0l0,0
			c0.61,0,1.11,0.21,1.5,0.61c0.62,0.65,0.89,1.78,0.83,3.45c-0.04,0.99-0.38,1.8-1.01,2.39C95.9,16.19,95.23,16.45,94.47,16.45z
			 M95.12,10.09c-0.75,0-1.33,0.34-1.77,1.05c-0.4,0.63-0.6,1.39-0.6,2.25c0,0.78,0.2,1.34,0.62,1.74c0.32,0.3,0.68,0.45,1.11,0.45
			c0.54,0,0.99-0.18,1.39-0.54c0.46-0.43,0.7-1.02,0.73-1.79c0.06-1.38-0.15-2.35-0.58-2.81c-0.22-0.23-0.5-0.34-0.87-0.34
			c0,0,0,0,0,0C95.13,10.09,95.12,10.09,95.12,10.09z"/>
	</g>
	<g>
		<path class="st1" d="M111.25,10.24c-0.07,1.14-0.58,1.71-1.55,1.71c-0.94,0-1.41-0.48-1.41-1.45l-0.06-1.13
			c-1.67,0.27-2.87,1.13-3.6,2.58l0.01,5.62c0,0.42-0.15,0.78-0.44,1.06c-0.29,0.28-0.66,0.42-1.11,0.42
			c-0.46,0-0.82-0.15-1.07-0.45c-0.24-0.27-0.36-0.61-0.36-1.03v-7.31c0-0.23,0.01-0.58,0.02-1.03c0.01-0.46,0.02-0.8,0.02-1.03
			c0-0.42,0.12-0.76,0.37-1.04c0.25-0.28,0.6-0.42,1.07-0.42c0.83,0,1.32,0.42,1.47,1.27c1.32-0.98,2.78-1.47,4.39-1.47
			c1.49,0,2.23,0.99,2.23,2.97C111.26,9.87,111.26,10.12,111.25,10.24z"/>
		<path class="st0" d="M103.11,19.47c-0.59,0-1.07-0.2-1.4-0.6c-0.3-0.34-0.46-0.78-0.46-1.31v-7.31c0-0.23,0.01-0.58,0.02-1.05
			c0.02-0.45,0.02-0.79,0.02-1.02c0-0.53,0.16-0.98,0.49-1.34c0.34-0.37,0.8-0.56,1.39-0.56c0.81,0,1.4,0.36,1.71,1.01
			c1.26-0.81,2.65-1.22,4.15-1.22c1.22,0,2.67,0.59,2.67,3.41c0,0.39-0.01,0.65-0.01,0.77l0,0c-0.11,1.85-1.29,2.12-1.99,2.12
			c-1.17,0-1.85-0.69-1.85-1.89l-0.03-0.6c-1.25,0.31-2.15,1.02-2.75,2.15l0.01,5.51c0,0.55-0.19,1.01-0.57,1.37
			C104.15,19.29,103.67,19.47,103.11,19.47z M103.17,7.16c-0.33,0-0.58,0.09-0.74,0.27c-0.18,0.2-0.26,0.44-0.26,0.75
			c0,0.23-0.01,0.58-0.02,1.05c-0.02,0.45-0.02,0.79-0.02,1.02v7.31c0,0.31,0.08,0.55,0.25,0.74c0.35,0.41,1.13,0.4,1.55,0
			c0.21-0.2,0.3-0.43,0.3-0.74l-0.01-5.62c0-0.07,0.02-0.13,0.05-0.19c0.78-1.58,2.1-2.53,3.92-2.82c0.12-0.02,0.25,0.02,0.34,0.09
			c0.1,0.08,0.16,0.19,0.16,0.32l0.05,1.13c0,0.75,0.27,1.03,0.97,1.03c0.51,0,1.05-0.15,1.11-1.3l0,0
			c0.01-0.11,0.01-0.36,0.01-0.72c0-2.27-1.03-2.53-1.8-2.53c-1.5,0-2.89,0.47-4.13,1.39c-0.12,0.09-0.28,0.11-0.42,0.06
			c-0.14-0.05-0.24-0.18-0.27-0.33C104.1,7.43,103.78,7.16,103.17,7.16z M111.25,10.24h0.01H111.25z"/>
	</g>
	<g>
		<path class="st1" d="M118.51,18.8c-1.78,0-3.23-0.42-4.37-1.27c-1.25-0.94-1.88-2.26-1.88-3.96c0-1.88,0.49-3.48,1.48-4.78
			c1.1-1.44,2.59-2.17,4.45-2.17c1.3,0,2.37,0.21,3.23,0.63c1.12,0.55,1.69,1.41,1.69,2.57c0,0.82-0.46,1.54-1.37,2.18
			c-0.42,0.29-1.25,0.71-2.51,1.27l-3.76,1.66c0.36,0.39,0.79,0.68,1.3,0.87c0.51,0.19,1.09,0.29,1.74,0.29c1,0,1.84-0.2,2.53-0.61
			c0.62-0.36,1.11-0.55,1.48-0.55c0.77,0,1.16,0.38,1.16,1.13c0,0.85-0.62,1.54-1.86,2.08C120.79,18.58,119.68,18.8,118.51,18.8z
			 M118.21,9.32c-0.69,0-1.28,0.23-1.78,0.69c-0.49,0.46-0.89,1.15-1.18,2.08c0.84-0.36,1.68-0.73,2.51-1.08
			c1-0.45,1.81-0.87,2.4-1.26C119.66,9.46,119.01,9.32,118.21,9.32z"/>
		<path class="st0" d="M118.51,19.24c-1.87,0-3.42-0.46-4.63-1.36c-1.36-1.02-2.05-2.47-2.05-4.31c0-1.98,0.53-3.67,1.57-5.04
			c1.19-1.55,2.8-2.34,4.8-2.34c1.36,0,2.51,0.23,3.42,0.67c1.28,0.63,1.93,1.63,1.93,2.96c0,0.97-0.52,1.82-1.56,2.54
			c-0.45,0.31-1.3,0.74-2.59,1.31l-3.14,1.39c0.2,0.14,0.41,0.25,0.65,0.34c0.45,0.17,0.99,0.26,1.59,0.26
			c0.91,0,1.69-0.19,2.31-0.55c0.7-0.41,1.25-0.61,1.71-0.61c1.02,0,1.6,0.57,1.6,1.57c0,1.04-0.72,1.87-2.13,2.48
			C120.91,19,119.73,19.24,118.51,19.24z M118.21,7.06c-1.74,0-3.08,0.65-4.11,1.99c-0.92,1.22-1.39,2.74-1.39,4.51
			c0,1.57,0.56,2.76,1.7,3.61c1.05,0.79,2.43,1.19,4.1,1.19c1.1,0,2.16-0.21,3.14-0.64c1.08-0.46,1.6-1.01,1.6-1.67
			c0-0.51-0.19-0.69-0.72-0.69c-0.2,0-0.58,0.08-1.26,0.49c-0.76,0.45-1.68,0.67-2.76,0.67c-0.71,0-1.34-0.11-1.9-0.32
			c-0.57-0.22-1.06-0.55-1.46-0.98c-0.1-0.1-0.13-0.25-0.11-0.38c0.03-0.14,0.12-0.25,0.25-0.31l3.76-1.66
			c1.52-0.67,2.17-1.04,2.44-1.23c0.8-0.55,1.18-1.15,1.18-1.82c0-0.99-0.47-1.7-1.44-2.18C120.45,7.25,119.43,7.06,118.21,7.06z
			 M115.25,12.53c-0.11,0-0.21-0.04-0.29-0.11c-0.13-0.11-0.18-0.29-0.12-0.46c0.32-0.99,0.76-1.75,1.3-2.26
			c0.57-0.54,1.27-0.81,2.07-0.81c0.88,0,1.61,0.16,2.17,0.48c0.13,0.08,0.22,0.22,0.22,0.37c0,0.15-0.07,0.3-0.2,0.38
			c-0.62,0.4-1.45,0.84-2.46,1.29l-2.52,1.09C115.37,12.52,115.31,12.53,115.25,12.53z M118.21,9.76c-0.58,0-1.06,0.19-1.48,0.57
			c-0.25,0.24-0.47,0.55-0.67,0.93l1.53-0.66c0.58-0.26,1.1-0.52,1.55-0.76C118.86,9.79,118.55,9.76,118.21,9.76z"/>
	</g>
	<g>
		<g>
			<g>
				<path class="st0" d="M24.27,17.79c-4.35,0-7.9-3.54-7.9-7.9s3.54-7.9,7.9-7.9s7.9,3.54,7.9,7.9S28.63,17.79,24.27,17.79z
					 M24.27,4.85c-2.78,0-5.04,2.26-5.04,5.04s2.26,5.04,5.04,5.04s5.04-2.26,5.04-5.04S27.05,4.85,24.27,4.85z"/>
			</g>
			<g>
				<path class="st1" d="M24.27,2.47c4.09,0,7.42,3.33,7.42,7.42s-3.33,7.42-7.42,7.42s-7.42-3.33-7.42-7.42S20.18,2.47,24.27,2.47
					 M24.27,15.4c3.04,0,5.51-2.47,5.51-5.51s-2.47-5.51-5.51-5.51s-5.51,2.47-5.51,5.51S21.23,15.4,24.27,15.4 M24.27,1.52
					c-4.62,0-8.37,3.76-8.37,8.37s3.76,8.37,8.37,8.37s8.37-3.76,8.37-8.37S28.89,1.52,24.27,1.52L24.27,1.52z M24.27,14.45
					c-2.52,0-4.56-2.05-4.56-4.56s2.05-4.56,4.56-4.56s4.56,2.05,4.56,4.56S26.79,14.45,24.27,14.45L24.27,14.45z"/>
			</g>
		</g>
	</g>
	<g>
		<g>
			<g>
				<path class="st0" d="M44.27,17.79c-4.35,0-7.9-3.54-7.9-7.9s3.54-7.9,7.9-7.9s7.9,3.54,7.9,7.9S48.62,17.79,44.27,17.79z
					 M44.27,4.85c-2.78,0-5.04,2.26-5.04,5.04s2.26,5.04,5.04,5.04c2.78,0,5.04-2.26,5.04-5.04S47.05,4.85,44.27,4.85z"/>
			</g>
			<g>
				<path class="st1" d="M44.27,2.47c4.09,0,7.42,3.33,7.42,7.42s-3.33,7.42-7.42,7.42s-7.42-3.33-7.42-7.42S40.18,2.47,44.27,2.47
					 M44.27,15.4c3.04,0,5.51-2.47,5.51-5.51s-2.47-5.51-5.51-5.51s-5.51,2.47-5.51,5.51S41.23,15.4,44.27,15.4 M44.27,1.52
					c-4.62,0-8.37,3.76-8.37,8.37s3.76,8.37,8.37,8.37s8.37-3.76,8.37-8.37S48.89,1.52,44.27,1.52L44.27,1.52z M44.27,14.45
					c-2.52,0-4.56-2.05-4.56-4.56s2.05-4.56,4.56-4.56c2.52,0,4.56,2.05,4.56,4.56S46.78,14.45,44.27,14.45L44.27,14.45z"/>
			</g>
		</g>
	</g>
</g>
</svg>
