<?xml version="1.0" encoding="utf-8"?>
<!-- Generator: Adobe Illustrator 24.1.2, SVG Export Plug-In . SVG Version: 6.00 Build 0)  -->
<svg version="1.1" id="Layer_1" xmlns="http://www.w3.org/2000/svg" xmlns:xlink="http://www.w3.org/1999/xlink" x="0px" y="0px"
	 viewBox="0 0 136 23" style="enable-background:new 0 0 136 23;" xml:space="preserve">
<style type="text/css">
	.st0{fill:#A2ED38;}
	.st1{fill:#8A0D8B;}
</style>
<g>
	<path class="st0" d="M31.6,6.73l0.42-0.32c1.1-0.86,2.51-1.33,3.95-1.33c1.38,0,2.74,0.44,3.83,1.23l0.43,0.31l-1.87,2.56
		l-0.43-0.31c-0.57-0.42-1.25-0.64-1.97-0.64c-0.73,0-1.45,0.24-2.01,0.68l-0.42,0.32L31.6,6.73z"/>
</g>
<g>
	<path class="st1" d="M35.97,5.6c1.24,0,2.48,0.37,3.52,1.13l-1.24,1.71c-0.68-0.5-1.48-0.74-2.28-0.74c-0.83,0-1.66,0.27-2.33,0.79
		l-1.29-1.66C33.38,6.01,34.67,5.6,35.97,5.6 M35.97,4.55c-1.56,0-3.08,0.51-4.27,1.44l-0.83,0.65l0.65,0.83l1.29,1.66l0.65,0.83
		l0.83-0.65c0.47-0.37,1.07-0.57,1.68-0.57c0.6,0,1.18,0.19,1.66,0.54l0.85,0.62l0.62-0.85l1.24-1.71l0.62-0.85l-0.85-0.62
		C38.93,5.02,37.46,4.55,35.97,4.55L35.97,4.55z"/>
</g>
<path class="st0" d="M10.36,20.32c-1.92,0.72-4.35,1.08-7.28,1.08c-0.49,0-0.94-0.21-1.33-0.62c-0.39-0.41-0.59-0.85-0.59-1.32V6.35
	C1.14,5.79,1.12,5.23,1.11,4.67c-0.02-0.63,0-1.17,0.06-1.61C1.28,2.29,2,1.82,3.33,1.65C3.96,1.47,5,1.38,6.45,1.38
	c1.56,0,3.05,0.5,4.47,1.51c1.67,1.17,2.51,2.63,2.51,4.39c0,0.95-0.17,1.75-0.52,2.4c-0.27,0.53-0.75,1.09-1.42,1.69
	c0.8,0.39,1.51,0.97,2.13,1.76c0.7,0.87,1.05,1.74,1.05,2.61c0,1.1-0.6,2.13-1.79,3.11C12.07,19.5,11.24,19.99,10.36,20.32z
	 M6.45,4.73c-1.06,0-1.7,0.01-1.92,0.02l0.01,2.62l-0.01,2.6c0.75,0.09,1.31,0.12,1.69,0.09C8.74,9.86,10,8.93,10,7.28
	c0-0.59-0.37-1.15-1.11-1.69C8.13,5.01,7.31,4.73,6.45,4.73z M7.89,13.47c-0.75,0-1.87-0.03-3.36-0.09V18
	c1.42-0.07,2.95-0.35,4.61-0.82c1.45-0.41,2.17-0.86,2.15-1.33c-0.02-0.63-0.49-1.2-1.4-1.69C9.19,13.76,8.52,13.53,7.89,13.47z"/>
<path class="st1" d="M3.08,21.88c-0.63,0-1.2-0.26-1.68-0.77c-0.48-0.5-0.72-1.06-0.72-1.65V6.35c-0.02-0.54-0.05-1.1-0.06-1.67
	c-0.03-0.65,0-1.22,0.07-1.69c0.15-1.01,1.02-1.62,2.58-1.82C3.87,0.99,4.94,0.9,6.45,0.9c1.65,0,3.25,0.54,4.75,1.6
	c1.8,1.26,2.71,2.87,2.71,4.78c0,1.02-0.19,1.91-0.58,2.63c-0.23,0.44-0.57,0.89-1.04,1.37c0.62,0.4,1.19,0.92,1.69,1.55
	c0.77,0.96,1.15,1.93,1.15,2.91c0,1.24-0.66,2.42-1.97,3.49c-0.84,0.68-1.72,1.2-2.65,1.55c0,0,0,0,0,0
	C8.57,21.5,6.06,21.88,3.08,21.88z M6.45,1.86c-1.4,0-2.4,0.09-2.98,0.25C2.31,2.27,1.73,2.6,1.65,3.13
	C1.59,3.54,1.57,4.05,1.59,4.65c0.02,0.56,0.04,1.12,0.06,1.68v13.12c0,0.34,0.15,0.67,0.45,0.99c0.3,0.31,0.62,0.47,0.98,0.47
	c2.86,0,5.25-0.35,7.11-1.05c0.82-0.31,1.62-0.78,2.37-1.39c1.07-0.88,1.61-1.8,1.61-2.74c0-0.75-0.32-1.52-0.94-2.31
	c-0.57-0.72-1.23-1.27-1.96-1.62c-0.15-0.07-0.25-0.21-0.27-0.37c-0.02-0.16,0.04-0.32,0.16-0.43c0.63-0.56,1.07-1.08,1.31-1.55
	c0.31-0.58,0.47-1.31,0.47-2.18c0-1.6-0.75-2.91-2.3-3.99C9.3,2.34,7.89,1.86,6.45,1.86z M10.36,20.32h0.01H10.36z M4.53,18.49
	c-0.12,0-0.24-0.05-0.33-0.13C4.1,18.26,4.05,18.14,4.05,18v-4.62c0-0.13,0.05-0.26,0.15-0.35c0.1-0.09,0.23-0.13,0.35-0.13
	c1.48,0.06,2.6,0.09,3.34,0.09c0.02,0,0.03,0,0.05,0c0.69,0.07,1.42,0.33,2.19,0.75c1.06,0.58,1.61,1.28,1.64,2.1
	c0.03,0.97-1.32,1.48-2.5,1.82C7.59,18.13,6,18.41,4.56,18.49C4.55,18.49,4.54,18.49,4.53,18.49z M5.01,13.88v3.6
	c1.24-0.11,2.58-0.36,3.99-0.76c1.67-0.48,1.8-0.85,1.8-0.86c-0.02-0.44-0.4-0.88-1.15-1.28c-0.64-0.36-1.25-0.57-1.8-0.63
	C7.2,13.95,6.25,13.93,5.01,13.88z M5.87,10.55c-0.37,0-0.83-0.03-1.4-0.1c-0.24-0.03-0.43-0.24-0.43-0.48l0.01-2.6L4.05,4.76
	c0-0.25,0.19-0.47,0.45-0.48c0.22-0.02,0.87-0.03,1.95-0.03c0.97,0,1.89,0.32,2.74,0.95c0.87,0.64,1.31,1.34,1.31,2.08
	c0,1.34-0.73,2.99-4.23,3.26C6.14,10.55,6.02,10.55,5.87,10.55z M5.02,9.54c0.5,0.05,0.9,0.06,1.16,0.04
	c3.34-0.26,3.34-1.79,3.34-2.3c0-0.42-0.31-0.86-0.91-1.3c-0.69-0.51-1.4-0.76-2.16-0.76c-0.63,0-1.1,0-1.43,0.01l0.01,2.15
	L5.02,9.54z"/>
<path class="st0" d="M60.69,15.32l-0.01,5.2c0,0.36-0.1,0.7-0.31,1c-0.29,0.42-0.71,0.63-1.26,0.63c-0.65,0-1.16-0.26-1.53-0.79
	c-0.29-0.41-0.43-0.85-0.43-1.32c0-1.83,0.06-4.58,0.17-8.24s0.17-6.41,0.17-8.24c0-0.46,0.16-0.86,0.49-1.19
	c0.33-0.33,0.74-0.49,1.24-0.49s0.9,0.16,1.23,0.49s0.49,0.73,0.49,1.19c0,0.74-0.04,1.74-0.11,3c-0.09,1.47-0.14,2.47-0.16,3
	c0.58-0.54,2.72-2.83,6.41-6.87c0.38-0.41,0.82-0.62,1.31-0.62c0.47,0,0.88,0.16,1.23,0.49s0.53,0.73,0.53,1.2
	c0,0.51-0.98,1.84-2.94,3.98c-1.45,1.57-2.98,3.13-4.59,4.66c0.9,0.85,1.8,1.7,2.71,2.55c1.05,0.97,2,1.77,2.84,2.4
	c0.42,0.3,0.87,0.54,1.36,0.69c0.88,0.28,1.32,0.82,1.32,1.62c0,0.35-0.11,0.7-0.33,1.03c-0.3,0.44-0.73,0.67-1.27,0.67
	c-1.18,0-2.71-0.77-4.59-2.31C64.1,18.58,62.78,17.34,60.69,15.32z"/>
<path class="st1" d="M59.11,22.64c-0.8,0-1.47-0.34-1.93-0.99c-0.35-0.5-0.52-1.03-0.52-1.6c0-1.83,0.06-4.6,0.17-8.26
	c0.12-3.64,0.17-6.41,0.17-8.23c0-0.59,0.21-1.11,0.64-1.53c0.85-0.85,2.32-0.84,3.15,0c0.42,0.42,0.63,0.93,0.63,1.53
	c0,0.75-0.04,1.74-0.11,3.03c-0.04,0.68-0.08,1.25-0.1,1.73c1.05-1.1,2.89-3.09,5.51-5.95c0.92-1,2.32-1.01,3.23-0.15
	c0.45,0.42,0.68,0.94,0.68,1.55c0,0.47-0.37,1.35-3.07,4.31c-1.35,1.47-2.78,2.92-4.24,4.33c0.78,0.73,1.55,1.46,2.34,2.19
	c1.04,0.96,1.98,1.75,2.8,2.36c0.37,0.27,0.78,0.48,1.22,0.62c1.37,0.44,1.66,1.37,1.66,2.08c0,0.45-0.14,0.89-0.42,1.3
	c-0.4,0.57-0.97,0.88-1.67,0.88c-1.31,0-2.91-0.79-4.89-2.42c-0.49-0.4-1.54-1.38-3.18-2.96l-0.01,4.07c0,0.46-0.13,0.88-0.39,1.27
	C60.39,22.35,59.82,22.64,59.11,22.64z M59.22,2.36c-0.36,0-0.65,0.12-0.89,0.35c-0.24,0.24-0.35,0.51-0.35,0.84
	c0,1.83-0.06,4.6-0.17,8.26c-0.12,3.64-0.17,6.41-0.17,8.23c0,0.37,0.11,0.71,0.35,1.05c0.28,0.4,0.64,0.58,1.14,0.58
	c0.39,0,0.66-0.13,0.86-0.42c0.15-0.22,0.23-0.46,0.23-0.73l0.01-5.21c0-0.19,0.12-0.37,0.3-0.44c0.18-0.07,0.38-0.04,0.53,0.1
	c2.07,2.01,3.4,3.25,3.94,3.69c1.78,1.46,3.22,2.2,4.28,2.2c0.38,0,0.66-0.15,0.87-0.46c0.17-0.25,0.25-0.49,0.25-0.75
	c0-0.39-0.11-0.88-0.99-1.16c-0.54-0.17-1.04-0.43-1.5-0.76c-0.85-0.63-1.82-1.45-2.89-2.43c-0.91-0.85-1.81-1.7-2.71-2.55
	c-0.1-0.09-0.15-0.22-0.15-0.35c0-0.13,0.05-0.26,0.15-0.35c1.58-1.5,3.12-3.06,4.57-4.64c2.63-2.87,2.8-3.55,2.81-3.65
	c0-0.33-0.12-0.6-0.37-0.84c-0.53-0.49-1.29-0.51-1.85,0.1C63.69,7.11,61.59,9.36,61,9.91c-0.14,0.14-0.35,0.17-0.53,0.09
	c-0.18-0.08-0.29-0.26-0.29-0.46C60.2,9.01,60.25,8,60.34,6.53c0.08-1.27,0.11-2.25,0.11-2.97c0-0.33-0.11-0.61-0.35-0.85
	C59.87,2.47,59.58,2.36,59.22,2.36z"/>
<path class="st0" d="M81.9,11.75c-0.82,0-1.31-0.34-1.47-1.03c-0.33-0.06-0.67-0.09-1.01-0.09c-1.99,0-2.98,0.27-2.98,0.82
	c0,0.32,0.6,0.75,1.79,1.3c1.63,0.75,2.74,1.33,3.31,1.76c1.19,0.87,1.79,1.84,1.79,2.93c0,1.42-0.66,2.49-1.98,3.23
	c-1.06,0.59-2.37,0.88-3.92,0.88c-1.1,0-2.1-0.17-3-0.51c-1.24-0.46-1.85-1.14-1.85-2.04c0-0.82,0.49-1.24,1.47-1.24
	c0.38,0,0.93,0.12,1.64,0.36c0.72,0.24,1.27,0.36,1.66,0.36c1.67,0,2.51-0.34,2.52-1.01c0-0.42-0.58-0.89-1.74-1.4
	c-1.7-0.75-2.79-1.29-3.26-1.62c-1.16-0.82-1.74-1.81-1.74-2.98c0-1.66,0.88-2.77,2.63-3.35c1.03-0.34,2.6-0.51,4.7-0.51
	c0.82,0,1.43,0.11,1.83,0.32c0.54,0.29,0.82,0.82,0.82,1.59C83.1,11.01,82.7,11.75,81.9,11.75z"/>
<path class="st1" d="M77.44,22.02c-1.15,0-2.22-0.18-3.17-0.54c-1.44-0.54-2.17-1.38-2.17-2.49c0-1.09,0.71-1.72,1.96-1.72
	c0.43,0,1.02,0.12,1.8,0.38c0.83,0.27,1.27,0.33,1.5,0.33c1.5,0,2.04-0.29,2.04-0.53l0,0c0,0-0.07-0.34-1.45-0.95
	c-1.74-0.77-2.83-1.31-3.34-1.66c-1.3-0.91-1.95-2.05-1.95-3.38c0-1.86,1.03-3.17,2.97-3.81c1.08-0.35,2.71-0.53,4.85-0.53
	c0.91,0,1.59,0.12,2.06,0.38c0.49,0.26,1.07,0.82,1.07,2.02c0,2.24-0.91,2.71-1.68,2.71c-0.9,0-1.55-0.38-1.84-1.08
	c-0.21-0.02-0.43-0.04-0.65-0.04c-2.03,0-2.43,0.3-2.49,0.36l0,0c0.05,0,0.31,0.29,1.51,0.83c1.67,0.77,2.78,1.36,3.4,1.8
	c1.32,0.96,1.99,2.07,1.99,3.32c0,1.6-0.75,2.83-2.23,3.65C80.46,21.71,79.07,22.02,77.44,22.02z M74.06,18.24
	c-0.91,0-0.99,0.39-0.99,0.75c0,0.25,0,1.01,1.54,1.58c0.85,0.32,1.8,0.48,2.84,0.48c1.46,0,2.7-0.27,3.68-0.82
	c1.16-0.65,1.73-1.56,1.73-2.8c0-0.93-0.52-1.76-1.59-2.54c-0.55-0.4-1.64-0.98-3.23-1.71c-1.49-0.68-2.07-1.17-2.07-1.74
	c0-1.15,1.75-1.3,3.46-1.3c0.37,0,0.73,0.03,1.1,0.09c0.19,0.03,0.34,0.18,0.39,0.36c0.08,0.33,0.26,0.66,1,0.66
	c0.47,0,0.71-0.59,0.71-1.74c0-0.78-0.32-1.04-0.56-1.17c-0.23-0.12-0.68-0.26-1.6-0.26c-2.04,0-3.57,0.16-4.55,0.48
	c-1.55,0.51-2.3,1.45-2.3,2.89c0,1.01,0.5,1.86,1.54,2.58c0.31,0.21,1.12,0.66,3.18,1.57c1.41,0.62,2.03,1.18,2.03,1.84
	c-0.02,1.5-2.27,1.5-3.01,1.5c-0.44,0-1.04-0.12-1.81-0.38C74.71,18.3,74.28,18.24,74.06,18.24z"/>
<path class="st0" d="M94.25,10.85c-0.17,0-0.38-0.01-0.61-0.02s-0.44-0.02-0.61-0.02c-0.34,0-0.73,0.03-1.17,0.1
	c0.15,3.33,0.22,5.5,0.22,6.53c0,0.11,0,0.31,0.01,0.6c0.01,0.29,0.01,0.53,0.01,0.71c0,1.9-0.6,2.84-1.79,2.84
	c-0.45,0-0.84-0.14-1.17-0.42c-0.36-0.3-0.54-0.67-0.54-1.11c0-0.3,0.01-0.74,0.04-1.33c0.02-0.59,0.04-1.04,0.04-1.33
	c0-1-0.07-3.13-0.22-6.4c-0.51-0.02-1.28-0.09-2.32-0.2c-1.03-0.11-1.55-0.64-1.55-1.6c0-0.46,0.16-0.85,0.47-1.17
	s0.72-0.48,1.21-0.48c0.3,0,1.01,0.05,2.1,0.15c-0.01-0.26-0.03-0.7-0.06-1.31c-0.03-0.53-0.05-0.94-0.05-1.22
	c0-0.46,0.17-0.84,0.51-1.15s0.75-0.46,1.22-0.46c1.22,0,1.83,1.03,1.83,3.08l-0.02,1.01c0.51-0.07,0.93-0.11,1.25-0.11
	c0.95,0,1.59,0.06,1.94,0.19c0.66,0.23,0.99,0.73,0.99,1.51c0,0.47-0.16,0.86-0.48,1.17C95.15,10.69,94.75,10.85,94.25,10.85z"/>
<path class="st1" d="M90.31,22.07c-0.57,0-1.07-0.18-1.49-0.54c-0.47-0.38-0.71-0.9-0.71-1.48c0-0.3,0.01-0.75,0.04-1.36
	c0.02-0.58,0.04-1.02,0.04-1.31c0-0.95-0.07-2.95-0.2-5.95c-0.49-0.03-1.12-0.09-1.9-0.18c-1.28-0.14-1.98-0.88-1.98-2.08
	c0-0.59,0.2-1.1,0.61-1.51c0.41-0.42,0.93-0.63,1.56-0.63c0.26,0,0.79,0.03,1.59,0.1c-0.01-0.21-0.02-0.46-0.04-0.76
	c-0.03-0.53-0.05-0.95-0.05-1.25c0-0.6,0.23-1.11,0.67-1.51c0.43-0.39,0.95-0.58,1.55-0.58c1.06,0,2.31,0.62,2.31,3.56l-0.01,0.46
	c0.29-0.03,0.54-0.05,0.75-0.05c1.01,0,1.7,0.07,2.1,0.21c0.6,0.21,1.31,0.72,1.31,1.96c0,0.61-0.21,1.12-0.63,1.52
	c-0.41,0.4-0.94,0.61-1.56,0.61c-0.18,0-0.39-0.01-0.64-0.02c-0.51-0.03-0.82-0.03-1.26,0.02c0.14,3.14,0.2,5.14,0.2,6.1
	c0,0.1,0,0.3,0.01,0.58c0.01,0.3,0.01,0.54,0.01,0.72C92.59,21.5,91.35,22.07,90.31,22.07z M86.26,8.01c-0.37,0-0.64,0.11-0.87,0.34
	c-0.22,0.23-0.33,0.5-0.33,0.83c0,0.71,0.32,1.03,1.12,1.12c1.02,0.11,1.79,0.18,2.29,0.2c0.25,0.01,0.45,0.21,0.46,0.46
	c0.15,3.25,0.22,5.41,0.22,6.43c0,0.3-0.01,0.75-0.04,1.36c-0.02,0.58-0.04,1.02-0.04,1.31c0,0.3,0.12,0.53,0.37,0.74
	c0.25,0.21,0.53,0.31,0.87,0.31c0.36,0,1.31,0,1.31-2.36c0-0.18-0.01-0.41-0.01-0.7c-0.01-0.3-0.01-0.5-0.01-0.61
	c0-1-0.07-3.12-0.22-6.51c-0.01-0.25,0.17-0.46,0.41-0.5c0.46-0.07,0.88-0.1,1.25-0.1c0.18,0,0.39,0.01,0.64,0.02
	c0.71,0.04,1.14,0.01,1.47-0.31c0.23-0.22,0.33-0.48,0.33-0.83c0-0.72-0.35-0.94-0.66-1.05c-0.17-0.06-0.62-0.16-1.78-0.16
	c-0.29,0-0.69,0.04-1.18,0.11c-0.15,0.03-0.29-0.02-0.39-0.12c-0.11-0.09-0.17-0.23-0.16-0.37l0.02-1.01c0-2.58-1.01-2.58-1.34-2.58
	c-0.36,0-0.65,0.11-0.9,0.33c-0.24,0.21-0.35,0.46-0.35,0.79c0,0.28,0.02,0.68,0.05,1.19c0.03,0.62,0.05,1.06,0.06,1.32
	c0,0.14-0.05,0.27-0.15,0.37c-0.1,0.1-0.24,0.15-0.38,0.13C87.24,8.06,86.54,8.01,86.26,8.01z"/>
<path class="st0" d="M102.55,21.53c-1.52,0-2.83-0.52-3.93-1.57c-1.2-1.15-1.83-2.67-1.89-4.59c-0.06-1.82,0.44-3.44,1.5-4.87
	c1.25-1.68,3-2.52,5.23-2.52c1.65,0,2.96,0.66,3.93,1.98c0.87,1.19,1.31,2.66,1.31,4.41c0,1.91-0.51,3.54-1.53,4.89
	C106.01,20.77,104.47,21.53,102.55,21.53z M103.29,11.24c-1.01-0.01-1.81,0.45-2.4,1.38c-0.49,0.78-0.74,1.7-0.74,2.74
	c0,0.99,0.28,1.75,0.84,2.27c0.44,0.42,0.96,0.63,1.56,0.63c0.72,0,1.34-0.24,1.87-0.73c0.6-0.57,0.92-1.34,0.96-2.31
	C105.48,12.58,104.79,11.25,103.29,11.24z"/>
<path class="st1" d="M102.54,22.01c-1.64,0-3.08-0.57-4.27-1.7c-1.29-1.23-1.98-2.89-2.04-4.92c-0.06-1.92,0.47-3.66,1.59-5.17
	c1.34-1.8,3.23-2.72,5.62-2.72c1.8,0,3.26,0.73,4.32,2.17c0.93,1.27,1.41,2.85,1.41,4.7c0,2.01-0.55,3.75-1.63,5.19
	C106.3,21.19,104.62,22.01,102.54,22.01z M103.45,8.47c-2.09,0-3.67,0.76-4.84,2.33c-0.98,1.33-1.45,2.86-1.4,4.56
	c0.05,1.8,0.62,3.19,1.74,4.25c1.01,0.97,2.19,1.44,3.6,1.44c1.78,0,3.17-0.68,4.23-2.07c0.95-1.26,1.43-2.81,1.43-4.6
	c0-1.64-0.41-3.03-1.22-4.13C106.1,9.05,104.95,8.47,103.45,8.47z M102.54,18.76c-0.72,0-1.35-0.26-1.89-0.76
	c-0.66-0.62-0.99-1.5-0.99-2.63c0-1.14,0.27-2.15,0.82-3c0.67-1.07,1.6-1.61,2.78-1.61c0.01,0,0.02,0,0.03,0l0,0
	c0.68,0,1.23,0.23,1.66,0.68c0.69,0.72,0.99,1.97,0.91,3.82c-0.05,1.1-0.42,1.99-1.12,2.64C104.12,18.47,103.38,18.76,102.54,18.76z
	 M103.26,11.73c-0.83,0-1.47,0.38-1.96,1.16c-0.44,0.7-0.67,1.53-0.67,2.49c0,0.86,0.23,1.49,0.69,1.92c0.35,0.33,0.75,0.5,1.22,0.5
	c0.6,0,1.1-0.2,1.54-0.6c0.51-0.48,0.77-1.13,0.81-1.98c0.06-1.53-0.16-2.6-0.64-3.11c-0.24-0.25-0.55-0.37-0.96-0.38c0,0,0,0,0,0
	C103.27,11.73,103.27,11.73,103.26,11.73z"/>
<path class="st0" d="M121.12,11.89c-0.07,1.26-0.65,1.89-1.72,1.89c-1.04,0-1.56-0.54-1.56-1.61l-0.06-1.25
	c-1.85,0.3-3.18,1.25-3.98,2.86l0.01,6.22c0,0.47-0.16,0.86-0.48,1.17c-0.32,0.31-0.73,0.46-1.22,0.46c-0.51,0-0.91-0.16-1.19-0.49
	c-0.26-0.3-0.4-0.68-0.4-1.14v-8.1c0-0.26,0.01-0.64,0.02-1.14s0.02-0.89,0.02-1.14c0-0.46,0.14-0.85,0.41-1.16
	c0.28-0.31,0.67-0.46,1.18-0.46c0.91,0,1.46,0.47,1.63,1.41c1.46-1.09,3.08-1.63,4.86-1.63c1.65,0,2.47,1.1,2.47,3.29
	C121.13,11.48,121.13,11.75,121.12,11.89z"/>
<path class="st1" d="M112.11,22.11c-0.66,0-1.18-0.23-1.55-0.67c-0.34-0.38-0.51-0.87-0.51-1.45v-8.1c0-0.26,0.01-0.65,0.02-1.16
	c0.02-0.5,0.02-0.88,0.02-1.13c0-0.58,0.18-1.08,0.54-1.48c0.37-0.41,0.89-0.62,1.54-0.62c0.9,0,1.55,0.39,1.9,1.12
	c1.4-0.89,2.94-1.35,4.59-1.35c1.35,0,2.96,0.65,2.96,3.77c0,0.44-0.01,0.72-0.01,0.85l0,0c-0.12,2.04-1.43,2.35-2.2,2.35
	c-1.3,0-2.04-0.76-2.04-2.09l-0.03-0.66c-1.39,0.35-2.39,1.13-3.04,2.38l0.01,6.1c0,0.6-0.21,1.11-0.63,1.52
	C113.26,21.91,112.73,22.11,112.11,22.11z M112.17,8.48c-0.37,0-0.64,0.1-0.82,0.3c-0.2,0.22-0.29,0.49-0.29,0.83
	c0,0.26-0.01,0.65-0.02,1.16c-0.02,0.5-0.02,0.87-0.02,1.13v8.1c0,0.34,0.09,0.61,0.27,0.82c0.39,0.46,1.25,0.45,1.71,0
	c0.23-0.22,0.33-0.48,0.33-0.82l-0.01-6.22c0-0.07,0.02-0.15,0.05-0.22c0.87-1.75,2.33-2.8,4.34-3.12c0.14-0.02,0.27,0.02,0.38,0.1
	c0.11,0.09,0.17,0.22,0.18,0.35l0.06,1.25c0,0.83,0.3,1.14,1.07,1.14c0.57,0,1.16-0.17,1.23-1.44l0,0c0.01-0.12,0.01-0.39,0.01-0.8
	c0-2.51-1.13-2.8-1.99-2.8c-1.66,0-3.2,0.52-4.57,1.54c-0.14,0.1-0.31,0.12-0.47,0.06c-0.16-0.06-0.27-0.2-0.3-0.36
	C113.2,8.78,112.85,8.48,112.17,8.48z M121.12,11.89h0.01H121.12z"/>
<path class="st0" d="M129.16,21.37c-1.97,0-3.58-0.47-4.83-1.41c-1.38-1.04-2.08-2.5-2.08-4.39c0-2.08,0.55-3.85,1.64-5.29
	c1.22-1.6,2.86-2.4,4.93-2.4c1.43,0,2.62,0.23,3.57,0.69c1.24,0.61,1.87,1.56,1.87,2.84c0,0.91-0.51,1.71-1.52,2.41
	c-0.46,0.32-1.39,0.79-2.78,1.41l-4.17,1.84c0.4,0.43,0.87,0.75,1.43,0.96c0.56,0.21,1.2,0.32,1.93,0.32c1.1,0,2.04-0.23,2.81-0.68
	c0.68-0.4,1.23-0.61,1.64-0.61c0.86,0,1.29,0.42,1.29,1.25c0,0.94-0.69,1.71-2.06,2.3C131.67,21.12,130.45,21.37,129.16,21.37z
	 M128.82,10.87c-0.77,0-1.42,0.26-1.97,0.77s-0.98,1.28-1.31,2.3c0.93-0.4,1.86-0.8,2.78-1.2c1.11-0.5,2-0.97,2.66-1.4
	C130.43,11.03,129.71,10.87,128.82,10.87z"/>
<path class="st1" d="M129.16,21.85c-2.07,0-3.79-0.51-5.12-1.51c-1.51-1.13-2.27-2.74-2.27-4.78c0-2.19,0.59-4.06,1.74-5.58
	c1.31-1.72,3.1-2.59,5.32-2.59c1.5,0,2.77,0.25,3.78,0.74c1.42,0.7,2.14,1.8,2.14,3.28c0,1.07-0.58,2.01-1.73,2.81
	c-0.5,0.34-1.43,0.82-2.86,1.45l-3.47,1.54c0.22,0.15,0.46,0.27,0.72,0.38c0.5,0.19,1.09,0.29,1.76,0.29c1.01,0,1.87-0.21,2.56-0.61
	c0.77-0.45,1.39-0.67,1.89-0.67c1.13,0,1.77,0.63,1.77,1.73c0,1.15-0.79,2.07-2.36,2.74C131.81,21.59,130.51,21.85,129.16,21.85z
	 M128.82,8.37c-1.93,0-3.41,0.72-4.55,2.21c-1.02,1.35-1.54,3.03-1.54,5c0,1.74,0.62,3.05,1.88,4c1.16,0.87,2.69,1.31,4.54,1.31
	c1.22,0,2.39-0.24,3.48-0.7c1.19-0.51,1.77-1.12,1.77-1.85c0-0.56-0.21-0.76-0.8-0.76c-0.22,0-0.64,0.09-1.4,0.54
	c-0.84,0.5-1.86,0.75-3.05,0.75c-0.78,0-1.49-0.12-2.1-0.35c-0.63-0.24-1.18-0.61-1.62-1.09c-0.11-0.11-0.15-0.27-0.12-0.43
	c0.03-0.15,0.14-0.28,0.28-0.34l4.16-1.84c1.69-0.75,2.4-1.15,2.7-1.36c0.88-0.61,1.31-1.27,1.31-2.01c0-1.09-0.52-1.88-1.59-2.41
	C131.31,8.58,130.18,8.37,128.82,8.37z M125.55,14.42c-0.12,0-0.23-0.04-0.33-0.13c-0.14-0.13-0.19-0.33-0.14-0.51
	c0.36-1.1,0.84-1.94,1.44-2.5c0.64-0.6,1.41-0.9,2.3-0.9c0.97,0,1.78,0.18,2.4,0.53c0.15,0.09,0.24,0.24,0.24,0.41
	c0,0.17-0.08,0.33-0.22,0.42c-0.69,0.45-1.6,0.93-2.72,1.43l-2.79,1.2C125.68,14.41,125.61,14.42,125.55,14.42z M128.82,11.36
	c-0.64,0-1.18,0.21-1.63,0.64c-0.28,0.26-0.53,0.61-0.75,1.03l1.7-0.73c0.64-0.29,1.22-0.57,1.72-0.85
	C129.55,11.39,129.2,11.36,128.82,11.36z"/>
<g>
	<path class="st0" d="M24.84,20.24c-4.82,0-8.74-3.92-8.74-8.74s3.92-8.74,8.74-8.74s8.74,3.92,8.74,8.74S29.66,20.24,24.84,20.24z
		 M24.84,5.93c-3.08,0-5.58,2.5-5.58,5.58s2.5,5.58,5.58,5.58s5.58-2.5,5.58-5.58S27.91,5.93,24.84,5.93z"/>
</g>
<g>
	<path class="st1" d="M24.84,3.29c4.53,0,8.21,3.69,8.21,8.21s-3.69,8.21-8.21,8.21s-8.21-3.69-8.21-8.21S20.31,3.29,24.84,3.29
		 M24.84,17.61c3.37,0,6.1-2.74,6.1-6.1s-2.74-6.1-6.1-6.1s-6.1,2.74-6.1,6.1S21.47,17.61,24.84,17.61 M24.84,2.24
		c-5.11,0-9.27,4.16-9.27,9.27s4.16,9.27,9.27,9.27s9.27-4.16,9.27-9.27S29.95,2.24,24.84,2.24L24.84,2.24z M24.84,16.55
		c-2.78,0-5.05-2.26-5.05-5.05s2.27-5.05,5.05-5.05s5.05,2.26,5.05,5.05S27.62,16.55,24.84,16.55L24.84,16.55z"/>
</g>
<g>
	<path class="st0" d="M46.97,20.24c-4.82,0-8.74-3.92-8.74-8.74s3.92-8.74,8.74-8.74s8.74,3.92,8.74,8.74S51.79,20.24,46.97,20.24z
		 M46.97,5.93c-3.08,0-5.58,2.5-5.58,5.58s2.5,5.58,5.58,5.58c3.08,0,5.58-2.5,5.58-5.58S50.05,5.93,46.97,5.93z"/>
</g>
<g>
	<path class="st1" d="M46.97,3.29c4.53,0,8.21,3.69,8.21,8.21s-3.69,8.21-8.21,8.21s-8.21-3.69-8.21-8.21S42.44,3.29,46.97,3.29
		 M46.97,17.61c3.37,0,6.1-2.74,6.1-6.1s-2.74-6.1-6.1-6.1s-6.1,2.74-6.1,6.1S43.61,17.61,46.97,17.61 M46.97,2.24
		c-5.11,0-9.27,4.16-9.27,9.27s4.16,9.27,9.27,9.27s9.27-4.16,9.27-9.27S52.08,2.24,46.97,2.24L46.97,2.24z M46.97,16.55
		c-2.78,0-5.05-2.26-5.05-5.05s2.27-5.05,5.05-5.05c2.78,0,5.05,2.26,5.05,5.05S49.76,16.55,46.97,16.55L46.97,16.55z"/>
</g>
</svg>
