<?xml version="1.0" encoding="utf-8"?>
<!-- Generator: Adobe Illustrator 24.1.2, SVG Export Plug-In . SVG Version: 6.00 Build 0)  -->
<svg version="1.1" id="Layer_1" xmlns="http://www.w3.org/2000/svg" xmlns:xlink="http://www.w3.org/1999/xlink" x="0px" y="0px"
	 viewBox="0 0 900 250" style="enable-background:new 0 0 900 250;" xml:space="preserve">
<style type="text/css">
	.st0{fill:#4FA34F;}
	.st1{fill:#FAE392;}
	.st2{fill:#1A5D1A;}
	.st3{fill:#F1C93B;}
	.st4{fill:#A2ED38;}
</style>
<path class="st0" d="M289.48,43.45c0,4.6-0.33,9.11-0.98,13.53c-6.55,45.27-45.52,80.05-92.6,80.05
	c-44.48,0-81.72-31.04-91.22-72.64c-1.55-6.73-2.36-13.74-2.36-20.94c0-15.69,3.86-30.47,10.69-43.45h165.78
	C285.62,12.98,289.48,27.76,289.48,43.45z"/>
<path class="st1" d="M896.21,14.87c0,0.59-0.01,1.17-0.02,1.75c-0.02,0.77-0.05,1.54-0.1,2.31c-0.03,0.77-0.08,1.54-0.16,2.3
	c-3.21,37.91-35.01,67.68-73.77,67.68c-39.73,0-72.16-31.3-73.96-70.59c-0.05-1.14-0.08-2.29-0.08-3.45
	c0-5.09,0.51-10.07,1.49-14.87h145.11c0.17,0.86,0.33,1.73,0.47,2.61c0.14,0.79,0.26,1.59,0.36,2.39c0.11,0.77,0.2,1.55,0.28,2.34
	C896.08,9.81,896.21,12.33,896.21,14.87z"/>
<path class="st2" d="M143.42,250h-12.56c-0.08,0.17-0.16,0.33-0.23,0.5c-0.14-0.17-0.29-0.33-0.44-0.5H0.02v-63.23
	c12.56-5,26.25-7.74,40.59-7.74c42.32,0,79.05,23.91,97.42,58.96C140.06,241.86,141.87,245.87,143.42,250z"/>
<path class="st3" d="M743.96,213.67c0,2.96-0.15,5.88-0.45,8.76c-0.16,1.6-0.37,3.18-0.63,4.74c-0.21,1.39-0.47,2.77-0.77,4.13
	c-1.37,6.55-3.51,12.81-6.31,18.7H582.39c-5.24-11.01-8.16-23.33-8.16-36.33c0-9.45,1.55-18.54,4.4-27.04
	c11.29-33.61,43.05-57.83,80.47-57.83c33.75,0,62.9,19.71,76.57,48.25c0.61,1.26,1.19,2.55,1.73,3.85c0.62,1.47,1.19,2.95,1.72,4.46
	C742.26,194.22,743.96,203.74,743.96,213.67z"/>
<path class="st0" d="M837.66,0c-1.9,1.41-3.37,3.32-4.2,5.48l-0.24,0.62l-0.5,1.28l-2.56-1c0,0,0,0-0.01,0l-8.83-3.43l0.65-1.66
	l0.09-0.24c0.14-0.35,0.28-0.7,0.44-1.05H837.66z"/>
<g>
	<path class="st3" d="M834.61,0c-1.22,1.32-2.21,2.87-2.88,4.59l-0.39-0.15l-7.23-2.81c0.2-0.51,0.42-1.01,0.65-1.5
		c0.02-0.04,0.04-0.09,0.06-0.13h-4.47c-0.02,0.05-0.04,0.1-0.06,0.15l-0.16,0.4v0.01l-0.66,1.72l-0.66,1.69l3.82,1.48l6.62,2.57
		l1,0.39l3.3,1.28h0.01l0.51,0.2l0.82-2.11l0.66-1.71c0.83-2.15,2.42-4.01,4.47-5.24c0.55-0.33,1.12-0.61,1.71-0.83H834.61z"/>
</g>
<g>
	<path class="st0" d="M837.36,14.85c-1.12-1.87-2.4-3.59-3.8-5.16h-0.01c-1.05-1.19-2.19-2.29-3.39-3.31c0,0,0,0-0.01,0
		c-2.49-2.1-5.25-3.8-8.18-5.09c-0.61-0.26-1.22-0.51-1.84-0.73V0.55c-0.53-0.2-1.07-0.38-1.61-0.55h-20.36
		c-2.46,0.78-4.86,1.85-7.17,3.23C775,12.81,769.78,33.61,779.36,49.6c9.58,15.99,30.38,21.2,46.37,11.62
		C841.72,51.64,846.94,30.84,837.36,14.85z M789.86,43.31c-6.11-10.2-2.79-23.47,7.42-29.58c10.2-6.11,23.47-2.79,29.58,7.41
		c6.11,10.2,2.78,23.47-7.42,29.58C809.24,56.84,795.97,53.51,789.86,43.31z"/>
</g>
<g>
	<path class="st3" d="M828.77,20c-6.71-11.21-21.28-14.86-32.49-8.14c-11.2,6.71-14.85,21.28-8.14,32.48
		c6.71,11.21,21.28,14.86,32.49,8.14C831.83,45.77,835.49,31.2,828.77,20z M791.65,42.24c-5.55-9.27-2.53-21.32,6.74-26.87
		c9.26-5.56,21.32-2.54,26.87,6.73c5.55,9.26,2.53,21.32-6.74,26.87C809.26,54.53,797.2,51.51,791.65,42.24z M828.77,20
		c-6.71-11.21-21.28-14.86-32.49-8.14c-11.2,6.71-14.85,21.28-8.14,32.48c6.71,11.21,21.28,14.86,32.49,8.14
		C831.83,45.77,835.49,31.2,828.77,20z M791.65,42.24c-5.55-9.27-2.53-21.32,6.74-26.87c9.26-5.56,21.32-2.54,26.87,6.73
		c5.55,9.26,2.53,21.32-6.74,26.87C809.26,54.53,797.2,51.51,791.65,42.24z M828.77,20c-6.71-11.21-21.28-14.86-32.49-8.14
		c-11.2,6.71-14.85,21.28-8.14,32.48c6.71,11.21,21.28,14.86,32.49,8.14C831.83,45.77,835.49,31.2,828.77,20z M791.65,42.24
		c-5.55-9.27-2.53-21.32,6.74-26.87c9.26-5.56,21.32-2.54,26.87,6.73c5.55,9.26,2.53,21.32-6.74,26.87
		C809.26,54.53,797.2,51.51,791.65,42.24z M828.77,20c-6.71-11.21-21.28-14.86-32.49-8.14c-11.2,6.71-14.85,21.28-8.14,32.48
		c6.71,11.21,21.28,14.86,32.49,8.14C831.83,45.77,835.49,31.2,828.77,20z M791.65,42.24c-5.55-9.27-2.53-21.32,6.74-26.87
		c9.26-5.56,21.32-2.54,26.87,6.73c5.55,9.26,2.53,21.32-6.74,26.87C809.26,54.53,797.2,51.51,791.65,42.24z M828.77,20
		c-6.71-11.21-21.28-14.86-32.49-8.14c-11.2,6.71-14.85,21.28-8.14,32.48c6.71,11.21,21.28,14.86,32.49,8.14
		C831.83,45.77,835.49,31.2,828.77,20z M791.65,42.24c-5.55-9.27-2.53-21.32,6.74-26.87c9.26-5.56,21.32-2.54,26.87,6.73
		c5.55,9.26,2.53,21.32-6.74,26.87C809.26,54.53,797.2,51.51,791.65,42.24z M828.77,20c-6.71-11.21-21.28-14.86-32.49-8.14
		c-11.2,6.71-14.85,21.28-8.14,32.48c6.71,11.21,21.28,14.86,32.49,8.14C831.83,45.77,835.49,31.2,828.77,20z M791.65,42.24
		c-5.55-9.27-2.53-21.32,6.74-26.87c9.26-5.56,21.32-2.54,26.87,6.73c5.55,9.26,2.53,21.32-6.74,26.87
		C809.26,54.53,797.2,51.51,791.65,42.24z M828.77,20c-6.71-11.21-21.28-14.86-32.49-8.14c-11.2,6.71-14.85,21.28-8.14,32.48
		c6.71,11.21,21.28,14.86,32.49,8.14C831.83,45.77,835.49,31.2,828.77,20z M791.65,42.24c-5.55-9.27-2.53-21.32,6.74-26.87
		c9.26-5.56,21.32-2.54,26.87,6.73c5.55,9.26,2.53,21.32-6.74,26.87C809.26,54.53,797.2,51.51,791.65,42.24z M828.77,20
		c-6.71-11.21-21.28-14.86-32.49-8.14c-11.2,6.71-14.85,21.28-8.14,32.48c6.71,11.21,21.28,14.86,32.49,8.14
		C831.83,45.77,835.49,31.2,828.77,20z M791.65,42.24c-5.55-9.27-2.53-21.32,6.74-26.87c9.26-5.56,21.32-2.54,26.87,6.73
		c5.55,9.26,2.53,21.32-6.74,26.87C809.26,54.53,797.2,51.51,791.65,42.24z M828.77,20c-6.71-11.21-21.28-14.86-32.49-8.14
		c-11.2,6.71-14.85,21.28-8.14,32.48c6.71,11.21,21.28,14.86,32.49,8.14C831.83,45.77,835.49,31.2,828.77,20z M791.65,42.24
		c-5.55-9.27-2.53-21.32,6.74-26.87c9.26-5.56,21.32-2.54,26.87,6.73c5.55,9.26,2.53,21.32-6.74,26.87
		C809.26,54.53,797.2,51.51,791.65,42.24z M828.77,20c-6.71-11.21-21.28-14.86-32.49-8.14c-11.2,6.71-14.85,21.28-8.14,32.48
		c6.71,11.21,21.28,14.86,32.49,8.14C831.83,45.77,835.49,31.2,828.77,20z M791.65,42.24c-5.55-9.27-2.53-21.32,6.74-26.87
		c9.26-5.56,21.32-2.54,26.87,6.73c5.55,9.26,2.53,21.32-6.74,26.87C809.26,54.53,797.2,51.51,791.65,42.24z M839.3,13.69
		c-1.29-2.16-2.78-4.13-4.41-5.91c-0.54-0.58-1.1-1.14-1.67-1.68c-0.61-0.58-1.23-1.14-1.88-1.66c-2.04-1.69-4.25-3.13-6.58-4.31
		c-0.09-0.04-0.18-0.09-0.27-0.13h-32.11c-0.81,0.4-1.62,0.84-2.41,1.32c-17.01,10.2-22.55,32.32-12.36,49.33
		c10.19,17.01,32.32,22.56,49.33,12.36C843.95,52.82,849.49,30.69,839.3,13.69z M819.47,2.28c3.54,1.3,6.86,3.23,9.78,5.74
		c2.52,2.16,4.74,4.77,6.54,7.77c9.03,15.07,4.12,34.68-10.96,43.71c-15.07,9.03-34.68,4.12-43.71-10.95
		c-9.03-15.07-4.12-34.68,10.96-43.72C800.67-0.32,810.73-0.93,819.47,2.28z M788.14,44.34c6.71,11.21,21.28,14.86,32.49,8.14
		c11.2-6.71,14.86-21.28,8.14-32.48c-6.71-11.21-21.28-14.86-32.49-8.14C785.08,18.57,781.43,33.14,788.14,44.34z M825.26,22.1
		c5.55,9.26,2.53,21.32-6.74,26.87c-9.26,5.56-21.32,2.54-26.87-6.73c-5.55-9.27-2.53-21.32,6.74-26.87
		C807.65,9.81,819.71,12.83,825.26,22.1z M828.77,20c-6.71-11.21-21.28-14.86-32.49-8.14c-11.2,6.71-14.85,21.28-8.14,32.48
		c6.71,11.21,21.28,14.86,32.49,8.14C831.83,45.77,835.49,31.2,828.77,20z M791.65,42.24c-5.55-9.27-2.53-21.32,6.74-26.87
		c9.26-5.56,21.32-2.54,26.87,6.73c5.55,9.26,2.53,21.32-6.74,26.87C809.26,54.53,797.2,51.51,791.65,42.24z M828.77,20
		c-6.71-11.21-21.28-14.86-32.49-8.14c-11.2,6.71-14.85,21.28-8.14,32.48c6.71,11.21,21.28,14.86,32.49,8.14
		C831.83,45.77,835.49,31.2,828.77,20z M791.65,42.24c-5.55-9.27-2.53-21.32,6.74-26.87c9.26-5.56,21.32-2.54,26.87,6.73
		c5.55,9.26,2.53,21.32-6.74,26.87C809.26,54.53,797.2,51.51,791.65,42.24z M828.77,20c-6.71-11.21-21.28-14.86-32.49-8.14
		c-11.2,6.71-14.85,21.28-8.14,32.48c6.71,11.21,21.28,14.86,32.49,8.14C831.83,45.77,835.49,31.2,828.77,20z M791.65,42.24
		c-5.55-9.27-2.53-21.32,6.74-26.87c9.26-5.56,21.32-2.54,26.87,6.73c5.55,9.26,2.53,21.32-6.74,26.87
		C809.26,54.53,797.2,51.51,791.65,42.24z M828.77,20c-6.71-11.21-21.28-14.86-32.49-8.14c-11.2,6.71-14.85,21.28-8.14,32.48
		c6.71,11.21,21.28,14.86,32.49,8.14C831.83,45.77,835.49,31.2,828.77,20z M791.65,42.24c-5.55-9.27-2.53-21.32,6.74-26.87
		c9.26-5.56,21.32-2.54,26.87,6.73c5.55,9.26,2.53,21.32-6.74,26.87C809.26,54.53,797.2,51.51,791.65,42.24z M828.77,20
		c-6.71-11.21-21.28-14.86-32.49-8.14c-11.2,6.71-14.85,21.28-8.14,32.48c6.71,11.21,21.28,14.86,32.49,8.14
		C831.83,45.77,835.49,31.2,828.77,20z M791.65,42.24c-5.55-9.27-2.53-21.32,6.74-26.87c9.26-5.56,21.32-2.54,26.87,6.73
		c5.55,9.26,2.53,21.32-6.74,26.87C809.26,54.53,797.2,51.51,791.65,42.24z M828.77,20c-6.71-11.21-21.28-14.86-32.49-8.14
		c-11.2,6.71-14.85,21.28-8.14,32.48c6.71,11.21,21.28,14.86,32.49,8.14C831.83,45.77,835.49,31.2,828.77,20z M791.65,42.24
		c-5.55-9.27-2.53-21.32,6.74-26.87c9.26-5.56,21.32-2.54,26.87,6.73c5.55,9.26,2.53,21.32-6.74,26.87
		C809.26,54.53,797.2,51.51,791.65,42.24z"/>
</g>
<g>
	<path class="st0" d="M895.55,5c-0.72,0.57-1.49,1.1-2.3,1.59c-9.94,5.96-22.8,2.98-29.14-6.59h-13.7c0.69,1.87,1.58,3.69,2.63,5.46
		c8.93,14.91,27.58,20.48,43.05,13.47c1.18-0.53,2.34-1.13,3.47-1.81c0.15-0.09,0.29-0.18,0.44-0.27V0.22
		C898.79,2,897.3,3.62,895.55,5z"/>
</g>
<path class="st3" d="M897.61,0c-0.71,0.93-1.52,1.81-2.42,2.61c-0.91,0.83-1.9,1.57-2.99,2.22c-8.6,5.16-19.6,2.92-25.57-4.83h-4.92
	c0.03,0.07,0.07,0.13,0.11,0.2c6.71,11.2,21.28,14.85,32.48,8.14c0.53-0.31,1.04-0.64,1.53-1c1.56-1.1,2.96-2.37,4.17-3.77V0.22
	c0.05-0.07,0.1-0.15,0.15-0.22H897.61z M897.61,0c-0.71,0.93-1.52,1.81-2.42,2.61c-0.91,0.83-1.9,1.57-2.99,2.22
	c-8.6,5.16-19.6,2.92-25.57-4.83h-4.92c0.03,0.07,0.07,0.13,0.11,0.2c6.71,11.2,21.28,14.85,32.48,8.14c0.53-0.31,1.04-0.64,1.53-1
	c1.56-1.1,2.96-2.37,4.17-3.77V0.22c0.05-0.07,0.1-0.15,0.15-0.22H897.61z M898.51,15.36c-0.76,0.46-1.54,0.88-2.32,1.26
	c-14.71,7.25-32.83,2.1-41.39-12.21c-0.86-1.43-1.59-2.91-2.2-4.41h-4.37c0.78,2.22,1.8,4.41,3.06,6.51
	c9.28,15.49,28.44,21.47,44.64,14.72c1.38-0.57,2.74-1.24,4.07-2.01v-4.81C899.52,14.74,899.02,15.05,898.51,15.36z M897.61,0
	c-0.71,0.93-1.52,1.81-2.42,2.61c-0.91,0.83-1.9,1.57-2.99,2.22c-8.6,5.16-19.6,2.92-25.57-4.83h-4.92c0.03,0.07,0.07,0.13,0.11,0.2
	c6.71,11.2,21.28,14.85,32.48,8.14c0.53-0.31,1.04-0.64,1.53-1c1.56-1.1,2.96-2.37,4.17-3.77V0.22c0.05-0.07,0.1-0.15,0.15-0.22
	H897.61z"/>
<circle class="st0" cx="733.22" cy="168.55" r="37.63"/>
<path class="st1" d="M256.94,250H130.86c1.98-4.26,4.39-8.28,7.17-12.01c12.66-17.08,32.98-28.15,55.87-28.15
	c8.48,0,16.6,1.52,24.12,4.3C235.23,220.51,249.23,233.49,256.94,250z"/>
<path class="st2" d="M776.24,0c-6.98,8.88-16.78,15.44-28.04,18.32c-4.15,1.07-8.5,1.63-12.98,1.63c-6.94,0-13.56-1.35-19.61-3.81
	c-8.47-3.45-15.83-9.05-21.4-16.14H776.24z"/>
<path class="st1" d="M390.15,0c-1.19,36.56-31.21,65.83-68.06,65.83c-12.22,0-23.68-3.21-33.59-8.85
	C268.51,45.62,254.83,24.44,254.03,0H390.15z"/>
<circle class="st3" cx="295.91" cy="126.16" r="74.53"/>
<g>
	<path class="st1" d="M302.1,97.81l1.85-1.44c4.9-3.82,11.14-5.93,17.56-5.93c6.14,0,12.19,1.95,17.04,5.49l1.9,1.38l-8.3,11.38
		l-1.9-1.38c-2.55-1.87-5.58-2.85-8.76-2.85c-3.26,0-6.42,1.07-8.93,3.01l-1.85,1.44L302.1,97.81z"/>
</g>
<g>
	<path class="st2" d="M321.51,92.8c5.5,0,11.04,1.66,15.67,5.03l-5.53,7.58c-3.03-2.21-6.6-3.3-10.14-3.3
		c-3.7,0-7.38,1.19-10.36,3.51l-5.75-7.4C310.01,94.62,315.74,92.8,321.51,92.8 M321.51,88.11c-6.94,0-13.69,2.28-19,6.42l-3.7,2.88
		l2.88,3.7l5.75,7.4l2.88,3.7l3.7-2.88c2.09-1.63,4.75-2.52,7.48-2.52c2.68,0,5.23,0.83,7.38,2.39l3.79,2.77l2.77-3.79l5.53-7.58
		l2.77-3.79l-3.8-2.76C334.68,90.22,328.14,88.11,321.51,88.11L321.51,88.11z"/>
</g>
<path class="st2" d="M207.67,158.21c-8.54,3.19-19.32,4.78-32.37,4.78c-2.2,0-4.17-0.92-5.91-2.75c-1.74-1.83-2.61-3.79-2.61-5.88
	V96.11c-0.11-2.49-0.2-4.98-0.27-7.47c-0.11-2.82-0.02-5.2,0.27-7.14c0.51-3.44,3.72-5.53,9.62-6.26c2.78-0.81,7.4-1.21,13.85-1.21
	c6.92,0,13.55,2.23,19.89,6.7c7.44,5.2,11.16,11.7,11.16,19.51c0,4.21-0.77,7.77-2.31,10.66c-1.21,2.34-3.32,4.85-6.32,7.53
	c3.55,1.72,6.7,4.32,9.45,7.8c3.11,3.88,4.67,7.75,4.67,11.59c0,4.87-2.66,9.49-7.97,13.85
	C215.27,154.56,211.55,156.74,207.67,158.21z M190.25,88.91c-4.73,0-7.57,0.04-8.52,0.11l0.05,11.65l-0.05,11.54
	c3.33,0.4,5.84,0.53,7.53,0.38c11.21-0.88,16.82-5,16.82-12.36c0-2.6-1.65-5.11-4.95-7.53C197.72,90.18,194.09,88.91,190.25,88.91z
	 M196.67,127.76c-3.33,0-8.32-0.13-14.95-0.38v20.55c6.3-0.33,13.13-1.54,20.5-3.63c6.45-1.83,9.63-3.81,9.56-5.93
	c-0.11-2.82-2.18-5.33-6.21-7.53C202.43,129.08,199.46,128.06,196.67,127.76z"/>
<path class="st1" d="M175.3,165.14c-2.8,0-5.31-1.15-7.47-3.42c-2.13-2.24-3.2-4.71-3.2-7.36V96.11c-0.11-2.41-0.2-4.91-0.27-7.42
	c-0.11-2.91-0.01-5.44,0.3-7.52c0.67-4.5,4.53-7.22,11.48-8.08c2.68-0.81,7.4-1.23,14.12-1.23c7.34,0,14.45,2.39,21.13,7.1
	c8.01,5.6,12.07,12.76,12.07,21.27c0,4.55-0.86,8.48-2.56,11.67c-1,1.96-2.53,3.96-4.61,6.07c2.78,1.77,5.3,4.09,7.53,6.91
	c3.4,4.25,5.13,8.6,5.13,12.93c0,5.52-2.95,10.74-8.75,15.51c-3.71,3.03-7.67,5.35-11.76,6.9c0,0,0,0-0.01,0
	C199.67,163.49,188.53,165.14,175.3,165.14z M190.25,76.17c-6.21,0-10.67,0.38-13.25,1.13c-5.13,0.66-7.73,2.16-8.09,4.52
	c-0.27,1.81-0.35,4.07-0.25,6.74c0.07,2.5,0.16,4.99,0.27,7.47v58.34c0,1.53,0.66,2.97,2.02,4.4c1.33,1.4,2.75,2.08,4.35,2.08
	c12.71,0,23.35-1.56,31.61-4.65c3.65-1.38,7.2-3.46,10.55-6.19c4.76-3.91,7.18-8.01,7.18-12.18c0-3.33-1.41-6.78-4.2-10.25
	c-2.54-3.21-5.47-5.63-8.71-7.22c-0.65-0.31-1.1-0.93-1.19-1.64c-0.1-0.71,0.16-1.42,0.7-1.9c2.8-2.49,4.76-4.81,5.84-6.9
	c1.37-2.59,2.07-5.84,2.07-9.68c0-7.12-3.35-12.93-10.24-17.74C202.96,78.29,196.68,76.17,190.25,76.17z M207.67,158.21h0.05H207.67
	z M181.73,150.08c-0.55,0-1.08-0.21-1.48-0.59c-0.42-0.41-0.67-0.98-0.67-1.56v-20.55c0-0.59,0.24-1.14,0.66-1.56
	c0.42-0.4,1.04-0.56,1.58-0.6c6.59,0.26,11.55,0.39,14.86,0.39c0.08,0,0.15,0,0.23,0.01c3.06,0.33,6.33,1.45,9.73,3.34
	c4.7,2.56,7.17,5.7,7.31,9.33c0.14,4.33-5.87,6.59-11.13,8.09c-7.5,2.13-14.55,3.37-20.97,3.71
	C181.8,150.08,181.77,150.08,181.73,150.08z M183.88,129.61v16.01c5.49-0.47,11.45-1.61,17.76-3.39c7.45-2.12,8-3.79,8-3.81
	c-0.08-1.98-1.79-3.9-5.09-5.69c-2.85-1.6-5.54-2.54-7.99-2.82C193.6,129.92,189.37,129.82,183.88,129.61z M187.69,114.81
	c-1.64,0-3.7-0.14-6.22-0.45c-1.08-0.13-1.9-1.05-1.89-2.14l0.05-11.55l-0.05-11.63c0-1.13,0.86-2.07,1.98-2.15
	c0.97-0.08,3.87-0.12,8.69-0.12c4.3,0,8.4,1.42,12.16,4.21c3.86,2.83,5.82,5.95,5.82,9.26c0,5.95-3.26,13.3-18.8,14.51
	C188.91,114.79,188.33,114.81,187.69,114.81z M183.89,110.29c2.24,0.22,3.98,0.27,5.18,0.16c14.86-1.16,14.86-7.98,14.86-10.22
	c0-1.87-1.37-3.82-4.06-5.79c-3.07-2.28-6.21-3.38-9.61-3.38c-2.79,0-4.91,0.01-6.36,0.03l0.05,9.56L183.89,110.29z"/>
<path class="st2" d="M431.43,136.01l-0.05,23.13c0,1.61-0.46,3.1-1.37,4.45c-1.28,1.87-3.15,2.8-5.61,2.8
	c-2.89,0-5.17-1.17-6.81-3.52c-1.28-1.83-1.92-3.79-1.92-5.88c0-8.13,0.26-20.35,0.77-36.65c0.51-16.3,0.77-28.52,0.77-36.65
	c0-2.05,0.73-3.81,2.2-5.28c1.47-1.47,3.3-2.2,5.5-2.2c2.2,0,4.02,0.73,5.47,2.2c1.45,1.47,2.17,3.22,2.17,5.28
	c0,3.3-0.16,7.75-0.49,13.35c-0.4,6.52-0.64,10.97-0.71,13.35c2.56-2.42,12.07-12.6,28.52-30.55c1.69-1.83,3.63-2.75,5.82-2.75
	c2.09,0,3.91,0.73,5.47,2.2c1.56,1.47,2.34,3.24,2.34,5.33c0,2.27-4.36,8.17-13.08,17.69c-6.45,7-13.24,13.9-20.39,20.72
	c3.99,3.77,8,7.55,12.03,11.32c4.69,4.32,8.9,7.88,12.64,10.66c1.87,1.36,3.88,2.38,6.04,3.08c3.92,1.25,5.88,3.65,5.88,7.2
	c0,1.58-0.49,3.1-1.48,4.56c-1.36,1.98-3.24,2.97-5.66,2.97c-5.24,0-12.03-3.43-20.39-10.28
	C446.58,150.5,440.7,144.98,431.43,136.01z"/>
<path class="st1" d="M424.4,168.55c-3.57,0-6.53-1.53-8.57-4.42c-1.54-2.2-2.32-4.6-2.32-7.13c0-8.12,0.26-20.47,0.77-36.72
	c0.51-16.2,0.77-28.52,0.77-36.59c0-2.64,0.95-4.92,2.83-6.79c3.76-3.78,10.29-3.75,14.02,0.01c1.85,1.88,2.79,4.15,2.79,6.79
	c0,3.32-0.16,7.73-0.5,13.48c-0.19,3-0.34,5.57-0.45,7.69c4.65-4.89,12.86-13.74,24.51-26.46c4.1-4.44,10.32-4.47,14.35-0.66
	c2,1.88,3.02,4.2,3.02,6.9c0,2.1-1.62,6.02-13.64,19.15c-6.01,6.53-12.35,12.99-18.86,19.26c3.45,3.25,6.91,6.5,10.39,9.75
	c4.61,4.26,8.8,7.8,12.45,10.51c1.66,1.19,3.48,2.13,5.42,2.75c6.1,1.94,7.38,6.1,7.38,9.25c0,2.01-0.62,3.94-1.86,5.77
	c-1.76,2.56-4.33,3.91-7.44,3.91c-5.81,0-12.93-3.52-21.75-10.76c-2.19-1.8-6.83-6.11-14.14-13.14l-0.04,18.08
	c0,2.03-0.59,3.93-1.75,5.65C430.1,167.25,427.55,168.55,424.4,168.55z M424.89,78.37c-1.61,0-2.91,0.51-3.97,1.57
	c-1.06,1.05-1.57,2.28-1.57,3.75c0,8.12-0.26,20.47-0.77,36.72c-0.51,16.2-0.77,28.51-0.77,36.58c0,1.65,0.5,3.17,1.54,4.65
	c1.24,1.77,2.85,2.6,5.05,2.6c1.74,0,2.95-0.59,3.83-1.87c0.67-0.99,1-2.06,1-3.24l0.05-23.14c0-0.86,0.52-1.64,1.31-1.98
	c0.81-0.32,1.71-0.17,2.34,0.44c9.22,8.92,15.11,14.45,17.52,16.42c7.9,6.49,14.3,9.79,19.01,9.79c1.7,0,2.93-0.65,3.89-2.04
	c0.75-1.1,1.11-2.19,1.11-3.34c0-1.75-0.5-3.91-4.38-5.15c-2.38-0.77-4.61-1.9-6.65-3.39c-3.79-2.82-8.11-6.45-12.84-10.82
	c-4.04-3.78-8.06-7.56-12.06-11.34c-0.43-0.4-0.67-0.97-0.67-1.56c0-0.6,0.24-1.16,0.66-1.56c7.02-6.69,13.85-13.62,20.3-20.63
	c11.71-12.78,12.47-15.78,12.5-16.25c0-1.49-0.53-2.68-1.66-3.75c-2.34-2.18-5.73-2.27-8.24,0.45
	c-16.65,18.16-26.01,28.2-28.62,30.65c-0.64,0.61-1.57,0.77-2.36,0.4c-0.8-0.35-1.3-1.16-1.27-2.03c0.08-2.4,0.31-6.87,0.71-13.42
	c0.34-5.66,0.5-9.98,0.5-13.22c0-1.48-0.5-2.71-1.55-3.76C427.79,78.88,426.5,78.37,424.89,78.37z"/>
<path class="st2" d="M525.75,120.12c-3.63,0-5.81-1.52-6.54-4.56c-1.47-0.26-2.97-0.38-4.51-0.38c-8.83,0-13.24,1.21-13.24,3.63
	c0,1.43,2.66,3.35,7.97,5.77c7.25,3.33,12.16,5.93,14.73,7.8c5.31,3.85,7.97,8.19,7.97,13.02c0,6.3-2.93,11.08-8.79,14.34
	c-4.73,2.6-10.53,3.9-17.42,3.9c-4.87,0-9.32-0.75-13.35-2.25c-5.5-2.05-8.24-5.07-8.24-9.07c0-3.66,2.18-5.5,6.54-5.5
	c1.69,0,4.12,0.53,7.31,1.59c3.19,1.06,5.64,1.59,7.36,1.59c7.44,0,11.17-1.5,11.21-4.51c0-1.87-2.58-3.94-7.75-6.21
	c-7.55-3.33-12.38-5.73-14.51-7.2c-5.17-3.63-7.75-8.04-7.75-13.24c0-7.36,3.9-12.33,11.7-14.89c4.58-1.5,11.54-2.25,20.88-2.25
	c3.66,0,6.37,0.48,8.13,1.43c2.42,1.28,3.63,3.65,3.63,7.09C531.08,116.83,529.3,120.12,525.75,120.12z"/>
<path class="st1" d="M505.91,165.8c-5.12,0-9.86-0.81-14.11-2.39c-6.4-2.39-9.65-6.12-9.65-11.08c0-4.86,3.17-7.65,8.7-7.65
	c1.92,0,4.53,0.56,7.99,1.71c3.67,1.22,5.67,1.48,6.69,1.48c6.67,0,9.05-1.28,9.06-2.37l0,0c-0.01,0-0.29-1.51-6.47-4.22
	c-7.72-3.41-12.58-5.82-14.86-7.39c-5.76-4.04-8.68-9.1-8.68-15.02c0-8.25,4.56-14.1,13.19-16.94c4.79-1.57,12.04-2.36,21.55-2.36
	c4.06,0,7.06,0.56,9.16,1.69c2.16,1.14,4.75,3.64,4.75,8.98c0,9.96-4.06,12.05-7.48,12.05c-4.02,0-6.87-1.68-8.17-4.78
	c-0.95-0.11-1.92-0.17-2.88-0.17c-9.02,0-10.81,1.31-11.09,1.59l0,0c0.22,0,1.38,1.27,6.71,3.7c7.44,3.42,12.38,6.04,15.1,8.02
	c5.87,4.25,8.86,9.22,8.86,14.77c0,7.11-3.33,12.56-9.9,16.22C519.33,164.4,513.13,165.8,505.91,165.8z M490.85,148.98
	c-4.05,0-4.39,1.72-4.39,3.35c0,1.11,0,4.49,6.85,7.05c3.77,1.4,8.01,2.12,12.61,2.12c6.48,0,11.99-1.22,16.38-3.63
	c5.16-2.88,7.68-6.95,7.68-12.45c0-4.15-2.31-7.84-7.08-11.29c-2.46-1.78-7.29-4.34-14.36-7.59c-6.63-3.03-9.23-5.2-9.23-7.73
	c0-5.1,7.79-5.79,15.4-5.79c1.62,0,3.26,0.14,4.87,0.42c0.85,0.14,1.53,0.78,1.73,1.61c0.34,1.45,1.14,2.92,4.45,2.92
	c2.1,0,3.17-2.61,3.17-7.75c0-3.46-1.41-4.63-2.48-5.19c-1-0.54-3.04-1.18-7.12-1.18c-9.06,0-15.86,0.72-20.21,2.14
	c-6.88,2.26-10.23,6.47-10.23,12.85c0,4.5,2.24,8.26,6.83,11.48c1.38,0.95,4.97,2.94,14.14,7c6.25,2.74,9.04,5.26,9.04,8.18
	c-0.08,6.65-10.07,6.65-13.36,6.65c-1.98,0-4.61-0.56-8.05-1.7C493.78,149.24,491.83,148.98,490.85,148.98z"/>
<path class="st2" d="M580.64,116.11c-0.77,0-1.68-0.03-2.72-0.08c-1.04-0.05-1.95-0.08-2.72-0.08c-1.5,0-3.24,0.15-5.22,0.44
	c0.66,14.8,0.99,24.47,0.99,29.01c0,0.48,0.02,1.36,0.05,2.67s0.05,2.35,0.05,3.16c0,8.43-2.66,12.64-7.97,12.64
	c-2.01,0-3.76-0.62-5.22-1.87c-1.61-1.32-2.42-2.97-2.42-4.95c0-1.32,0.05-3.3,0.16-5.93c0.11-2.64,0.16-4.62,0.16-5.93
	c0-4.43-0.33-13.92-0.99-28.47c-2.27-0.11-5.71-0.41-10.3-0.91s-6.9-2.87-6.9-7.12c0-2.05,0.7-3.79,2.09-5.22
	c1.39-1.43,3.19-2.14,5.39-2.14c1.36,0,4.47,0.22,9.34,0.66c-0.04-1.17-0.13-3.11-0.27-5.82c-0.15-2.34-0.22-4.16-0.22-5.44
	c0-2.05,0.75-3.76,2.25-5.11s3.32-2.03,5.44-2.03c5.42,0,8.13,4.56,8.13,13.68l-0.11,4.51c2.27-0.33,4.12-0.49,5.55-0.49
	c4.21,0,7.09,0.27,8.63,0.82c2.93,1.03,4.4,3.26,4.4,6.7c0,2.09-0.71,3.83-2.14,5.22S582.84,116.11,580.64,116.11z"/>
<path class="st1" d="M563.11,166.02c-2.52,0-4.75-0.8-6.61-2.38c-2.07-1.7-3.18-3.99-3.18-6.58c0-1.34,0.05-3.35,0.16-6.03
	c0.11-2.6,0.17-4.54,0.17-5.84c0-4.24-0.3-13.13-0.9-26.44c-2.16-0.15-4.99-0.42-8.47-0.78c-5.69-0.61-8.82-3.91-8.82-9.27
	c0-2.62,0.91-4.89,2.7-6.72c1.81-1.85,4.14-2.79,6.93-2.79c1.18,0,3.51,0.15,7.09,0.45c-0.05-0.94-0.11-2.06-0.18-3.36
	c-0.14-2.37-0.22-4.23-0.22-5.54c0-2.68,1-4.94,2.97-6.71c1.89-1.72,4.21-2.59,6.88-2.59c4.69,0,10.28,2.75,10.28,15.83l-0.05,2.06
	c1.28-0.13,2.39-0.2,3.34-0.2c4.49,0,7.55,0.31,9.35,0.95c2.65,0.93,5.82,3.2,5.82,8.73c0,2.69-0.94,4.97-2.79,6.77
	c-1.83,1.79-4.17,2.7-6.94,2.7c-0.81,0-1.75-0.03-2.83-0.08c-2.27-0.13-3.64-0.12-5.6,0.08c0.61,13.96,0.91,22.84,0.91,27.14
	c0,0.46,0.02,1.34,0.05,2.6c0.03,1.33,0.06,2.4,0.06,3.22C573.24,163.45,567.73,166.02,563.11,166.02z M545.09,103.49
	c-1.63,0-2.85,0.48-3.85,1.5c-0.99,1.02-1.47,2.23-1.47,3.71c0,3.16,1.44,4.6,4.97,4.98c4.54,0.49,7.94,0.78,10.18,0.89
	c1.11,0.06,2,0.94,2.05,2.05c0.66,14.46,0.99,24.07,0.99,28.57c0,1.34-0.06,3.35-0.17,6.03c-0.11,2.6-0.16,4.54-0.16,5.84
	c0,1.33,0.52,2.37,1.63,3.28c1.1,0.93,2.35,1.38,3.85,1.38c1.59,0,5.82,0,5.82-10.49c0-0.79-0.03-1.82-0.06-3.1
	c-0.03-1.33-0.05-2.24-0.05-2.72c0-4.43-0.33-13.89-0.99-28.93c-0.05-1.1,0.75-2.06,1.83-2.22c2.05-0.31,3.92-0.46,5.54-0.46
	c0.8,0,1.75,0.03,2.83,0.08c3.17,0.16,5.06,0.04,6.54-1.4c1.02-0.98,1.49-2.15,1.49-3.68c0-3.22-1.57-4.19-2.95-4.67
	c-0.74-0.27-2.75-0.71-7.91-0.71c-1.3,0-3.06,0.16-5.24,0.47c-0.66,0.12-1.27-0.1-1.74-0.52c-0.47-0.42-0.74-1.03-0.72-1.66
	l0.11-4.51c0-11.48-4.5-11.48-5.98-11.48c-1.59,0-2.89,0.49-3.99,1.48c-1.06,0.95-1.55,2.06-1.55,3.52c0,1.24,0.08,3.02,0.22,5.3
	c0.14,2.76,0.24,4.71,0.28,5.89c0.02,0.61-0.23,1.21-0.67,1.64c-0.45,0.43-1.08,0.67-1.67,0.58
	C549.45,103.7,546.37,103.49,545.09,103.49z"/>
<path class="st2" d="M617.52,163.59c-6.78,0-12.6-2.33-17.47-6.98c-5.35-5.09-8.15-11.89-8.41-20.39
	c-0.26-8.1,1.96-15.31,6.65-21.65c5.57-7.47,13.32-11.21,23.24-11.21c7.33,0,13.15,2.93,17.47,8.79c3.88,5.28,5.82,11.81,5.82,19.62
	c0,8.5-2.27,15.75-6.81,21.76C632.92,160.24,626.09,163.59,617.52,163.59z M620.81,117.87c-4.51-0.04-8.06,2.01-10.66,6.15
	c-2.2,3.48-3.3,7.55-3.3,12.2c0,4.4,1.25,7.77,3.74,10.11c1.98,1.87,4.29,2.8,6.92,2.8c3.19,0,5.95-1.08,8.3-3.24
	c2.67-2.53,4.1-5.95,4.29-10.28C630.58,123.82,627.48,117.91,620.81,117.87z"/>
<path class="st1" d="M617.51,165.75c-7.31,0-13.69-2.55-18.96-7.58c-5.74-5.47-8.8-12.84-9.07-21.88
	c-0.28-8.54,2.1-16.28,7.06-22.99c5.97-8.02,14.37-12.08,24.98-12.08c8.01,0,14.48,3.25,19.21,9.66c4.15,5.63,6.25,12.66,6.25,20.9
	c0,8.94-2.44,16.69-7.25,23.06C634.22,162.08,626.75,165.75,617.51,165.75z M621.52,105.52c-9.29,0-16.33,3.38-21.52,10.34
	c-4.36,5.9-6.46,12.73-6.21,20.29c0.24,7.99,2.77,14.17,7.74,18.9c4.51,4.3,9.73,6.38,15.99,6.38c7.93,0,14.08-3.01,18.79-9.21
	c4.23-5.6,6.37-12.48,6.37-20.46c0-7.3-1.82-13.47-5.41-18.34C633.34,108.11,628.19,105.52,621.52,105.52z M617.51,151.29
	c-3.2,0-6.02-1.14-8.4-3.39c-2.93-2.76-4.41-6.69-4.41-11.68c0-5.05,1.22-9.54,3.63-13.35c2.98-4.74,7.13-7.16,12.34-7.16
	c0.04,0,0.09,0,0.14,0l0,0c3,0.02,5.48,1.03,7.37,3c3.07,3.2,4.4,8.76,4.06,16.98c-0.21,4.89-1.88,8.85-4.96,11.76
	C624.53,150.01,621.24,151.29,617.51,151.29z M620.68,120.03c-3.68,0-6.53,1.68-8.7,5.15c-1.98,3.11-2.97,6.82-2.97,11.05
	c0,3.82,1,6.61,3.06,8.55c1.57,1.49,3.36,2.21,5.44,2.21c2.65,0,4.89-0.87,6.85-2.67c2.25-2.13,3.43-5,3.59-8.79
	c0.28-6.79-0.71-11.57-2.87-13.82c-1.07-1.12-2.46-1.67-4.27-1.67c-0.01,0-0.01,0-0.01,0C620.76,120.03,620.73,120.03,620.68,120.03
	z"/>
<path class="st2" d="M700.11,120.73c-0.33,5.61-2.88,8.41-7.64,8.41c-4.62,0-6.92-2.38-6.92-7.14l-0.27-5.55
	c-8.24,1.32-14.14,5.55-17.69,12.69l0.05,27.64c0,2.09-0.71,3.82-2.14,5.19s-3.24,2.06-5.44,2.06c-2.27,0-4.03-0.73-5.28-2.2
	c-1.17-1.32-1.76-3-1.76-5.06v-35.99c0-1.14,0.04-2.83,0.11-5.08c0.07-2.25,0.11-3.95,0.11-5.08c0-2.05,0.61-3.76,1.84-5.14
	s2.98-2.06,5.25-2.06c4.07,0,6.48,2.09,7.25,6.26c6.48-4.84,13.68-7.25,21.6-7.25c7.33,0,10.99,4.87,10.99,14.62
	C700.16,118.92,700.15,120.14,700.11,120.73z"/>
<path class="st1" d="M660.05,166.19c-2.93,0-5.26-1-6.91-2.97c-1.5-1.67-2.27-3.85-2.27-6.44v-35.99c0-1.15,0.03-2.88,0.11-5.15
	c0.08-2.22,0.11-3.89,0.11-5.01c0-2.59,0.81-4.8,2.39-6.58c1.66-1.84,3.96-2.78,6.85-2.78c3.99,0,6.89,1.75,8.43,5
	c6.21-3.98,13.06-5.99,20.43-5.99c6,0,13.14,2.91,13.14,16.78c0,1.93-0.03,3.2-0.06,3.8l0,0c-0.54,9.08-6.37,10.44-9.79,10.44
	c-5.77,0-9.08-3.39-9.08-9.29l-0.14-2.94c-6.17,1.54-10.6,5.02-13.51,10.6l0.05,27.13c0,2.68-0.94,4.95-2.8,6.74
	C665.13,165.29,662.81,166.19,660.05,166.19z M660.32,105.57c-1.64,0-2.83,0.44-3.64,1.35c-0.87,0.97-1.3,2.18-1.3,3.7
	c0,1.15-0.03,2.88-0.11,5.16c-0.08,2.21-0.11,3.89-0.11,5v35.99c0,1.52,0.4,2.71,1.21,3.62c1.72,2.04,5.55,1.99,7.62,0.02
	c1.01-0.98,1.48-2.13,1.48-3.64l-0.05-27.64c0-0.33,0.08-0.66,0.23-0.96c3.86-7.76,10.34-12.43,19.28-13.86
	c0.61-0.09,1.22,0.08,1.69,0.45c0.48,0.39,0.77,0.96,0.8,1.57l0.27,5.55c0,3.69,1.34,5.09,4.78,5.09c2.53,0,5.15-0.76,5.48-6.38l0,0
	c0.03-0.56,0.06-1.75,0.06-3.55c0-11.18-5.05-12.47-8.84-12.47c-7.4,0-14.23,2.3-20.31,6.83c-0.61,0.45-1.39,0.55-2.07,0.28
	c-0.7-0.27-1.2-0.87-1.34-1.61C664.88,106.92,663.34,105.57,660.32,105.57z M700.11,120.73h0.05H700.11z"/>
<path class="st2" d="M735.83,162.88c-8.76,0-15.92-2.09-21.49-6.26c-6.15-4.62-9.23-11.12-9.23-19.51c0-9.27,2.44-17.11,7.31-23.52
	c5.42-7.11,12.73-10.66,21.93-10.66c6.37,0,11.67,1.03,15.88,3.08c5.53,2.71,8.3,6.92,8.3,12.64c0,4.03-2.25,7.6-6.76,10.72
	c-2.05,1.43-6.17,3.52-12.36,6.26l-18.52,8.19c1.76,1.91,3.88,3.33,6.37,4.29c2.49,0.95,5.35,1.43,8.57,1.43
	c4.91,0,9.07-1.01,12.47-3.02c3.04-1.8,5.48-2.69,7.31-2.69c3.81,0,5.72,1.85,5.72,5.55c0,4.18-3.06,7.58-9.18,10.22
	C747.02,161.78,741.58,162.88,735.83,162.88z M734.34,116.22c-3.41,0-6.32,1.14-8.74,3.41s-4.36,5.68-5.82,10.22
	c4.14-1.8,8.26-3.57,12.36-5.33c4.95-2.23,8.88-4.3,11.81-6.21C741.51,116.92,738.3,116.22,734.34,116.22z"/>
<path class="st1" d="M735.83,165.03c-9.18,0-16.84-2.25-22.78-6.69c-6.69-5.03-10.09-12.17-10.09-21.23
	c0-9.72,2.61-18.07,7.74-24.82c5.84-7.64,13.78-11.51,23.64-11.51c6.68,0,12.34,1.11,16.83,3.3c6.31,3.1,9.5,8.01,9.5,14.57
	c0,4.76-2.58,8.96-7.68,12.49c-2.21,1.53-6.37,3.65-12.72,6.46l-15.44,6.83c0.97,0.67,2.03,1.22,3.2,1.67
	c2.24,0.85,4.86,1.29,7.8,1.29c4.49,0,8.32-0.92,11.37-2.72c3.43-2.02,6.17-2.99,8.41-2.99c5,0,7.87,2.81,7.87,7.7
	c0,5.1-3.53,9.2-10.49,12.19C747.62,163.87,741.84,165.03,735.83,165.03z M734.34,105.08c-8.56,0-15.17,3.21-20.22,9.81
	c-4.55,5.99-6.86,13.46-6.86,22.22c0,7.75,2.74,13.56,8.38,17.79c5.16,3.88,11.96,5.84,20.19,5.84c5.42,0,10.63-1.05,15.46-3.13
	c5.3-2.28,7.88-4.98,7.88-8.24c0-2.51-0.93-3.4-3.57-3.4c-0.98,0-2.85,0.41-6.21,2.4c-3.73,2.2-8.29,3.32-13.56,3.32
	c-3.47,0-6.62-0.53-9.34-1.57c-2.82-1.08-5.23-2.71-7.19-4.84c-0.47-0.5-0.66-1.21-0.53-1.89c0.14-0.68,0.61-1.25,1.24-1.53
	l18.52-8.19c7.49-3.31,10.67-5.13,12.02-6.06c3.92-2.72,5.83-5.64,5.83-8.95c0-4.86-2.32-8.36-7.09-10.71
	C745.39,106.03,740.36,105.08,734.34,105.08z M719.78,132c-0.53,0-1.04-0.19-1.45-0.56c-0.63-0.56-0.87-1.45-0.61-2.25
	c1.58-4.87,3.73-8.61,6.41-11.12c2.83-2.65,6.26-3.99,10.21-3.99c4.33,0,7.92,0.8,10.69,2.36c0.65,0.38,1.06,1.06,1.08,1.82
	c0.02,0.75-0.35,1.45-0.98,1.87c-3.06,1.98-7.13,4.12-12.1,6.36l-12.4,5.35C720.36,131.94,720.06,132,719.78,132z M734.34,118.38
	c-2.86,0-5.24,0.93-7.27,2.83c-1.23,1.16-2.34,2.69-3.32,4.58l7.54-3.25c2.87-1.3,5.42-2.56,7.64-3.76
	C737.56,118.51,736.03,118.38,734.34,118.38z"/>
<g>
	<path class="st1" d="M272.01,157.89c-21.43,0-38.87-17.43-38.87-38.86s17.43-38.86,38.87-38.86s38.87,17.43,38.87,38.86
		S293.45,157.89,272.01,157.89z M272.01,94.23c-13.67,0-24.8,11.12-24.8,24.79s11.12,24.79,24.8,24.79
		c13.67,0,24.8-11.12,24.8-24.79S285.69,94.23,272.01,94.23z"/>
</g>
<g>
	<path class="st2" d="M272.01,82.51c20.14,0,36.52,16.38,36.52,36.52s-16.38,36.52-36.52,36.52s-36.52-16.38-36.52-36.52
		S251.88,82.51,272.01,82.51 M272.01,146.16c14.97,0,27.14-12.17,27.14-27.14s-12.18-27.14-27.14-27.14
		c-14.97,0-27.14,12.17-27.14,27.14S257.05,146.16,272.01,146.16 M272.01,77.82c-22.72,0-41.21,18.48-41.21,41.21
		s18.49,41.21,41.21,41.21c22.72,0,41.21-18.48,41.21-41.21S294.74,77.82,272.01,77.82L272.01,77.82z M272.01,141.47
		c-12.38,0-22.45-10.07-22.45-22.45s10.07-22.45,22.45-22.45c12.38,0,22.45,10.07,22.45,22.45S284.39,141.47,272.01,141.47
		L272.01,141.47z"/>
</g>
<g>
	<path class="st1" d="M370.43,157.89c-21.43,0-38.87-17.43-38.87-38.86S349,80.17,370.43,80.17s38.86,17.43,38.86,38.86
		S391.87,157.89,370.43,157.89z M370.43,94.23c-13.67,0-24.8,11.12-24.8,24.79s11.12,24.79,24.8,24.79
		c13.67,0,24.8-11.12,24.8-24.79S384.11,94.23,370.43,94.23z"/>
</g>
<g>
	<path class="st2" d="M370.43,82.51c20.14,0,36.52,16.38,36.52,36.52s-16.38,36.52-36.52,36.52s-36.52-16.38-36.52-36.52
		S350.3,82.51,370.43,82.51 M370.43,146.16c14.97,0,27.14-12.17,27.14-27.14s-12.18-27.14-27.14-27.14
		c-14.97,0-27.14,12.17-27.14,27.14S355.47,146.16,370.43,146.16 M370.43,77.82c-22.72,0-41.21,18.48-41.21,41.21
		s18.49,41.21,41.21,41.21c22.72,0,41.21-18.48,41.21-41.21S393.16,77.82,370.43,77.82L370.43,77.82z M370.43,141.47
		c-12.38,0-22.45-10.07-22.45-22.45s10.07-22.45,22.45-22.45c12.38,0,22.45,10.07,22.45,22.45S382.81,141.47,370.43,141.47
		L370.43,141.47z"/>
</g>
<path class="st3" d="M199.81,0c-9.63,25.21-29.37,46.46-56.4,57.25c-12.71,5.08-25.85,7.36-38.73,7.14
	c-28.65-0.47-56.04-13.3-74.72-35.28c-0.44-0.52-0.88-1.04-1.31-1.57c-0.43-0.53-0.86-1.07-1.28-1.61
	c-1.66-2.13-3.24-4.33-4.74-6.62c-0.38-0.57-0.75-1.14-1.1-1.72c-0.37-0.58-0.73-1.16-1.08-1.75c-2.73-4.55-5.13-9.38-7.16-14.46
	C13.11,0.92,12.93,0.46,12.76,0H199.81z"/>
<path class="st0" d="M48.31,98.53c-17.2,6.87-36.14,2.22-48.29-10.28V26.34C4.23,22,9.41,18.46,15.39,16.07
	c22.77-9.09,48.6,2,57.69,24.77C82.17,63.61,71.08,89.44,48.31,98.53z"/>
<path class="st1" d="M9.71,37.29l0.23-2.03c0.59-5.39,3.07-10.58,6.97-14.59c3.73-3.84,8.63-6.44,13.8-7.33l2.02-0.35L34.8,25.1
	l-2.02,0.35c-2.72,0.46-5.17,1.76-7.11,3.75c-1.98,2.04-3.24,4.67-3.54,7.42l-0.23,2.03L9.71,37.29z"/>
<path class="st2" d="M18.38,22.1c3.35-3.44,7.75-5.9,12.68-6.74l1.38,8.07c-3.23,0.55-6.08,2.13-8.23,4.34
	c-2.25,2.32-3.74,5.34-4.11,8.62l-8.13-0.9C12.53,30.4,14.88,25.7,18.38,22.1L18.38,22.1z M15.45,19.24
	c-4.22,4.34-6.9,9.95-7.54,15.79L7.46,39.1l4.06,0.45l8.13,0.9l4.07,0.45l0.45-4.07c0.25-2.3,1.31-4.5,2.97-6.22
	c1.63-1.68,3.7-2.77,5.99-3.16l4.04-0.69l-0.69-4.04l-1.38-8.07l-0.69-4.04l-4.04,0.69C24.77,12.28,19.48,15.1,15.45,19.24
	L15.45,19.24z"/>
<g>
	<path class="st1" d="M28.33,44.7c-1.47-1.43-3.04-2.7-4.69-3.8c-1.44-0.98-2.95-1.83-4.5-2.56c-2.95-1.39-6.07-2.32-9.23-2.8
		c-0.68-0.12-1.35-0.2-2.03-0.26c-2.62-0.25-5.26-0.19-7.86,0.17v12.47c6.87-1.53,14.35,0.32,19.76,5.58
		c8.55,8.32,8.75,22.04,0.43,30.6C14.8,89.67,7.1,91.7,0.02,90.14v12.45c10.33,1.44,21.19-1.89,29-9.93
		C42.05,79.24,41.75,57.73,28.33,44.7z"/>
</g>
<g>
	<path class="st2" d="M29.76,43.23c-1.8-1.75-3.74-3.28-5.79-4.57c-0.63-0.41-1.28-0.79-1.93-1.14c-0.76-0.43-1.54-0.82-2.33-1.17
		c-2.42-1.12-4.93-1.94-7.49-2.47c-0.67-0.16-1.34-0.28-2.02-0.37c-0.67-0.12-1.35-0.2-2.03-0.26c-2.71-0.27-5.45-0.22-8.15,0.14
		v4.12c2.53-0.37,5.1-0.44,7.64-0.2c3.75,0.34,7.46,1.35,10.92,3.03c3,1.44,5.82,3.39,8.33,5.83c12.6,12.24,12.88,32.46,0.64,45.06
		c-7.41,7.62-17.74,10.74-27.53,9.29v4.13c10.87,1.42,22.25-2.12,30.46-10.57C44.3,79.86,43.98,57.05,29.76,43.23z M21.68,85.53
		c9.1-9.37,8.89-24.39-0.48-33.49c-5.8-5.65-13.79-7.71-21.18-6.22V50c6.34-1.55,13.32,0.1,18.33,4.97
		c7.75,7.53,7.92,19.96,0.39,27.7c-5.01,5.16-12.2,6.96-18.72,5.37v4.18C7.64,93.76,15.87,91.51,21.68,85.53z M21.2,52.04
		c-5.8-5.65-13.79-7.71-21.18-6.22V50c6.34-1.55,13.32,0.1,18.33,4.97c7.75,7.53,7.92,19.96,0.39,27.7
		c-5.01,5.16-12.2,6.96-18.72,5.37v4.18c7.62,1.54,15.85-0.71,21.66-6.69C30.78,76.16,30.57,61.14,21.2,52.04z M21.2,52.04
		c-5.8-5.65-13.79-7.71-21.18-6.22V50c6.34-1.55,13.32,0.1,18.33,4.97c7.75,7.53,7.92,19.96,0.39,27.7
		c-5.01,5.16-12.2,6.96-18.72,5.37v4.18c7.62,1.54,15.85-0.71,21.66-6.69C30.78,76.16,30.57,61.14,21.2,52.04z"/>
</g>
<g>
	<path class="st1" d="M97.64,0H84.86c2.77,7.55,1.19,16.36-4.79,22.51c-8.32,8.56-22.04,8.76-30.6,0.44
		C43.17,16.82,41.41,7.77,44.24,0H31.47c-0.83,3.69-1.03,7.49-0.61,11.23v0.01c0.08,0.68,0.17,1.35,0.29,2.02
		c0.59,3.39,1.69,6.69,3.3,9.8c0.01,0.01,0.01,0.03,0.02,0.04c0.67,1.29,1.43,2.53,2.27,3.74c0.01,0,0.01,0.01,0.01,0.01
		c1.21,1.73,2.6,3.37,4.17,4.9c13.41,13.04,34.92,12.73,47.95-0.68C97.14,22.56,100.04,10.79,97.64,0z"/>
</g>
<g>
	<path class="st2" d="M87.03,0h-4.34c2.85,7,1.5,15.33-4.09,21.08c-7.53,7.75-19.96,7.93-27.7,0.4C45,15.75,43.49,7.18,46.43,0
		h-4.36c-2.74,8.34-0.73,17.89,5.98,24.42c9.36,9.1,24.38,8.88,33.49-0.48C87.89,17.4,89.71,8.11,87.03,0z M87.03,0h-4.34
		c2.85,7,1.5,15.33-4.09,21.08c-7.53,7.75-19.96,7.93-27.7,0.4C45,15.75,43.49,7.18,46.43,0h-4.36c-2.74,8.34-0.73,17.89,5.98,24.42
		c9.36,9.1,24.38,8.88,33.49-0.48C87.89,17.4,89.71,8.11,87.03,0z M87.03,0h-4.34c2.85,7,1.5,15.33-4.09,21.08
		c-7.53,7.75-19.96,7.93-27.7,0.4C45,15.75,43.49,7.18,46.43,0h-4.36c-2.74,8.34-0.73,17.89,5.98,24.42
		c9.36,9.1,24.38,8.88,33.49-0.48C87.89,17.4,89.71,8.11,87.03,0z M99.73,0h-4.21c2.46,10.26-0.23,21.53-8.11,29.64
		c-12.25,12.6-32.47,12.89-45.07,0.65c-2.43-2.36-4.41-5.03-5.91-7.87c-0.01-0.01-0.01-0.03-0.02-0.04
		c-1.92-3.61-3.09-7.51-3.52-11.49C32.5,7.26,32.72,3.57,33.57,0H29.4c-0.82,3.83-0.99,7.76-0.54,11.63
		c0.07,0.68,0.17,1.36,0.29,2.04c0.12,0.67,0.25,1.34,0.41,2c0.62,2.67,1.56,5.28,2.8,7.78c0.31,0.64,0.65,1.27,1.01,1.9
		s0.75,1.26,1.16,1.87c1.4,2.13,3.05,4.15,4.96,6c14.22,13.82,37.03,13.49,50.85-0.73C98.99,23.59,102.1,11.32,99.73,0z"/>
</g>
<circle class="st1" cx="87.18" cy="173.67" r="71.24"/>
<g>
	<path class="st0" d="M127.16,250H104.4l-1.17-6.62l1.76-0.31l0.25-0.05c0.66-0.11,1.31-0.2,1.97-0.26
		c4.73-0.43,9.61,0.55,13.94,2.84C123.37,246.76,125.4,248.26,127.16,250z"/>
</g>
<g>
	<path class="st3" d="M122.37,243.84c-4.81-2.54-10.24-3.6-15.49-3.04c-0.6,0.05-1.19,0.14-1.79,0.24l-0.42,0.08l-1.83,0.32
		l-1.78,0.32l0.71,4.02l0.74,4.22h4.16l-0.87-4.93c0.54-0.09,1.08-0.17,1.62-0.22c4.52-0.45,9.07,0.51,13.04,2.61
		c1.36,0.72,2.65,1.56,3.84,2.54h5.89C128,247.51,125.34,245.41,122.37,243.84z"/>
</g>
<g>
	<path class="st0" d="M104.99,243.07c-0.09-0.66-0.2-1.31-0.32-1.95c-1.87-9.73-7.98-18.56-17.4-23.54
		c-16.49-8.71-36.97-2.39-45.68,14.09c-3.09,5.84-4.28,12.18-3.8,18.33h12.27c-0.5-4.2,0.23-8.59,2.35-12.61
		c5.55-10.52,18.62-14.55,29.14-8.99c8.1,4.27,12.35,13.01,11.35,21.6h12.29C105.36,247.68,105.29,245.36,104.99,243.07z"/>
</g>
<g>
	<path class="st3" d="M82.64,226.58c-11.55-6.1-25.91-1.67-32.01,9.87c-2.28,4.32-3.09,9.03-2.6,13.55h4.13
		c-0.51-3.87,0.13-7.92,2.09-11.63c5.05-9.56,16.92-13.22,26.48-8.17c7.41,3.91,11.28,11.94,10.28,19.8h4.12
		C96.1,240.67,91.44,231.23,82.64,226.58z M82.64,226.58c-11.55-6.1-25.91-1.67-32.01,9.87c-2.28,4.32-3.09,9.03-2.6,13.55h4.13
		c-0.51-3.87,0.13-7.92,2.09-11.63c5.05-9.56,16.92-13.22,26.48-8.17c7.41,3.91,11.28,11.94,10.28,19.8h4.12
		C96.1,240.67,91.44,231.23,82.64,226.58z M107.42,244.85c-0.05-0.7-0.12-1.4-0.21-2.09c-0.09-0.66-0.2-1.31-0.33-1.96
		c-1.98-10.37-8.48-19.78-18.51-25.08c-17.53-9.26-39.33-2.53-48.59,15c-3.24,6.14-4.53,12.81-4.07,19.28h4.1
		c-0.46-5.82,0.66-11.84,3.59-17.37c8.2-15.53,27.53-21.5,43.06-13.29c8.86,4.68,14.6,12.96,16.38,22.1c0.55,2.8,0.73,5.68,0.5,8.56
		h4.11C107.57,248.27,107.56,246.55,107.42,244.85z M82.64,226.58c-11.55-6.1-25.91-1.67-32.01,9.87c-2.28,4.32-3.09,9.03-2.6,13.55
		h4.13c-0.51-3.87,0.13-7.92,2.09-11.63c5.05-9.56,16.92-13.22,26.48-8.17c7.41,3.91,11.28,11.94,10.28,19.8h4.12
		C96.1,240.67,91.44,231.23,82.64,226.58z M82.64,226.58c-11.55-6.1-25.91-1.67-32.01,9.87c-2.28,4.32-3.09,9.03-2.6,13.55h4.13
		c-0.51-3.87,0.13-7.92,2.09-11.63c5.05-9.56,16.92-13.22,26.48-8.17c7.41,3.91,11.28,11.94,10.28,19.8h4.12
		C96.1,240.67,91.44,231.23,82.64,226.58z M82.64,226.58c-11.55-6.1-25.91-1.67-32.01,9.87c-2.28,4.32-3.09,9.03-2.6,13.55h4.13
		c-0.51-3.87,0.13-7.92,2.09-11.63c5.05-9.56,16.92-13.22,26.48-8.17c7.41,3.91,11.28,11.94,10.28,19.8h4.12
		C96.1,240.67,91.44,231.23,82.64,226.58z M82.64,226.58c-11.55-6.1-25.91-1.67-32.01,9.87c-2.28,4.32-3.09,9.03-2.6,13.55h4.13
		c-0.51-3.87,0.13-7.92,2.09-11.63c5.05-9.56,16.92-13.22,26.48-8.17c7.41,3.91,11.28,11.94,10.28,19.8h4.12
		C96.1,240.67,91.44,231.23,82.64,226.58z M82.64,226.58c-11.55-6.1-25.91-1.67-32.01,9.87c-2.28,4.32-3.09,9.03-2.6,13.55h4.13
		c-0.51-3.87,0.13-7.92,2.09-11.63c5.05-9.56,16.92-13.22,26.48-8.17c7.41,3.91,11.28,11.94,10.28,19.8h4.12
		C96.1,240.67,91.44,231.23,82.64,226.58z"/>
</g>
<circle class="st2" cx="96.06" cy="96.58" r="49.21"/>
<path class="st1" d="M604.38,240.65c0,3.17-0.21,6.29-0.63,9.35H465.94c-0.42-3.06-0.63-6.18-0.63-9.35
	c0-12.59,3.35-24.41,9.2-34.59c12-20.88,34.53-34.95,60.34-34.95c16.59,0,31.83,5.82,43.78,15.52
	C594.34,199.38,604.38,218.84,604.38,240.65z"/>
<path class="st2" d="M503.87,250H272.32c7-17.83,18.01-33.65,31.91-46.35c22.11-20.21,51.54-32.54,83.86-32.54
	c33.58,0,64.05,13.31,86.42,34.95C487.21,218.32,497.3,233.28,503.87,250z"/>
<path class="st3" d="M340.5,250H196.36c3.67-13.99,11.32-26.36,21.66-35.86c13.27-12.2,30.97-19.64,50.41-19.64
	c12.98,0,25.18,3.32,35.8,9.15C321.93,213.36,335.25,230.04,340.5,250z"/>
<path class="st0" d="M362,216.66c0,13.07-4.69,25.05-12.5,34.34h-81.93c-7.8-9.29-12.5-21.27-12.5-34.34
	c0-29.53,23.94-53.47,53.46-53.47C338.06,163.19,362,187.13,362,216.66z"/>
<path class="st3" d="M720.25,0c-0.78,4.65-2.02,9.29-3.74,13.87c-0.29,0.77-0.59,1.52-0.9,2.27c-14.08,34.15-50.93,52.51-86.2,44.03
	c-2.97-0.71-5.93-1.62-8.86-2.72c-22.17-8.31-38.04-26.06-44.77-46.98c-1.1-3.41-1.96-6.91-2.55-10.47H720.25z"/>
<path class="st0" d="M640.49,42.34c-2.56,6.83-6.37,12.83-11.08,17.83c-14.33,15.25-36.95,21.25-57.76,13.44
	c-13.6-5.11-23.9-15.16-29.61-27.34c-5.91-12.59-6.93-27.46-1.66-41.51c0.61-1.64,1.3-3.22,2.06-4.76h95.99
	C644.7,12.76,645.88,27.98,640.49,42.34z"/>
<circle class="st2" cx="806.36" cy="197.76" r="52.14"/>
<path class="st1" d="M895.21,198.57c1.61,0,3.2,0.04,4.79,0.12V250h-90.36c6.83-12.86,16.5-23.98,28.14-32.57
	c0.19-0.15,0.37-0.28,0.56-0.42C854.31,205.41,873.96,198.57,895.21,198.57z"/>
<rect x="902" y="306" class="st4" width="0.02" height="44.27"/>
<path class="st3" d="M900,36v210.95c-24.11-2.69-45.77-13.45-62.22-29.52c-0.15-0.13-0.3-0.28-0.44-0.42
	c-19.51-19.24-31.59-45.97-31.59-75.53c0-19.14,5.06-37.08,13.93-52.58c14.91-26.12,40.6-45.28,71.01-51.44h0.01
	C893.76,36.84,896.85,36.35,900,36z"/>
<path class="st2" d="M579.65,0c-1.03,3.61-2.33,7.11-3.87,10.47c-6.98,15.33-18.91,27.94-33.74,35.8
	c-10.62,5.63-22.73,8.81-35.59,8.81c-34.75,0-64.06-23.27-73.2-55.08H579.65z"/>
<g>
	<path class="st0" d="M430.35,15.28l1.75-1.05c4.63-2.79,10.23-3.97,15.78-3.31c5.3,0.63,10.33,2.94,14.16,6.49l1.5,1.39l-8.34,8.97
		l-1.5-1.39c-2.01-1.88-4.52-3.03-7.27-3.36c-2.81-0.33-5.66,0.27-8.02,1.69l-1.75,1.05L430.35,15.28z"/>
</g>
<g>
	<path class="st3" d="M447.89,12.9c4.77,0.57,9.39,2.58,13.06,5.98l-5.58,6c-2.4-2.23-5.38-3.54-8.45-3.9
		c-3.21-0.38-6.51,0.27-9.34,1.97l-4.22-7.01C437.74,13.29,442.9,12.3,447.89,12.9L447.89,12.9z M448.38,8.83
		c-6.01-0.72-12.1,0.56-17.13,3.6l-3.5,2.11l2.11,3.5l4.22,7.01l2.11,3.51l3.51-2.11c1.98-1.19,4.37-1.69,6.75-1.41
		c2.32,0.28,4.45,1.26,6.15,2.84l3,2.79l2.79-3l5.58-6l2.79-3l-3-2.79C459.57,12.02,454.12,9.52,448.38,8.83L448.38,8.83z"/>
</g>
<g>
	<path class="st0" d="M435.89,28.06c-0.1-1.6-0.33-3.17-0.68-4.71c-0.67-3.17-1.81-6.19-3.33-8.99c-0.32-0.58-0.65-1.14-1.01-1.7
		C427.5,7.24,422.62,2.81,416.75,0h-29.09c-10.11,4.82-17.62,14.58-19.04,26.51c-2.2,18.51,11.06,35.35,29.57,37.56
		c18.51,2.2,35.36-11.06,37.56-29.57C436.01,32.32,436.06,30.17,435.89,28.06z M423.6,33.05c-1.4,11.81-12.15,20.27-23.96,18.87
		c-11.81-1.41-20.27-12.15-18.87-23.96c1.41-11.81,12.16-20.27,23.97-18.87C416.55,10.5,425.01,21.24,423.6,33.05z"/>
</g>
<path class="st3" d="M438.12,27.4c-0.06-0.8-0.16-1.58-0.29-2.36c-0.12-0.82-0.27-1.63-0.46-2.44c-0.58-2.59-1.45-5.09-2.59-7.45
	c-0.28-0.63-0.6-1.25-0.94-1.87c-0.32-0.58-0.65-1.16-1.01-1.72C429.94,6.9,425.99,2.92,421.29,0h-9.85
	c7.55,2.25,13.82,7.19,17.85,13.61c2,3.19,3.45,6.74,4.22,10.5c0.69,3.26,0.85,6.69,0.44,10.17c-2.08,17.45-17.97,29.96-35.42,27.88
	c-17.44-2.08-29.95-17.96-27.88-35.41C372.2,13.78,381.38,3.54,393.16,0h-9.84c-8.95,5.57-15.39,15.01-16.73,26.27
	c-2.34,19.69,11.77,37.61,31.46,39.95c19.69,2.35,37.62-11.76,39.96-31.45C438.31,32.27,438.34,29.81,438.12,27.4z M378.78,27.72
	c-1.54,12.97,7.75,24.77,20.72,26.31c12.97,1.55,24.78-7.75,26.32-20.71C427.36,20.35,418.07,8.55,405.1,7
	C392.13,5.46,380.32,14.75,378.78,27.72z M404.61,11.07c10.73,1.27,18.42,11.04,17.15,21.76c-1.28,10.73-11.05,18.42-21.78,17.14
	c-10.72-1.28-18.41-11.04-17.14-21.77C384.12,17.48,393.89,9.79,404.61,11.07z M405.1,7c-12.97-1.54-24.78,7.75-26.32,20.72
	c-1.54,12.97,7.75,24.77,20.72,26.31c12.97,1.55,24.78-7.75,26.32-20.71C427.36,20.35,418.07,8.55,405.1,7z M421.76,32.83
	c-1.28,10.73-11.05,18.42-21.78,17.14c-10.72-1.28-18.41-11.04-17.14-21.77c1.28-10.72,11.05-18.41,21.77-17.13
	C415.34,12.34,423.03,22.11,421.76,32.83z M405.1,7c-12.97-1.54-24.78,7.75-26.32,20.72c-1.54,12.97,7.75,24.77,20.72,26.31
	c12.97,1.55,24.78-7.75,26.32-20.71C427.36,20.35,418.07,8.55,405.1,7z M421.76,32.83c-1.28,10.73-11.05,18.42-21.78,17.14
	c-10.72-1.28-18.41-11.04-17.14-21.77c1.28-10.72,11.05-18.41,21.77-17.13C415.34,12.34,423.03,22.11,421.76,32.83z"/>
<g>
	<path class="st0" d="M483.58,74.34C465,72.13,451.7,55.23,453.91,36.66s19.11-31.88,37.69-29.67s31.88,19.11,29.67,37.68
		S502.15,76.55,483.58,74.34z M490.14,19.18c-11.85-1.41-22.63,7.08-24.04,18.93s7.08,22.63,18.93,24.04
		c11.85,1.41,22.63-7.08,24.04-18.93S501.99,20.59,490.14,19.18z"/>
</g>
<g>
	<path class="st3" d="M491.35,9.03c17.45,2.08,29.96,17.96,27.88,35.41c-2.08,17.44-17.96,29.95-35.41,27.88
		c-17.45-2.08-29.96-17.96-27.88-35.41S473.9,6.95,491.35,9.03L491.35,9.03z M484.78,64.18c12.97,1.54,24.77-7.75,26.32-20.72
		c1.54-12.97-7.75-24.77-20.72-26.31s-24.77,7.75-26.32,20.72S471.82,62.64,484.78,64.18L484.78,64.18z M491.83,4.96
		c-19.69-2.34-37.62,11.77-39.96,31.46s11.77,37.61,31.46,39.96s37.62-11.77,39.96-31.46C525.64,25.23,511.52,7.31,491.83,4.96
		L491.83,4.96z M485.27,60.12c-10.73-1.28-18.42-11.04-17.14-21.77c1.28-10.73,11.04-18.41,21.77-17.14
		c10.73,1.28,18.42,11.04,17.14,21.77C505.76,53.71,496,61.4,485.27,60.12L485.27,60.12z"/>
</g>
<g>
	<path class="st1" d="M655.19,222.47l0.72-1.92c1.89-5.08,5.56-9.5,10.33-12.44c4.56-2.81,9.95-4.13,15.17-3.73l2.04,0.16
		l-0.96,12.25l-2.04-0.16c-2.75-0.22-5.45,0.44-7.81,1.9c-2.42,1.49-4.28,3.74-5.25,6.32l-0.72,1.92L655.19,222.47z"/>
</g>
<g>
	<path class="st2" d="M667.31,209.86c4.09-2.52,8.96-3.82,13.94-3.43l-0.64,8.17c-3.26-0.26-6.41,0.57-9.05,2.2
		c-2.75,1.7-4.94,4.26-6.09,7.35l-7.66-2.86C659.61,216.48,663.03,212.5,667.31,209.86L667.31,209.86z M665.17,206.37
		c-5.16,3.18-9.13,7.96-11.18,13.47l-1.43,3.83l3.83,1.43l7.66,2.86l3.83,1.43l1.43-3.83c0.81-2.16,2.37-4.05,4.41-5.3
		c1.99-1.23,4.27-1.78,6.58-1.6l4.08,0.32l0.32-4.08l0.64-8.17l0.32-4.08l-4.08-0.31C675.92,201.91,670.09,203.34,665.17,206.37
		L665.17,206.37z"/>
</g>
<g>
	<path class="st1" d="M671.43,234.21c-1.08-1.74-2.28-3.35-3.61-4.83c-1.16-1.3-2.41-2.5-3.74-3.58c-2.52-2.08-5.31-3.75-8.27-5
		c-0.62-0.26-1.26-0.51-1.9-0.73c-9.35-3.32-20.07-2.54-29.15,3.06c-9.76,6.02-15.4,16.21-16.04,26.87h12.3
		c0.61-6.53,4.17-12.71,10.18-16.42c10.16-6.26,23.51-3.09,29.77,7.07c1.81,2.93,2.83,6.13,3.13,9.35h12.3
		C676.09,244.57,674.48,239.15,671.43,234.21z"/>
</g>
<g>
	<path class="st2" d="M673.17,233.13c-1.32-2.14-2.83-4.09-4.5-5.85c-0.51-0.55-1.04-1.08-1.59-1.58c-0.63-0.59-1.28-1.16-1.95-1.69
		c-2.07-1.67-4.31-3.09-6.67-4.25c-0.61-0.3-1.24-0.59-1.87-0.85c-0.62-0.27-1.26-0.51-1.9-0.74c-9.94-3.55-21.34-2.73-31,3.22
		c-10.38,6.4-16.38,17.26-17.03,28.61h4.1c0.65-9.97,5.94-19.49,15.07-25.12c8.52-5.25,18.58-6,27.36-2.89
		c3.55,1.25,6.9,3.13,9.85,5.6c2.55,2.14,4.8,4.71,6.64,7.69c2.84,4.61,4.36,9.66,4.67,14.72h4.1
		C678.14,244.2,676.42,238.41,673.17,233.13z M630.13,231.84c-6.64,4.1-10.54,10.94-11.16,18.16h4.11
		c0.61-5.84,3.82-11.36,9.2-14.67c9.19-5.67,21.29-2.8,26.95,6.39c1.6,2.6,2.52,5.43,2.81,8.28h4.11c-0.3-3.58-1.42-7.16-3.43-10.42
		C655.86,228.46,641.25,224.99,630.13,231.84z M662.72,239.58c-6.86-11.12-21.47-14.59-32.59-7.74
		c-6.64,4.1-10.54,10.94-11.16,18.16h4.11c0.61-5.84,3.82-11.36,9.2-14.67c9.19-5.67,21.29-2.8,26.95,6.39
		c1.6,2.6,2.52,5.43,2.81,8.28h4.11C665.85,246.42,664.73,242.84,662.72,239.58z M662.72,239.58c-6.86-11.12-21.47-14.59-32.59-7.74
		c-6.64,4.1-10.54,10.94-11.16,18.16h4.11c0.61-5.84,3.82-11.36,9.2-14.67c9.19-5.67,21.29-2.8,26.95,6.39
		c1.6,2.6,2.52,5.43,2.81,8.28h4.11C665.85,246.42,664.73,242.84,662.72,239.58z"/>
</g>
<g>
	<path class="st1" d="M733.46,235.81c-15.92,9.81-36.85,4.85-46.66-11.07s-4.84-36.85,11.08-46.66
		c15.92-9.81,36.85-4.85,46.66,11.07S749.38,226,733.46,235.81z M704.32,188.52c-10.16,6.26-13.33,19.61-7.07,29.77
		s19.61,13.33,29.77,7.06c10.16-6.26,13.33-19.61,7.07-29.77C727.83,185.43,714.47,182.26,704.32,188.52z"/>
</g>
<g>
	<path class="st2" d="M698.95,179.81c14.96-9.22,34.63-4.55,43.85,10.41s4.55,34.63-10.41,43.85c-14.96,9.22-34.63,4.55-43.85-10.41
		C679.32,208.71,683.99,189.03,698.95,179.81L698.95,179.81z M728.09,227.1c11.12-6.85,14.59-21.47,7.74-32.59
		c-6.85-11.12-21.47-14.58-32.59-7.73c-11.12,6.85-14.59,21.47-7.74,32.59C702.36,230.49,716.98,233.95,728.09,227.1L728.09,227.1z
		 M696.8,176.33c-16.88,10.4-22.15,32.6-11.75,49.48c10.4,16.88,32.6,22.15,49.48,11.74c16.88-10.4,22.15-32.6,11.75-49.48
		C735.88,171.19,713.68,165.93,696.8,176.33L696.8,176.33z M725.95,223.62c-9.2,5.67-21.29,2.8-26.96-6.4
		c-5.67-9.2-2.8-21.29,6.4-26.96s21.29-2.8,26.96,6.4C738.01,205.86,735.14,217.95,725.95,223.62L725.95,223.62z"/>
</g>
<path class="st4" d="M130.86,250c-0.08,0.17-0.16,0.33-0.23,0.5c-0.14-0.17-0.29-0.33-0.44-0.5H130.86z"/>
<path class="st4" d="M900.15,0c-0.05,0.07-0.1,0.15-0.15,0.22V0H900.15z"/>
</svg>
