<?xml version="1.0" encoding="utf-8"?>
<!-- Generator: Adobe Illustrator 24.1.2, SVG Export Plug-In . SVG Version: 6.00 Build 0)  -->
<svg version="1.1" id="Layer_1" xmlns="http://www.w3.org/2000/svg" xmlns:xlink="http://www.w3.org/1999/xlink" x="0px" y="0px"
	 viewBox="0 0 900 450" style="enable-background:new 0 0 900 450;" xml:space="preserve">
<style type="text/css">
	.st0{fill:#DB62C9;}
	.st1{fill:#A2ED38;}
	.st2{fill:#8A0D8B;}
	.st3{fill:#F49E3F;}
</style>
<circle class="st0" cx="192.88" cy="143.18" r="93.58"/>
<circle class="st1" cx="819.15" cy="114.6" r="74.05"/>
<path class="st2" d="M150.51,388.68c0,22.71-6.88,43.81-18.68,61.32H0V286.5c12.56-5,26.25-7.74,40.59-7.74
	C101.3,278.76,150.51,327.97,150.51,388.68z"/>
<circle class="st3" cx="658.08" cy="313.4" r="84.87"/>
<g>
	<g>
		<path class="st0" d="M818.3,102.69l0.74-1.9c1.95-5.04,5.66-9.4,10.45-12.27c4.58-2.74,9.97-3.99,15.17-3.53l2.04,0.18l-1.11,12.2
			l-2.03-0.18c-2.74-0.25-5.43,0.37-7.81,1.79c-2.43,1.46-4.31,3.67-5.31,6.24l-0.74,1.9L818.3,102.69z"/>
	</g>
	<g>
		<path class="st3" d="M830.73,90.07c4.12-2.47,9.01-3.7,13.98-3.26l-0.74,8.16c-3.26-0.3-6.42,0.49-9.07,2.08
			c-2.77,1.66-4.99,4.2-6.18,7.27l-7.62-2.96C822.94,96.59,826.41,92.66,830.73,90.07L830.73,90.07z M828.62,86.56
			c-5.19,3.11-9.22,7.85-11.35,13.33l-1.48,3.81l3.81,1.48l7.62,2.96l3.82,1.48l1.48-3.82c0.84-2.15,2.42-4.02,4.47-5.24
			c2.01-1.2,4.29-1.73,6.6-1.52l4.08,0.37l0.37-4.08l0.74-8.16l0.37-4.08l-4.08-0.37C839.43,82.23,833.58,83.59,828.62,86.56
			L828.62,86.56z"/>
	</g>
	<g>
		<path class="st0" d="M822.71,160.95c-15.99,9.58-36.79,4.37-46.37-11.62c-9.58-15.99-4.36-36.79,11.63-46.37
			s36.79-4.37,46.37,11.62S838.7,151.37,822.71,160.95z M794.26,113.46c-10.2,6.11-13.53,19.38-7.42,29.58
			c6.11,10.2,19.38,13.53,29.58,7.41s13.53-19.38,7.42-29.58S804.46,107.35,794.26,113.46z"/>
	</g>
	<g>
		<path class="st3" d="M789.06,104.57c15.07-9.03,34.69-4.11,43.72,10.95s4.11,34.68-10.96,43.71s-34.69,4.11-43.72-10.95
			S773.99,113.6,789.06,104.57L789.06,104.57z M817.61,152.22c11.2-6.71,14.86-21.28,8.15-32.49c-6.71-11.2-21.29-14.85-32.49-8.14
			s-14.86,21.28-8.15,32.49C791.83,155.28,806.41,158.93,817.61,152.22L817.61,152.22z M786.96,101.06
			c-17.01,10.19-22.56,32.32-12.37,49.33c10.19,17.01,32.32,22.55,49.33,12.36c17.01-10.19,22.56-32.32,12.37-49.33
			C826.1,96.41,803.97,90.86,786.96,101.06L786.96,101.06z M815.51,148.7c-9.27,5.55-21.32,2.53-26.88-6.73
			c-5.55-9.27-2.53-21.32,6.74-26.87s21.32-2.53,26.88,6.73S824.78,143.15,815.51,148.7L815.51,148.7z"/>
	</g>
	<g>
		<path class="st0" d="M861.68,58.67c-9.05,5.42-14.65,14.42-16.09,24.11c-0.12,0.75-0.21,1.51-0.26,2.27
			c-0.27,3.11-0.09,6.28,0.53,9.4v0.01c0.34,1.66,0.8,3.3,1.4,4.92c0.71,1.99,1.64,3.93,2.76,5.81
			c9.61,16.04,30.48,21.27,46.52,11.66c1.22-0.73,2.37-1.52,3.46-2.38V93.38c-1.41,5.23-4.76,9.94-9.77,12.94
			c-10.23,6.13-23.55,2.8-29.68-7.44s-2.79-23.55,7.44-29.68c10.24-6.13,23.55-2.8,29.69,7.44c1.04,1.74,1.81,3.56,2.32,5.42V61.04
			C889.26,52.66,874.04,51.27,861.68,58.67z"/>
	</g>
	<g>
		<path class="st3" d="M899.43,75.59c-6.71-11.21-21.29-14.86-32.49-8.15c-11.2,6.72-14.86,21.29-8.14,32.49
			c6.71,11.2,21.28,14.85,32.48,8.14c3.83-2.29,6.77-5.49,8.72-9.17V76.61C899.82,76.27,899.63,75.93,899.43,75.59z M862.31,97.83
			c-5.56-9.27-2.53-21.32,6.74-26.88c9.26-5.55,21.32-2.53,26.87,6.74c5.55,9.26,2.53,21.32-6.74,26.87
			C879.91,110.12,867.86,107.09,862.31,97.83z M899.43,75.59c-6.71-11.21-21.29-14.86-32.49-8.15c-11.2,6.72-14.86,21.29-8.14,32.49
			c6.71,11.2,21.28,14.85,32.48,8.14c3.83-2.29,6.77-5.49,8.72-9.17V76.61C899.82,76.27,899.63,75.93,899.43,75.59z M862.31,97.83
			c-5.56-9.27-2.53-21.32,6.74-26.88c9.26-5.55,21.32-2.53,26.87,6.74c5.55,9.26,2.53,21.32-6.74,26.87
			C879.91,110.12,867.86,107.09,862.31,97.83z M860.63,56.91c-9.64,5.79-15.6,15.4-17.1,25.74c-0.11,0.75-0.19,1.5-0.25,2.26
			c-0.05,0.61-0.09,1.22-0.1,1.82c-0.09,2.75,0.14,5.51,0.7,8.23c0.16,0.77,0.34,1.53,0.55,2.3c0.17,0.64,0.37,1.27,0.58,1.91
			c0.81,2.42,1.89,4.79,3.26,7.07c10.19,17.01,32.31,22.56,49.32,12.36c0.83-0.5,1.64-1.02,2.41-1.58v-5.2
			c-1.38,1.2-2.89,2.3-4.51,3.27c-15.07,9.03-34.69,4.12-43.71-10.95c-1.75-2.92-2.97-6-3.7-9.14v-0.01
			c-0.93-3.98-1.06-8.06-0.45-12.02c1.38-9.07,6.64-17.47,15.11-22.55c12.1-7.25,27.13-5.51,37.26,3.27v-5.2
			C888.71,50.46,873.26,49.34,860.63,56.91z M899.43,75.59c-6.71-11.21-21.29-14.86-32.49-8.15c-11.2,6.72-14.86,21.29-8.14,32.49
			c6.71,11.2,21.28,14.85,32.48,8.14c3.83-2.29,6.77-5.49,8.72-9.17V76.61C899.82,76.27,899.63,75.93,899.43,75.59z M862.31,97.83
			c-5.56-9.27-2.53-21.32,6.74-26.88c9.26-5.55,21.32-2.53,26.87,6.74c5.55,9.26,2.53,21.32-6.74,26.87
			C879.91,110.12,867.86,107.09,862.31,97.83z"/>
	</g>
</g>
<g>
	<g>
		<g>
			<g>
				<path class="st1" d="M672.46,370.83l1.14-1.7c3.03-4.5,7.62-7.95,12.95-9.7c5.09-1.67,10.64-1.7,15.62-0.09l1.95,0.63
					l-3.78,11.69l-1.95-0.63c-2.62-0.85-5.4-0.84-8.04,0.02c-2.7,0.89-5.03,2.64-6.58,4.93l-1.14,1.7L672.46,370.83z"/>
			</g>
			<g>
				<path class="st2" d="M687.19,361.38c4.56-1.5,9.6-1.63,14.36-0.09l-2.52,7.79c-3.11-1.01-6.37-0.94-9.31,0.03
					c-3.07,1.01-5.79,2.99-7.64,5.73l-6.78-4.57C678.15,366.03,682.41,362.95,687.19,361.38 M685.91,357.49
					c-5.75,1.89-10.73,5.62-14.01,10.49l-2.28,3.39l3.39,2.28l6.78,4.57l3.39,2.29l2.29-3.39c1.29-1.92,3.25-3.38,5.52-4.13
					c2.22-0.73,4.56-0.74,6.77-0.02l3.89,1.26l1.26-3.9l2.52-7.79l1.26-3.9l-3.9-1.26C697.4,355.65,691.4,355.69,685.91,357.49
					L685.91,357.49z"/>
			</g>
		</g>
	</g>
	<g>
		<g>
			<g>
				<path class="st1" d="M663.88,428.82c-17.77,5.84-36.97-3.86-42.81-21.63c-5.84-17.77,3.87-36.97,21.64-42.8
					c17.77-5.84,36.97,3.86,42.81,21.63C691.36,403.79,681.65,422.99,663.88,428.82z M646.54,376.05
					c-11.34,3.72-17.53,15.97-13.81,27.31s15.97,17.53,27.31,13.8s17.53-15.97,13.81-27.31S657.88,372.33,646.54,376.05z"/>
			</g>
			<g>
				<path class="st2" d="M643.35,366.33c16.69-5.48,34.74,3.64,40.22,20.33s-3.64,34.74-20.33,40.22
					c-16.69,5.48-34.74-3.64-40.22-20.33C617.54,389.86,626.66,371.82,643.35,366.33 M660.69,419.1
					c12.41-4.08,19.19-17.48,15.11-29.89c-4.08-12.41-17.49-19.18-29.89-15.11c-12.41,4.08-19.19,17.48-15.11,29.89
					C634.87,416.4,648.28,423.18,660.69,419.1 M642.07,362.44c-18.84,6.19-29.13,26.55-22.94,45.39
					c6.19,18.84,26.55,29.13,45.39,22.94s29.13-26.55,22.94-45.39C681.27,366.55,660.91,356.26,642.07,362.44L642.07,362.44z
					 M659.41,415.22c-10.26,3.37-21.36-2.23-24.73-12.5c-3.37-10.26,2.24-21.35,12.5-24.73s21.36,2.23,24.73,12.5
					C675.28,400.75,669.67,411.84,659.41,415.22L659.41,415.22z"/>
			</g>
		</g>
	</g>
	<g>
		<g>
			<g>
				<path class="st1" d="M745.48,402.02c-17.77,5.84-36.97-3.86-42.81-21.63c-5.84-17.77,3.87-36.97,21.64-42.8
					c17.77-5.84,36.97,3.86,42.81,21.63S763.24,396.18,745.48,402.02z M728.14,349.25c-11.34,3.72-17.53,15.97-13.81,27.31
					s15.97,17.53,27.31,13.8s17.53-15.97,13.81-27.31S739.48,345.52,728.14,349.25z"/>
			</g>
			<g>
				<path class="st2" d="M724.95,339.53c16.69-5.48,34.74,3.64,40.22,20.33c5.48,16.69-3.64,34.74-20.33,40.22
					c-16.69,5.48-34.74-3.64-40.22-20.33C699.13,363.06,708.25,345.01,724.95,339.53 M742.28,392.3
					c12.41-4.08,19.19-17.48,15.11-29.89c-4.08-12.41-17.49-19.18-29.89-15.11c-12.41,4.08-19.19,17.48-15.11,29.89
					C716.47,389.6,729.88,396.38,742.28,392.3 M723.67,335.64c-18.84,6.19-29.13,26.55-22.94,45.39
					c6.19,18.84,26.55,29.13,45.39,22.94s29.13-26.55,22.94-45.39S742.51,329.45,723.67,335.64L723.67,335.64z M741.01,388.41
					c-10.26,3.37-21.36-2.23-24.73-12.5c-3.37-10.26,2.24-21.35,12.5-24.73c10.26-3.37,21.36,2.23,24.73,12.5
					S751.27,385.04,741.01,388.41L741.01,388.41z"/>
			</g>
		</g>
	</g>
</g>
<circle class="st0" cx="732.2" cy="268.28" r="37.63"/>
<circle class="st1" cx="192.88" cy="379.11" r="69.54"/>
<circle class="st2" cx="732.21" cy="67.55" r="52.14"/>
<circle class="st1" cx="319.07" cy="97.46" r="68.1"/>
<circle class="st3" cx="294.89" cy="225.89" r="74.53"/>
<g>
	<g>
		<g>
			<g>
				<path class="st1" d="M301.08,197.55l1.85-1.44c4.9-3.82,11.14-5.93,17.56-5.93c6.14,0,12.19,1.95,17.04,5.49l1.9,1.38
					l-8.3,11.38l-1.9-1.38c-2.55-1.87-5.58-2.85-8.76-2.85c-3.26,0-6.42,1.07-8.93,3.01l-1.85,1.44L301.08,197.55z"/>
			</g>
			<g>
				<path class="st2" d="M320.49,192.53c5.5,0,11.04,1.66,15.67,5.03l-5.53,7.58c-3.03-2.21-6.6-3.3-10.14-3.3
					c-3.7,0-7.38,1.19-10.36,3.51l-5.75-7.4C309,194.36,314.73,192.53,320.49,192.53 M320.49,187.84c-6.94,0-13.69,2.28-19,6.42
					l-3.7,2.88l2.88,3.7l5.75,7.4l2.88,3.7l3.7-2.88c2.09-1.63,4.75-2.52,7.48-2.52c2.68,0,5.23,0.83,7.38,2.39l3.79,2.77l2.77-3.79
					l5.53-7.58l2.77-3.79l-3.8-2.76C333.66,189.95,327.12,187.84,320.49,187.84L320.49,187.84z"/>
			</g>
		</g>
	</g>
	<g>
		<path class="st2" d="M206.65,257.94c-8.54,3.19-19.32,4.78-32.37,4.78c-2.2,0-4.17-0.92-5.91-2.75c-1.74-1.83-2.61-3.79-2.61-5.88
			v-58.25c-0.11-2.49-0.2-4.98-0.27-7.47c-0.11-2.82-0.02-5.2,0.27-7.14c0.51-3.44,3.72-5.53,9.62-6.26
			c2.78-0.81,7.4-1.21,13.85-1.21c6.92,0,13.55,2.23,19.89,6.7c7.44,5.2,11.16,11.7,11.16,19.51c0,4.21-0.77,7.77-2.31,10.66
			c-1.21,2.34-3.32,4.85-6.32,7.53c3.55,1.72,6.7,4.32,9.45,7.8c3.11,3.88,4.67,7.75,4.67,11.59c0,4.87-2.66,9.49-7.97,13.85
			C214.25,254.29,210.53,256.47,206.65,257.94z M189.23,188.64c-4.73,0-7.57,0.04-8.52,0.11l0.05,11.65l-0.05,11.54
			c3.33,0.4,5.84,0.53,7.53,0.38c11.21-0.88,16.82-5,16.82-12.36c0-2.6-1.65-5.11-4.95-7.53
			C196.7,189.91,193.08,188.64,189.23,188.64z M195.66,227.49c-3.33,0-8.32-0.13-14.95-0.38v20.55c6.3-0.33,13.13-1.54,20.5-3.63
			c6.45-1.83,9.63-3.81,9.56-5.93c-0.11-2.82-2.18-5.33-6.21-7.53C201.41,228.81,198.44,227.79,195.66,227.49z"/>
		<path class="st1" d="M174.28,264.88c-2.8,0-5.31-1.15-7.47-3.42c-2.13-2.24-3.2-4.71-3.2-7.36v-58.25
			c-0.11-2.41-0.2-4.91-0.27-7.42c-0.11-2.91-0.01-5.44,0.3-7.52c0.67-4.5,4.53-7.22,11.48-8.08c2.68-0.81,7.4-1.23,14.12-1.23
			c7.34,0,14.45,2.39,21.13,7.1c8.01,5.6,12.07,12.76,12.07,21.27c0,4.55-0.86,8.48-2.56,11.67c-1,1.96-2.53,3.96-4.61,6.07
			c2.78,1.77,5.3,4.09,7.53,6.91c3.4,4.25,5.13,8.6,5.13,12.93c0,5.52-2.95,10.74-8.75,15.51c-3.71,3.03-7.67,5.35-11.76,6.9
			c0,0,0,0-0.01,0C198.66,263.22,187.52,264.88,174.28,264.88z M189.23,175.9c-6.21,0-10.67,0.38-13.25,1.13
			c-5.13,0.66-7.73,2.16-8.09,4.52c-0.27,1.81-0.35,4.07-0.25,6.74c0.07,2.5,0.16,4.99,0.27,7.47v58.34c0,1.53,0.66,2.97,2.02,4.4
			c1.33,1.4,2.75,2.08,4.35,2.08c12.71,0,23.35-1.56,31.61-4.65c3.65-1.38,7.2-3.46,10.55-6.19c4.76-3.91,7.18-8.01,7.18-12.18
			c0-3.33-1.41-6.78-4.2-10.25c-2.54-3.21-5.47-5.63-8.71-7.22c-0.65-0.31-1.1-0.93-1.19-1.64c-0.1-0.71,0.16-1.42,0.7-1.9
			c2.8-2.49,4.76-4.81,5.84-6.9c1.37-2.59,2.07-5.84,2.07-9.68c0-7.12-3.35-12.93-10.24-17.74
			C201.94,178.02,195.67,175.9,189.23,175.9z M206.65,257.94h0.05H206.65z M180.71,249.81c-0.55,0-1.08-0.21-1.48-0.59
			c-0.42-0.41-0.67-0.98-0.67-1.56v-20.55c0-0.59,0.24-1.14,0.66-1.56c0.42-0.4,1.04-0.56,1.58-0.6c6.59,0.26,11.55,0.39,14.86,0.39
			c0.08,0,0.15,0,0.23,0.01c3.06,0.33,6.33,1.45,9.73,3.34c4.7,2.56,7.17,5.7,7.31,9.33c0.14,4.33-5.87,6.59-11.13,8.09
			c-7.5,2.13-14.55,3.37-20.97,3.71C180.79,249.81,180.75,249.81,180.71,249.81z M182.86,229.35v16.01
			c5.49-0.47,11.45-1.61,17.76-3.39c7.45-2.12,8-3.79,8-3.81c-0.08-1.98-1.79-3.9-5.09-5.69c-2.85-1.6-5.54-2.54-7.99-2.82
			C192.58,229.65,188.36,229.55,182.86,229.35z M186.67,214.54c-1.64,0-3.7-0.14-6.22-0.45c-1.08-0.13-1.9-1.05-1.89-2.14
			l0.05-11.55l-0.05-11.63c0-1.13,0.86-2.07,1.98-2.15c0.97-0.08,3.87-0.12,8.69-0.12c4.3,0,8.4,1.42,12.16,4.21
			c3.86,2.83,5.82,5.95,5.82,9.26c0,5.95-3.26,13.3-18.8,14.51C187.89,214.52,187.32,214.54,186.67,214.54z M182.87,210.02
			c2.24,0.22,3.98,0.27,5.18,0.16c14.86-1.16,14.86-7.98,14.86-10.22c0-1.87-1.37-3.82-4.06-5.79c-3.07-2.28-6.21-3.38-9.61-3.38
			c-2.79,0-4.91,0.01-6.36,0.03l0.05,9.56L182.87,210.02z"/>
	</g>
	<g>
		<path class="st2" d="M430.42,235.74l-0.05,23.13c0,1.61-0.46,3.1-1.37,4.45c-1.28,1.87-3.15,2.8-5.61,2.8
			c-2.89,0-5.17-1.17-6.81-3.52c-1.28-1.83-1.92-3.79-1.92-5.88c0-8.13,0.26-20.35,0.77-36.65c0.51-16.3,0.77-28.52,0.77-36.65
			c0-2.05,0.73-3.81,2.2-5.28s3.3-2.2,5.5-2.2s4.02,0.73,5.47,2.2s2.17,3.22,2.17,5.28c0,3.3-0.16,7.75-0.49,13.35
			c-0.4,6.52-0.64,10.97-0.71,13.35c2.56-2.42,12.07-12.6,28.52-30.55c1.69-1.83,3.63-2.75,5.82-2.75c2.09,0,3.91,0.73,5.47,2.2
			c1.56,1.47,2.34,3.24,2.34,5.33c0,2.27-4.36,8.17-13.08,17.69c-6.45,7-13.24,13.9-20.39,20.72c3.99,3.77,8,7.55,12.03,11.32
			c4.69,4.32,8.9,7.88,12.64,10.66c1.87,1.36,3.88,2.38,6.04,3.08c3.92,1.25,5.88,3.65,5.88,7.2c0,1.58-0.49,3.1-1.48,4.56
			c-1.36,1.98-3.24,2.97-5.66,2.97c-5.24,0-12.03-3.43-20.39-10.28C445.56,250.23,439.68,244.71,430.42,235.74z"/>
		<path class="st1" d="M423.38,268.28c-3.57,0-6.53-1.53-8.57-4.42c-1.54-2.2-2.32-4.6-2.32-7.13c0-8.12,0.26-20.47,0.77-36.72
			c0.51-16.2,0.77-28.52,0.77-36.59c0-2.64,0.95-4.92,2.83-6.79c3.76-3.78,10.29-3.75,14.02,0.01c1.85,1.88,2.79,4.15,2.79,6.79
			c0,3.32-0.16,7.73-0.5,13.48c-0.19,3-0.34,5.57-0.45,7.69c4.65-4.89,12.86-13.74,24.51-26.46c4.1-4.44,10.32-4.47,14.35-0.66
			c2,1.88,3.02,4.2,3.02,6.9c0,2.1-1.62,6.02-13.64,19.15c-6.01,6.53-12.35,12.99-18.86,19.26c3.45,3.25,6.91,6.5,10.39,9.75
			c4.61,4.26,8.8,7.8,12.45,10.51c1.66,1.19,3.48,2.13,5.42,2.75c6.1,1.94,7.38,6.1,7.38,9.25c0,2.01-0.62,3.94-1.86,5.77
			c-1.76,2.56-4.33,3.91-7.44,3.91c-5.81,0-12.93-3.52-21.75-10.76c-2.19-1.8-6.83-6.11-14.14-13.14l-0.04,18.08
			c0,2.03-0.59,3.93-1.75,5.65C429.09,266.99,426.54,268.28,423.38,268.28z M423.87,178.1c-1.61,0-2.91,0.51-3.97,1.57
			c-1.06,1.05-1.57,2.28-1.57,3.75c0,8.12-0.26,20.47-0.77,36.72c-0.51,16.2-0.77,28.51-0.77,36.58c0,1.65,0.5,3.17,1.54,4.65
			c1.24,1.77,2.85,2.6,5.05,2.6c1.74,0,2.95-0.59,3.83-1.87c0.67-0.99,1-2.06,1-3.24l0.05-23.14c0-0.86,0.52-1.64,1.31-1.98
			c0.81-0.32,1.71-0.17,2.34,0.44c9.22,8.92,15.11,14.45,17.52,16.42c7.9,6.49,14.3,9.79,19.01,9.79c1.7,0,2.93-0.65,3.89-2.04
			c0.75-1.1,1.11-2.19,1.11-3.34c0-1.75-0.5-3.91-4.38-5.15c-2.38-0.77-4.61-1.9-6.65-3.39c-3.79-2.82-8.11-6.45-12.84-10.82
			c-4.04-3.78-8.06-7.56-12.06-11.34c-0.43-0.4-0.67-0.97-0.67-1.56c0-0.6,0.24-1.16,0.66-1.56c7.02-6.69,13.85-13.62,20.3-20.63
			c11.71-12.78,12.47-15.78,12.5-16.25c0-1.49-0.53-2.68-1.66-3.75c-2.34-2.18-5.73-2.27-8.24,0.45
			c-16.65,18.16-26.01,28.2-28.62,30.65c-0.64,0.61-1.57,0.77-2.36,0.4c-0.8-0.35-1.3-1.16-1.27-2.03c0.08-2.4,0.31-6.87,0.71-13.42
			c0.34-5.66,0.5-9.98,0.5-13.22c0-1.48-0.5-2.71-1.55-3.76C426.77,178.61,425.49,178.1,423.87,178.1z"/>
	</g>
	<g>
		<path class="st2" d="M524.73,219.86c-3.63,0-5.81-1.52-6.54-4.56c-1.47-0.26-2.97-0.38-4.51-0.38c-8.83,0-13.24,1.21-13.24,3.63
			c0,1.43,2.66,3.35,7.97,5.77c7.25,3.33,12.16,5.93,14.73,7.8c5.31,3.85,7.97,8.19,7.97,13.02c0,6.3-2.93,11.08-8.79,14.34
			c-4.73,2.6-10.53,3.9-17.42,3.9c-4.87,0-9.32-0.75-13.35-2.25c-5.5-2.05-8.24-5.07-8.24-9.07c0-3.66,2.18-5.5,6.54-5.5
			c1.69,0,4.12,0.53,7.31,1.59s5.64,1.59,7.36,1.59c7.44,0,11.17-1.5,11.21-4.51c0-1.87-2.58-3.94-7.75-6.21
			c-7.55-3.33-12.38-5.73-14.51-7.2c-5.17-3.63-7.75-8.04-7.75-13.24c0-7.36,3.9-12.33,11.7-14.89c4.58-1.5,11.54-2.25,20.88-2.25
			c3.66,0,6.37,0.48,8.13,1.43c2.42,1.28,3.63,3.65,3.63,7.09C530.06,216.56,528.28,219.86,524.73,219.86z"/>
		<path class="st1" d="M504.9,265.53c-5.12,0-9.86-0.81-14.11-2.39c-6.4-2.39-9.65-6.12-9.65-11.08c0-4.86,3.17-7.65,8.7-7.65
			c1.92,0,4.53,0.56,7.99,1.71c3.67,1.22,5.67,1.48,6.69,1.48c6.67,0,9.05-1.28,9.06-2.37l0,0c-0.01,0-0.29-1.51-6.47-4.22
			c-7.72-3.41-12.58-5.82-14.86-7.39c-5.76-4.04-8.68-9.1-8.68-15.02c0-8.25,4.56-14.1,13.19-16.94c4.79-1.57,12.04-2.36,21.55-2.36
			c4.06,0,7.06,0.56,9.16,1.69c2.16,1.14,4.75,3.64,4.75,8.98c0,9.96-4.06,12.05-7.48,12.05c-4.02,0-6.87-1.68-8.17-4.78
			c-0.95-0.11-1.92-0.17-2.88-0.17c-9.02,0-10.81,1.31-11.09,1.59l0,0c0.22,0,1.38,1.27,6.71,3.7c7.44,3.42,12.38,6.04,15.1,8.02
			c5.87,4.25,8.86,9.22,8.86,14.77c0,7.11-3.33,12.56-9.9,16.22C518.32,264.13,512.11,265.53,504.9,265.53z M489.84,248.71
			c-4.05,0-4.39,1.72-4.39,3.35c0,1.11,0,4.49,6.85,7.05c3.77,1.4,8.01,2.12,12.61,2.12c6.48,0,11.99-1.22,16.38-3.63
			c5.16-2.88,7.68-6.95,7.68-12.45c0-4.15-2.31-7.84-7.08-11.29c-2.46-1.78-7.29-4.34-14.36-7.59c-6.63-3.03-9.23-5.2-9.23-7.73
			c0-5.1,7.79-5.79,15.4-5.79c1.62,0,3.26,0.14,4.87,0.42c0.85,0.14,1.53,0.78,1.73,1.61c0.34,1.45,1.14,2.92,4.45,2.92
			c2.1,0,3.17-2.61,3.17-7.75c0-3.46-1.41-4.63-2.48-5.19c-1-0.54-3.04-1.18-7.12-1.18c-9.06,0-15.86,0.72-20.21,2.14
			c-6.88,2.26-10.23,6.47-10.23,12.85c0,4.5,2.24,8.26,6.83,11.48c1.38,0.95,4.97,2.94,14.14,7c6.25,2.74,9.04,5.26,9.04,8.18
			c-0.08,6.65-10.07,6.65-13.36,6.65c-1.98,0-4.61-0.56-8.05-1.7C492.76,248.97,490.82,248.71,489.84,248.71z"/>
	</g>
	<g>
		<path class="st2" d="M579.63,215.84c-0.77,0-1.68-0.03-2.72-0.08c-1.04-0.05-1.95-0.08-2.72-0.08c-1.5,0-3.24,0.15-5.22,0.44
			c0.66,14.8,0.99,24.47,0.99,29.01c0,0.48,0.02,1.36,0.05,2.67s0.05,2.35,0.05,3.16c0,8.43-2.66,12.64-7.97,12.64
			c-2.01,0-3.76-0.62-5.22-1.87c-1.61-1.32-2.42-2.97-2.42-4.95c0-1.32,0.05-3.3,0.16-5.93s0.16-4.62,0.16-5.93
			c0-4.43-0.33-13.92-0.99-28.47c-2.27-0.11-5.71-0.41-10.3-0.91c-4.6-0.49-6.9-2.87-6.9-7.12c0-2.05,0.7-3.79,2.09-5.22
			c1.39-1.43,3.19-2.14,5.39-2.14c1.36,0,4.47,0.22,9.34,0.66c-0.04-1.17-0.13-3.11-0.27-5.82c-0.15-2.34-0.22-4.16-0.22-5.44
			c0-2.05,0.75-3.76,2.25-5.11c1.5-1.36,3.32-2.03,5.44-2.03c5.42,0,8.13,4.56,8.13,13.68l-0.11,4.51c2.27-0.33,4.12-0.49,5.55-0.49
			c4.21,0,7.09,0.27,8.63,0.82c2.93,1.03,4.4,3.26,4.4,6.7c0,2.09-0.71,3.83-2.14,5.22C583.64,215.15,581.83,215.84,579.63,215.84z"
			/>
		<path class="st1" d="M562.1,265.75c-2.52,0-4.75-0.8-6.61-2.38c-2.07-1.7-3.18-3.99-3.18-6.58c0-1.34,0.05-3.35,0.16-6.03
			c0.11-2.6,0.17-4.54,0.17-5.84c0-4.24-0.3-13.13-0.9-26.44c-2.16-0.15-4.99-0.42-8.47-0.78c-5.69-0.61-8.82-3.91-8.82-9.27
			c0-2.62,0.91-4.89,2.7-6.72c1.81-1.85,4.14-2.79,6.93-2.79c1.18,0,3.51,0.15,7.09,0.45c-0.05-0.94-0.11-2.06-0.18-3.36
			c-0.14-2.37-0.22-4.23-0.22-5.54c0-2.68,1-4.94,2.97-6.71c1.89-1.72,4.21-2.59,6.88-2.59c4.69,0,10.28,2.75,10.28,15.83
			l-0.05,2.06c1.28-0.13,2.39-0.2,3.34-0.2c4.49,0,7.55,0.31,9.35,0.95c2.65,0.93,5.82,3.2,5.82,8.73c0,2.69-0.94,4.97-2.79,6.77
			c-1.83,1.79-4.17,2.7-6.94,2.7c-0.81,0-1.75-0.03-2.83-0.08c-2.27-0.13-3.64-0.12-5.6,0.08c0.61,13.96,0.91,22.84,0.91,27.14
			c0,0.46,0.02,1.34,0.05,2.6c0.03,1.33,0.06,2.4,0.06,3.22C572.22,263.18,566.71,265.75,562.1,265.75z M544.08,203.22
			c-1.63,0-2.85,0.48-3.85,1.5c-0.99,1.02-1.47,2.23-1.47,3.71c0,3.16,1.44,4.6,4.97,4.98c4.54,0.49,7.94,0.78,10.18,0.89
			c1.11,0.06,2,0.94,2.05,2.05c0.66,14.46,0.99,24.07,0.99,28.57c0,1.34-0.06,3.35-0.17,6.03c-0.11,2.6-0.16,4.54-0.16,5.84
			c0,1.33,0.52,2.37,1.63,3.28c1.1,0.93,2.35,1.38,3.85,1.38c1.59,0,5.82,0,5.82-10.49c0-0.79-0.03-1.82-0.06-3.1
			c-0.03-1.33-0.05-2.24-0.05-2.72c0-4.43-0.33-13.89-0.99-28.93c-0.05-1.1,0.75-2.06,1.83-2.22c2.05-0.31,3.92-0.46,5.54-0.46
			c0.8,0,1.75,0.03,2.83,0.08c3.17,0.16,5.06,0.04,6.54-1.4c1.02-0.98,1.49-2.15,1.49-3.68c0-3.22-1.57-4.19-2.95-4.67
			c-0.74-0.27-2.75-0.71-7.91-0.71c-1.3,0-3.06,0.16-5.24,0.47c-0.66,0.12-1.27-0.1-1.74-0.52c-0.47-0.42-0.74-1.03-0.72-1.66
			l0.11-4.51c0-11.48-4.5-11.48-5.98-11.48c-1.59,0-2.89,0.49-3.99,1.48c-1.06,0.95-1.55,2.06-1.55,3.52c0,1.24,0.08,3.02,0.22,5.3
			c0.14,2.76,0.24,4.71,0.28,5.89c0.02,0.61-0.23,1.21-0.67,1.64c-0.45,0.43-1.08,0.67-1.67,0.58
			C548.43,203.44,545.35,203.22,544.08,203.22z"/>
	</g>
	<g>
		<path class="st2" d="M616.5,263.32c-6.78,0-12.6-2.33-17.47-6.98c-5.35-5.09-8.15-11.89-8.41-20.39
			c-0.26-8.1,1.96-15.31,6.65-21.65c5.57-7.47,13.32-11.21,23.24-11.21c7.33,0,13.15,2.93,17.47,8.79
			c3.88,5.28,5.82,11.81,5.82,19.62c0,8.5-2.27,15.75-6.81,21.76C631.91,259.97,625.07,263.32,616.5,263.32z M619.8,217.6
			c-4.51-0.04-8.06,2.01-10.66,6.15c-2.2,3.48-3.3,7.55-3.3,12.2c0,4.4,1.25,7.77,3.74,10.11c1.98,1.87,4.29,2.8,6.92,2.8
			c3.19,0,5.95-1.08,8.3-3.24c2.67-2.53,4.1-5.95,4.29-10.28C629.56,223.56,626.47,217.64,619.8,217.6z"/>
		<path class="st1" d="M616.5,265.48c-7.31,0-13.69-2.55-18.96-7.58c-5.74-5.47-8.8-12.84-9.07-21.88
			c-0.28-8.54,2.1-16.28,7.06-22.99c5.97-8.02,14.37-12.08,24.98-12.08c8.01,0,14.48,3.25,19.21,9.66
			c4.15,5.63,6.25,12.66,6.25,20.9c0,8.94-2.44,16.69-7.25,23.06C633.21,261.81,625.74,265.48,616.5,265.48z M620.51,205.25
			c-9.29,0-16.33,3.38-21.52,10.34c-4.36,5.9-6.46,12.73-6.21,20.29c0.24,7.99,2.77,14.17,7.74,18.9c4.51,4.3,9.73,6.38,15.99,6.38
			c7.93,0,14.08-3.01,18.79-9.21c4.23-5.6,6.37-12.48,6.37-20.46c0-7.3-1.82-13.47-5.41-18.34
			C632.32,207.84,627.18,205.25,620.51,205.25z M616.5,251.02c-3.2,0-6.02-1.14-8.4-3.39c-2.93-2.76-4.41-6.69-4.41-11.68
			c0-5.05,1.22-9.54,3.63-13.35c2.98-4.74,7.13-7.16,12.34-7.16c0.04,0,0.09,0,0.14,0l0,0c3,0.02,5.48,1.03,7.37,3
			c3.07,3.2,4.4,8.76,4.06,16.98c-0.21,4.89-1.88,8.85-4.96,11.76C623.51,249.74,620.22,251.02,616.5,251.02z M619.67,219.76
			c-3.68,0-6.53,1.68-8.7,5.15c-1.98,3.11-2.97,6.82-2.97,11.05c0,3.82,1,6.61,3.06,8.55c1.57,1.49,3.36,2.21,5.44,2.21
			c2.65,0,4.89-0.87,6.85-2.67c2.25-2.13,3.43-5,3.59-8.79c0.28-6.79-0.71-11.57-2.87-13.82c-1.07-1.12-2.46-1.67-4.27-1.67
			c-0.01,0-0.01,0-0.01,0C619.74,219.76,619.71,219.76,619.67,219.76z"/>
	</g>
	<g>
		<path class="st2" d="M699.09,220.46c-0.33,5.61-2.88,8.41-7.64,8.41c-4.62,0-6.92-2.38-6.92-7.14l-0.27-5.55
			c-8.24,1.32-14.14,5.55-17.69,12.69l0.05,27.64c0,2.09-0.71,3.82-2.14,5.19c-1.43,1.37-3.24,2.06-5.44,2.06
			c-2.27,0-4.03-0.73-5.28-2.2c-1.17-1.32-1.76-3-1.76-5.06v-35.99c0-1.14,0.04-2.83,0.11-5.08c0.07-2.25,0.11-3.95,0.11-5.08
			c0-2.05,0.61-3.76,1.84-5.14c1.23-1.37,2.98-2.06,5.25-2.06c4.07,0,6.48,2.09,7.25,6.26c6.48-4.84,13.68-7.25,21.6-7.25
			c7.33,0,10.99,4.87,10.99,14.62C699.15,218.65,699.13,219.87,699.09,220.46z"/>
		<path class="st1" d="M659.03,265.92c-2.93,0-5.26-1-6.91-2.97c-1.5-1.67-2.27-3.85-2.27-6.44v-35.99c0-1.15,0.03-2.88,0.11-5.15
			c0.08-2.22,0.11-3.89,0.11-5.01c0-2.59,0.81-4.8,2.39-6.58c1.66-1.84,3.96-2.78,6.85-2.78c3.99,0,6.89,1.75,8.43,5
			c6.21-3.98,13.06-5.99,20.43-5.99c6,0,13.14,2.91,13.14,16.78c0,1.93-0.03,3.2-0.06,3.8l0,0c-0.54,9.08-6.37,10.44-9.79,10.44
			c-5.77,0-9.08-3.39-9.08-9.29l-0.14-2.94c-6.17,1.54-10.6,5.02-13.51,10.6l0.05,27.13c0,2.68-0.94,4.95-2.8,6.74
			C664.12,265.03,661.79,265.92,659.03,265.92z M659.31,205.3c-1.64,0-2.83,0.44-3.64,1.35c-0.87,0.97-1.3,2.18-1.3,3.7
			c0,1.15-0.03,2.88-0.11,5.16c-0.08,2.21-0.11,3.89-0.11,5v35.99c0,1.52,0.4,2.71,1.21,3.62c1.72,2.04,5.55,1.99,7.62,0.02
			c1.01-0.98,1.48-2.13,1.48-3.64l-0.05-27.64c0-0.33,0.08-0.66,0.23-0.96c3.86-7.76,10.34-12.43,19.28-13.86
			c0.61-0.09,1.22,0.08,1.69,0.45c0.48,0.39,0.77,0.96,0.8,1.57l0.27,5.55c0,3.69,1.34,5.09,4.78,5.09c2.53,0,5.15-0.76,5.48-6.38
			l0,0c0.03-0.56,0.06-1.75,0.06-3.55c0-11.18-5.05-12.47-8.84-12.47c-7.4,0-14.23,2.3-20.31,6.83c-0.61,0.45-1.39,0.55-2.07,0.28
			c-0.7-0.27-1.2-0.87-1.34-1.61C663.87,206.65,662.33,205.3,659.31,205.3z M699.09,220.46h0.05H699.09z"/>
	</g>
	<g>
		<path class="st2" d="M734.81,262.61c-8.76,0-15.92-2.09-21.49-6.26c-6.15-4.62-9.23-11.12-9.23-19.51
			c0-9.27,2.44-17.11,7.31-23.52c5.42-7.11,12.73-10.66,21.93-10.66c6.37,0,11.67,1.03,15.88,3.08c5.53,2.71,8.3,6.92,8.3,12.64
			c0,4.03-2.25,7.6-6.76,10.72c-2.05,1.43-6.17,3.52-12.36,6.26l-18.52,8.19c1.76,1.91,3.88,3.33,6.37,4.29
			c2.49,0.95,5.35,1.43,8.57,1.43c4.91,0,9.07-1.01,12.47-3.02c3.04-1.8,5.48-2.69,7.31-2.69c3.81,0,5.72,1.85,5.72,5.55
			c0,4.18-3.06,7.58-9.18,10.22C746.01,261.51,740.56,262.61,734.81,262.61z M733.33,215.95c-3.41,0-6.32,1.14-8.74,3.41
			c-2.42,2.27-4.36,5.68-5.82,10.22c4.14-1.8,8.26-3.57,12.36-5.33c4.95-2.23,8.88-4.3,11.81-6.21
			C740.49,216.65,737.29,215.95,733.33,215.95z"/>
		<path class="st1" d="M734.82,264.77c-9.18,0-16.84-2.25-22.78-6.69c-6.69-5.03-10.09-12.17-10.09-21.23
			c0-9.72,2.61-18.07,7.75-24.82c5.84-7.64,13.78-11.51,23.64-11.51c6.68,0,12.34,1.11,16.83,3.3c6.31,3.1,9.5,8.01,9.5,14.57
			c0,4.76-2.58,8.96-7.68,12.49c-2.21,1.53-6.37,3.65-12.72,6.46l-15.44,6.83c0.97,0.67,2.03,1.22,3.2,1.67
			c2.24,0.85,4.86,1.29,7.8,1.29c4.49,0,8.32-0.92,11.37-2.72c3.43-2.02,6.17-2.99,8.41-2.99c5,0,7.87,2.81,7.87,7.7
			c0,5.1-3.53,9.2-10.49,12.19C746.61,263.6,740.83,264.77,734.82,264.77z M733.33,204.81c-8.56,0-15.17,3.21-20.22,9.81
			c-4.55,5.99-6.86,13.46-6.86,22.22c0,7.75,2.74,13.56,8.38,17.79c5.16,3.88,11.96,5.84,20.19,5.84c5.42,0,10.63-1.05,15.46-3.13
			c5.3-2.28,7.88-4.98,7.88-8.24c0-2.51-0.93-3.4-3.57-3.4c-0.98,0-2.85,0.41-6.21,2.4c-3.73,2.2-8.29,3.32-13.56,3.32
			c-3.47,0-6.62-0.53-9.34-1.57c-2.82-1.08-5.23-2.71-7.19-4.84c-0.47-0.5-0.66-1.21-0.53-1.89c0.14-0.68,0.61-1.25,1.24-1.53
			l18.52-8.19c7.49-3.31,10.67-5.13,12.02-6.06c3.92-2.72,5.83-5.64,5.83-8.95c0-4.86-2.32-8.36-7.09-10.71
			C744.37,205.77,739.35,204.81,733.33,204.81z M718.76,231.73c-0.53,0-1.04-0.19-1.45-0.56c-0.63-0.56-0.87-1.45-0.61-2.25
			c1.58-4.87,3.73-8.61,6.41-11.12c2.83-2.65,6.26-3.99,10.21-3.99c4.33,0,7.92,0.8,10.69,2.36c0.65,0.38,1.06,1.06,1.08,1.82
			c0.02,0.75-0.35,1.45-0.98,1.87c-3.06,1.98-7.13,4.12-12.1,6.36l-12.4,5.35C719.34,231.67,719.05,231.73,718.76,231.73z
			 M733.33,218.11c-2.86,0-5.24,0.93-7.27,2.83c-1.23,1.16-2.34,2.69-3.32,4.58l7.54-3.25c2.87-1.3,5.42-2.56,7.64-3.76
			C736.55,218.25,735.02,218.11,733.33,218.11z"/>
	</g>
	<g>
		<g>
			<g>
				<path class="st1" d="M271,257.62c-21.43,0-38.87-17.43-38.87-38.86S249.57,179.9,271,179.9s38.86,17.43,38.86,38.86
					S292.43,257.62,271,257.62z M271,193.96c-13.67,0-24.8,11.12-24.8,24.79c0,13.67,11.12,24.79,24.8,24.79
					c13.67,0,24.8-11.12,24.8-24.79C295.8,205.08,284.67,193.96,271,193.96z"/>
			</g>
			<g>
				<path class="st2" d="M271,182.24c20.14,0,36.52,16.38,36.52,36.52s-16.38,36.52-36.52,36.52s-36.52-16.38-36.52-36.52
					S250.86,182.24,271,182.24 M271,245.89c14.97,0,27.14-12.17,27.14-27.14c0-14.97-12.18-27.14-27.14-27.14
					c-14.97,0-27.14,12.17-27.14,27.14C243.86,233.72,256.03,245.89,271,245.89 M271,177.55c-22.72,0-41.21,18.48-41.21,41.21
					s18.49,41.21,41.21,41.21c22.72,0,41.21-18.48,41.21-41.21S293.72,177.55,271,177.55L271,177.55z M271,241.21
					c-12.38,0-22.45-10.07-22.45-22.45s10.07-22.45,22.45-22.45c12.38,0,22.45,10.07,22.45,22.45S283.38,241.21,271,241.21
					L271,241.21z"/>
			</g>
		</g>
	</g>
	<g>
		<g>
			<g>
				<path class="st1" d="M369.42,257.62c-21.43,0-38.87-17.43-38.87-38.86s17.43-38.86,38.87-38.86s38.87,17.43,38.87,38.86
					S390.85,257.62,369.42,257.62z M369.42,193.96c-13.67,0-24.8,11.12-24.8,24.79c0,13.67,11.12,24.79,24.8,24.79
					c13.67,0,24.8-11.12,24.8-24.79C394.22,205.08,383.09,193.96,369.42,193.96z"/>
			</g>
			<g>
				<path class="st2" d="M369.42,182.24c20.14,0,36.52,16.38,36.52,36.52s-16.38,36.52-36.52,36.52s-36.52-16.38-36.52-36.52
					S349.28,182.24,369.42,182.24 M369.42,245.89c14.97,0,27.14-12.17,27.14-27.14c0-14.97-12.18-27.14-27.14-27.14
					s-27.14,12.17-27.14,27.14C342.28,233.72,354.45,245.89,369.42,245.89 M369.42,177.55c-22.72,0-41.21,18.48-41.21,41.21
					s18.49,41.21,41.21,41.21s41.21-18.48,41.21-41.21S392.14,177.55,369.42,177.55L369.42,177.55z M369.42,241.21
					c-12.38,0-22.45-10.07-22.45-22.45s10.07-22.45,22.45-22.45c12.38,0,22.45,10.07,22.45,22.45S381.8,241.21,369.42,241.21
					L369.42,241.21z"/>
			</g>
		</g>
	</g>
</g>
<path class="st3" d="M140.39,156.98c-51.36,20.5-109.62-4.51-130.12-55.87C-3.81,65.84,3.58,27.31,26.23,0h154.09
	c6.53,7.86,11.95,16.86,15.94,26.86C216.76,78.22,191.75,136.48,140.39,156.98z"/>
<path class="st0" d="M48.29,198.26c-17.2,6.87-36.14,2.22-48.29-10.28v-61.91c4.21-4.34,9.39-7.88,15.37-10.27
	c22.77-9.09,48.6,2,57.69,24.77C82.15,163.34,71.06,189.17,48.29,198.26z"/>
<g>
	<g>
		<g>
			<g>
				<path class="st1" d="M9.7,56.03l0.23-2.03c0.59-5.39,3.07-10.58,6.97-14.59c3.73-3.84,8.63-6.44,13.8-7.33l2.02-0.35l2.07,12.11
					l-2.02,0.35c-2.72,0.46-5.17,1.76-7.11,3.75c-1.98,2.04-3.24,4.67-3.54,7.42l-0.23,2.03L9.7,56.03z"/>
			</g>
			<g>
				<path class="st2" d="M18.36,40.83c3.35-3.44,7.75-5.9,12.68-6.74l1.38,8.07c-3.23,0.55-6.08,2.13-8.23,4.34
					c-2.25,2.32-3.74,5.34-4.11,8.62l-8.13-0.9C12.52,49.13,14.86,44.43,18.36,40.83L18.36,40.83z M15.43,37.98
					c-4.22,4.34-6.9,9.95-7.54,15.79l-0.45,4.06l4.06,0.45l8.13,0.9l4.07,0.45l0.45-4.07c0.25-2.3,1.31-4.5,2.97-6.22
					c1.63-1.68,3.7-2.77,5.99-3.16l4.04-0.69l-0.69-4.04l-1.38-8.07l-0.69-4.04l-4.04,0.69C24.76,31.01,19.46,33.83,15.43,37.98
					L15.43,37.98z"/>
			</g>
		</g>
	</g>
	<g>
		<g>
			<g>
				<path class="st1" d="M28.31,63.43c-1.47-1.43-3.04-2.7-4.69-3.8c-1.44-0.98-2.95-1.83-4.5-2.56c-2.95-1.39-6.07-2.32-9.23-2.8
					c-0.68-0.12-1.35-0.2-2.03-0.26C5.24,53.76,2.6,53.82,0,54.18v12.47c6.87-1.53,14.35,0.32,19.76,5.58
					c8.55,8.32,8.75,22.04,0.43,30.6c-5.41,5.57-13.11,7.6-20.19,6.04v12.45c10.33,1.44,21.19-1.89,29-9.93
					C42.03,97.97,41.73,76.46,28.31,63.43z"/>
			</g>
			<g>
				<path class="st2" d="M29.74,61.96c-1.8-1.75-3.74-3.28-5.79-4.57c-0.63-0.41-1.28-0.79-1.93-1.14
					c-0.76-0.43-1.54-0.82-2.33-1.17c-2.42-1.12-4.93-1.94-7.49-2.47c-0.67-0.16-1.34-0.28-2.02-0.37c-0.67-0.12-1.35-0.2-2.03-0.26
					C5.44,51.71,2.7,51.76,0,52.12v4.12c2.53-0.37,5.1-0.44,7.64-0.2c3.75,0.34,7.46,1.35,10.92,3.03c3,1.44,5.82,3.39,8.33,5.83
					c12.6,12.24,12.88,32.46,0.64,45.06C20.12,117.58,9.79,120.7,0,119.25v4.13c10.87,1.42,22.25-2.12,30.46-10.57
					C44.28,98.59,43.96,75.78,29.74,61.96z M21.66,104.26c9.1-9.37,8.89-24.39-0.48-33.49C15.38,65.12,7.39,63.06,0,64.55v4.18
					c6.34-1.55,13.32,0.1,18.33,4.97c7.75,7.53,7.92,19.96,0.39,27.7c-5.01,5.16-12.2,6.96-18.72,5.37v4.18
					C7.62,112.49,15.85,110.24,21.66,104.26z M21.18,70.77C15.38,65.12,7.39,63.06,0,64.55v4.18c6.34-1.55,13.32,0.1,18.33,4.97
					c7.75,7.53,7.92,19.96,0.39,27.7c-5.01,5.16-12.2,6.96-18.72,5.37v4.18c7.62,1.54,15.85-0.71,21.66-6.69
					C30.76,94.89,30.55,79.87,21.18,70.77z M21.18,70.77C15.38,65.12,7.39,63.06,0,64.55v4.18c6.34-1.55,13.32,0.1,18.33,4.97
					c7.75,7.53,7.92,19.96,0.39,27.7c-5.01,5.16-12.2,6.96-18.72,5.37v4.18c7.62,1.54,15.85-0.71,21.66-6.69
					C30.76,94.89,30.55,79.87,21.18,70.77z"/>
			</g>
		</g>
	</g>
	<g>
		<g>
			<g>
				<path class="st1" d="M88.17,1.84C87.5,1.19,86.81,0.57,86.1,0H42.95C42,0.79,41.09,1.63,40.21,2.53
					c-7.35,7.56-10.46,17.7-9.37,27.44c0.08,0.68,0.17,1.35,0.29,2.02c0.59,3.4,1.7,6.72,3.32,9.84c0.67,1.29,1.43,2.54,2.28,3.75
					c1.21,1.73,2.6,3.37,4.17,4.9c13.41,13.04,34.92,12.73,47.95-0.68C101.89,36.38,101.58,14.87,88.17,1.84z M79.61,10.64
					c8.56,8.32,8.76,22.04,0.44,30.6S58.01,50,49.45,41.68c-8.55-8.32-8.75-22.04-0.43-30.6C57.33,2.53,71.06,2.33,79.61,10.64z"/>
			</g>
			<g>
				<path class="st2" d="M89.6,0.37C89.47,0.24,89.34,0.12,89.2,0h-6.49c1.41,0.97,2.76,2.07,4.03,3.31
					c12.6,12.24,12.89,32.46,0.65,45.06c-12.25,12.6-32.47,12.89-45.07,0.65c-2.43-2.36-4.41-5.03-5.91-7.87
					c-1.93-3.62-3.11-7.54-3.54-11.53c-0.99-9.12,1.94-18.6,8.81-25.67c1.45-1.5,3.02-2.82,4.67-3.95h-6.48
					c-0.38,0.36-0.75,0.72-1.12,1.1c-7.83,8.06-11.12,18.88-9.91,29.26c0.07,0.68,0.17,1.36,0.29,2.04c0.12,0.67,0.25,1.34,0.41,2
					c0.62,2.67,1.56,5.28,2.8,7.78c0.31,0.64,0.65,1.27,1.01,1.9c0.36,0.63,0.75,1.26,1.16,1.87c1.4,2.13,3.05,4.15,4.96,6
					c14.22,13.82,37.03,13.49,50.85-0.73C104.14,37,103.82,14.19,89.6,0.37z M48.03,43.15c9.36,9.1,24.38,8.88,33.49-0.48
					c9.1-9.37,8.89-24.39-0.48-33.49c-9.36-9.11-24.39-8.89-33.49,0.48C38.45,19.02,38.66,34.04,48.03,43.15z M78.19,12.11
					c7.75,7.53,7.92,19.96,0.39,27.7c-7.53,7.75-19.96,7.93-27.7,0.4c-7.75-7.53-7.92-19.95-0.39-27.7
					C58.02,4.76,70.44,4.58,78.19,12.11z M81.04,9.18c-9.36-9.11-24.39-8.89-33.49,0.48c-9.1,9.36-8.89,24.38,0.48,33.49
					c9.36,9.1,24.38,8.88,33.49-0.48C90.62,33.3,90.41,18.28,81.04,9.18z M50.88,40.21c-7.75-7.53-7.92-19.95-0.39-27.7
					c7.53-7.75,19.95-7.93,27.7-0.4s7.92,19.96,0.39,27.7C71.05,47.56,58.62,47.74,50.88,40.21z M81.04,9.18
					c-9.36-9.11-24.39-8.89-33.49,0.48c-9.1,9.36-8.89,24.38,0.48,33.49c9.36,9.1,24.38,8.88,33.49-0.48
					C90.62,33.3,90.41,18.28,81.04,9.18z M50.88,40.21c-7.75-7.53-7.92-19.95-0.39-27.7c7.53-7.75,19.95-7.93,27.7-0.4
					s7.92,19.96,0.39,27.7C71.05,47.56,58.62,47.74,50.88,40.21z"/>
			</g>
		</g>
	</g>
</g>
<circle class="st1" cx="86.16" cy="273.4" r="71.24"/>
<g>
	<g>
		<path class="st0" d="M102.21,343.11l2.01-0.35c5.32-0.94,10.98-0.03,15.91,2.58c4.72,2.49,8.58,6.45,10.88,11.14l0.9,1.84
			l-11,5.38l-0.9-1.83c-1.2-2.47-3.13-4.46-5.58-5.75c-2.5-1.32-5.38-1.79-8.09-1.31l-2.01,0.35L102.21,343.11z"/>
	</g>
	<g>
		<path class="st3" d="M119.44,347.19c4.25,2.24,7.84,5.78,10.04,10.27l-7.36,3.6c-1.44-2.94-3.75-5.23-6.48-6.68
			c-2.86-1.51-6.17-2.09-9.43-1.52l-1.42-8.05C109.83,343.91,114.99,344.84,119.44,347.19 M121.35,343.57
			c-5.35-2.83-11.49-3.82-17.28-2.8l-4.03,0.71l0.71,4.03l1.42,8.05l0.71,4.03l4.03-0.71c2.28-0.4,4.69-0.01,6.8,1.11
			c2.07,1.09,3.7,2.77,4.72,4.86l1.8,3.68l3.68-1.8l7.36-3.6l3.68-1.8l-1.8-3.68C130.66,350.57,126.47,346.27,121.35,343.57
			L121.35,343.57z"/>
	</g>
	<g>
		<path class="st0" d="M54.67,377.08c-16.48-8.71-22.81-29.19-14.1-45.68c8.71-16.48,29.2-22.8,45.68-14.09
			c16.48,8.71,22.81,29.19,14.1,45.68C91.64,379.47,71.15,385.79,54.67,377.08z M80.53,328.13c-10.52-5.56-23.59-1.52-29.14,8.99
			s-1.52,23.59,9,29.14c10.52,5.56,23.59,1.52,29.14-8.99C95.09,346.76,91.05,333.69,80.53,328.13z"/>
	</g>
	<g>
		<path class="st3" d="M85.45,319.07c15.54,8.21,21.5,27.53,13.29,43.06s-27.53,21.5-43.06,13.29
			c-15.54-8.21-21.5-27.53-13.29-43.06C50.59,316.83,69.91,310.87,85.45,319.07 M59.5,368.19c11.55,6.1,25.9,1.67,32-9.87
			c6.1-11.55,1.67-25.9-9.88-32s-25.9-1.67-32,9.87S47.95,362.09,59.5,368.19 M87.36,315.46c-17.53-9.26-39.33-2.54-48.59,14.99
			s-2.53,39.33,15,48.59s39.33,2.54,48.59-14.99S104.89,324.72,87.36,315.46L87.36,315.46z M61.41,364.57
			c-9.55-5.05-13.22-16.92-8.17-26.47c5.05-9.55,16.92-13.21,26.47-8.17s13.22,16.92,8.17,26.47S70.96,369.62,61.41,364.57
			L61.41,364.57z"/>
	</g>
	<g>
		<path class="st0" d="M130.66,417.35c-16.54-8.74-22.88-29.29-14.15-45.83c8.74-16.54,29.29-22.88,45.83-14.14
			c16.54,8.74,22.88,29.29,14.15,45.83C167.75,419.75,147.19,426.09,130.66,417.35z M156.61,368.24
			c-10.55-5.57-23.67-1.53-29.24,9.02c-5.57,10.55-1.52,23.66,9.03,29.24s23.67,1.53,29.24-9.02
			C171.21,386.93,167.16,373.81,156.61,368.24z"/>
	</g>
	<g>
		<path class="st3" d="M161.39,359.19c15.54,8.21,21.5,27.53,13.29,43.06c-8.21,15.53-27.53,21.5-43.06,13.29
			c-15.54-8.21-21.5-27.53-13.29-43.06C126.53,356.95,145.85,350.99,161.39,359.19 M135.44,408.31c11.55,6.1,25.9,1.67,32-9.87
			c6.1-11.55,1.67-25.9-9.88-32c-11.55-6.1-25.9-1.67-32,9.87C119.46,387.85,123.89,402.21,135.44,408.31 M163.3,355.58
			c-17.53-9.26-39.33-2.54-48.59,14.99s-2.53,39.33,15,48.59s39.33,2.54,48.59-14.99C187.56,386.64,180.83,364.84,163.3,355.58
			L163.3,355.58z M137.35,404.69c-9.55-5.05-13.22-16.92-8.17-26.47c5.05-9.55,16.92-13.21,26.47-8.17s13.22,16.92,8.17,26.47
			C158.78,406.07,146.9,409.74,137.35,404.69L137.35,404.69z"/>
	</g>
</g>
<circle class="st2" cx="81.04" cy="196.31" r="49.21"/>
<circle class="st1" cx="552.83" cy="340.38" r="69.54"/>
<path class="st2" d="M511.43,395.2c0,19.67-4.57,38.27-12.7,54.8H275.42c-8.13-16.53-12.7-35.13-12.7-54.8
	c0-68.68,55.67-124.36,124.35-124.36S511.43,326.52,511.43,395.2z"/>
<circle class="st3" cx="267.42" cy="368.76" r="74.53"/>
<circle class="st0" cx="307.52" cy="315.39" r="53.47"/>
<circle class="st3" cx="643.72" cy="87.41" r="74.53"/>
<circle class="st0" cx="587.42" cy="123.28" r="53.47"/>
<circle class="st2" cx="805.34" cy="297.49" r="52.14"/>
<path class="st1" d="M900,298.54V450h-86.72c-10.72-15.58-16.98-34.46-16.98-54.8c0-32.27,15.77-60.85,40.02-78.46
	c15.97-11.6,35.62-18.44,56.87-18.44C895.48,298.3,897.75,298.38,900,298.54z"/>
<path class="st3" d="M900,135.62v211.17c-24.73-2.52-46.94-13.52-63.68-30.05c-19.51-19.24-31.59-45.97-31.59-75.53
	C804.73,186.26,846.49,141.06,900,135.62z"/>
<circle class="st2" cx="503.43" cy="78.65" r="76.16"/>
<g>
	<g>
		<path class="st0" d="M431.64,81.1l1.95-0.6c5.16-1.6,10.89-1.4,16.11,0.58c4.99,1.89,9.32,5.33,12.18,9.7l1.12,1.71l-10.25,6.71
			l-1.12-1.71c-1.5-2.3-3.66-4.03-6.25-5.01c-2.65-1-5.56-1.1-8.19-0.29l-1.95,0.6L431.64,81.1z"/>
	</g>
	<g>
		<path class="st3" d="M449.24,83c4.49,1.7,8.5,4.76,11.24,8.94l-6.85,4.49c-1.79-2.74-4.37-4.73-7.26-5.82
			c-3.02-1.14-6.39-1.31-9.54-0.33l-2.41-7.81C439.3,80.95,444.54,81.22,449.24,83 M450.69,79.17c-5.67-2.14-11.88-2.36-17.49-0.62
			l-3.91,1.21l1.21,3.91l2.41,7.81l1.21,3.91l3.91-1.21c2.21-0.68,4.65-0.59,6.89,0.25c2.19,0.83,4.02,2.29,5.29,4.23l2.24,3.43
			l3.43-2.24l6.85-4.49l3.43-2.24l-2.25-3.43C460.79,84.95,456.1,81.22,450.69,79.17L450.69,79.17z"/>
	</g>
	<g>
		<path class="st0" d="M388.71,120.73c-17.44-6.59-26.27-26.13-19.68-43.56c6.59-17.44,26.13-26.26,43.57-19.67
			c17.44,6.59,26.27,26.13,19.68,43.56C425.68,118.49,406.14,127.32,388.71,120.73z M408.27,68.94c-11.13-4.2-23.59,1.43-27.8,12.55
			s1.43,23.59,12.56,27.79c11.13,4.2,23.59-1.43,27.8-12.55S419.39,73.14,408.27,68.94z"/>
	</g>
	<g>
		<path class="st3" d="M412.01,59.34c16.44,6.21,24.76,24.64,18.55,41.07s-24.64,24.76-41.07,18.55
			c-16.44-6.21-24.76-24.64-18.55-41.07C377.15,61.46,395.57,53.13,412.01,59.34 M392.39,111.3c12.22,4.61,25.91-1.57,30.53-13.78
			S421.34,71.61,409.12,67c-12.22-4.61-25.91,1.57-30.53,13.78C373.98,93,380.17,106.69,392.39,111.3 M413.46,55.51
			c-18.55-7.01-39.34,2.38-46.35,20.93c-7.01,18.55,2.39,39.34,20.94,46.34c18.55,7.01,39.34-2.38,46.35-20.93
			S432.01,62.52,413.46,55.51L413.46,55.51z M393.83,107.48c-10.11-3.82-15.22-15.14-11.41-25.25s15.14-15.22,25.25-11.4
			c10.11,3.82,15.22,15.14,11.41,25.25S403.94,111.29,393.83,107.48L393.83,107.48z"/>
	</g>
	<g>
		<path class="st0" d="M469.12,151.22c-17.5-6.61-26.35-26.21-19.75-43.71s26.21-26.35,43.71-19.74
			c17.5,6.61,26.35,26.21,19.75,43.71C506.22,148.98,486.61,157.83,469.12,151.22z M488.74,99.26
			c-11.16-4.22-23.67,1.43-27.89,12.59s1.44,23.67,12.6,27.89s23.67-1.43,27.89-12.59C505.56,115.98,499.91,103.47,488.74,99.26z"/>
	</g>
	<g>
		<path class="st3" d="M492.36,89.69c16.44,6.21,24.76,24.64,18.55,41.07c-6.21,16.43-24.64,24.76-41.07,18.55
			c-16.44-6.21-24.76-24.64-18.55-41.07S475.92,83.48,492.36,89.69 M472.73,141.65c12.22,4.61,25.91-1.57,30.53-13.78
			c4.61-12.22-1.57-25.91-13.79-30.52s-25.91,1.57-30.53,13.78S460.51,137.04,472.73,141.65 M493.8,85.86
			c-18.55-7.01-39.34,2.38-46.35,20.93s2.39,39.34,20.94,46.34c18.55,7.01,39.34-2.38,46.35-20.93S512.35,92.87,493.8,85.86
			L493.8,85.86z M474.18,137.82c-10.11-3.82-15.22-15.14-11.41-25.25s15.14-15.22,25.25-11.4s15.22,15.14,11.41,25.25
			C495.61,136.53,484.28,141.64,474.18,137.82L474.18,137.82z"/>
	</g>
</g>
</svg>
